FrauncesItalic_WeightMax.ufo
<glyph name="exclam" format="2">
  <advance width="548"/>
  <unicode hex="0021"/>
  <outline>
    <contour>
      <point x="468.0" y="1360.0"/>
      <point x="552.0" y="1432.0"/>
      <point x="658.0" y="1432.0" type="curve" smooth="yes"/>
      <point x="752.0" y="1432.0"/>
      <point x="814.0" y="1356.0"/>
      <point x="814.0" y="1264.0" type="curve" smooth="yes"/>
      <point x="814.0" y="1240.0"/>
      <point x="814.0" y="1222.0"/>
      <point x="792.0" y="1174.0" type="curve" smooth="yes"/>
      <point x="506.0" y="516.0" type="line" smooth="yes"/>
      <point x="474.0" y="444.0"/>
      <point x="440.0" y="420.0"/>
      <point x="396.0" y="420.0" type="curve" smooth="yes"/>
      <point x="352.0" y="420.0"/>
      <point x="330.0" y="458.0"/>
      <point x="338.0" y="522.0" type="curve" smooth="yes"/>
      <point x="420.0" y="1196.0" type="line" smooth="yes"/>
      <point x="424.0" y="1222.0"/>
      <point x="428.0" y="1240.0"/>
      <point x="434.0" y="1258.0" type="curve" smooth="yes"/>
    </contour>
    <contour>
      <point x="264.168" y="-29.99" type="curve" smooth="yes"/>
      <point x="394.04965467625897" y="-29.99"/>
      <point x="504.88199999999995" y="76.93745454545456"/>
      <point x="504.88199999999995" y="197.66199999999998" type="curve" smooth="yes"/>
      <point x="504.88199999999995" y="275.8504590163934"/>
      <point x="443.03742857142856" y="330.14799999999997"/>
      <point x="355.602" y="330.14799999999997" type="curve" smooth="yes"/>
      <point x="216.98485714285715" y="330.14799999999997"/>
      <point x="113.02199999999999" y="214.6696641221374"/>
      <point x="113.02199999999999" y="104.362" type="curve" smooth="yes"/>
      <point x="113.02199999999999" y="26.35116129032257"/>
      <point x="176.88650704225353" y="-29.99"/>
    </contour>
  </outline>
</glyph>
<glyph name="numbersign" format="2">
  <advance width="1246"/>
  <unicode hex="0023"/>
  <outline>
    <contour>
      <point x="570.0" y="640.0" type="curve" smooth="yes"/>
      <point x="414.0" y="256.0"/>
      <point x="298.0" y="192.0"/>
      <point x="270.0" y="76.0" type="curve" smooth="yes"/>
      <point x="254.0" y="10.0"/>
      <point x="292.0" y="-32.0"/>
      <point x="364.0" y="-32.0" type="curve" smooth="yes"/>
      <point x="414.0" y="-32.0"/>
      <point x="490.0" y="-10.0"/>
      <point x="520.0" y="72.0" type="curve" smooth="yes"/>
      <point x="558.0" y="180.0"/>
      <point x="516.0" y="256.0"/>
      <point x="670.0" y="640.0" type="curve" smooth="yes"/>
      <point x="820.0" y="1018.0"/>
      <point x="934.0" y="1088.0"/>
      <point x="960.0" y="1204.0" type="curve" smooth="yes"/>
      <point x="976.0" y="1270.0"/>
      <point x="940.0" y="1310.0"/>
      <point x="874.0" y="1310.0" type="curve" smooth="yes"/>
      <point x="800.0" y="1310.0"/>
      <point x="734.0" y="1280.0"/>
      <point x="706.0" y="1200.0" type="curve" smooth="yes"/>
      <point x="660.0" y="1074.0"/>
      <point x="732.0" y="1046.0"/>
    </contour>
    <contour>
      <point x="930.0" y="640.0" type="curve" smooth="yes"/>
      <point x="784.0" y="258.0"/>
      <point x="660.0" y="192.0"/>
      <point x="632.0" y="76.0" type="curve" smooth="yes"/>
      <point x="616.0" y="10.0"/>
      <point x="658.0" y="-32.0"/>
      <point x="726.0" y="-32.0" type="curve" smooth="yes"/>
      <point x="778.0" y="-32.0"/>
      <point x="854.0" y="-10.0"/>
      <point x="884.0" y="72.0" type="curve" smooth="yes"/>
      <point x="922.0" y="180.0"/>
      <point x="880.0" y="256.0"/>
      <point x="1032.0" y="640.0" type="curve" smooth="yes"/>
      <point x="1180.0" y="1018.0"/>
      <point x="1298.0" y="1088.0"/>
      <point x="1324.0" y="1204.0" type="curve" smooth="yes"/>
      <point x="1340.0" y="1270.0"/>
      <point x="1304.0" y="1310.0"/>
      <point x="1240.0" y="1310.0" type="curve" smooth="yes"/>
      <point x="1160.0" y="1310.0"/>
      <point x="1102.0" y="1280.0"/>
      <point x="1072.0" y="1200.0" type="curve" smooth="yes"/>
      <point x="1022.0" y="1078.0"/>
      <point x="1084.0" y="1048.0"/>
    </contour>
    <contour>
      <point x="836.0" y="762.0" type="curve" smooth="yes"/>
      <point x="1114.0" y="762.0"/>
      <point x="1170.0" y="688.0"/>
      <point x="1266.0" y="688.0" type="curve" smooth="yes"/>
      <point x="1362.0" y="688.0"/>
      <point x="1424.0" y="754.0"/>
      <point x="1440.0" y="816.0" type="curve" smooth="yes"/>
      <point x="1456.0" y="876.0"/>
      <point x="1430.0" y="932.0"/>
      <point x="1342.0" y="932.0" type="curve" smooth="yes"/>
      <point x="1248.0" y="932.0"/>
      <point x="1146.0" y="860.0"/>
      <point x="862.0" y="860.0" type="curve" smooth="yes"/>
      <point x="588.0" y="860.0"/>
      <point x="530.0" y="934.0"/>
      <point x="434.0" y="934.0" type="curve" smooth="yes"/>
      <point x="338.0" y="934.0"/>
      <point x="284.0" y="880.0"/>
      <point x="268.0" y="818.0" type="curve" smooth="yes"/>
      <point x="248.0" y="746.0"/>
      <point x="276.0" y="694.0"/>
      <point x="372.0" y="692.0" type="curve" smooth="yes"/>
      <point x="464.0" y="690.0"/>
      <point x="562.0" y="762.0"/>
    </contour>
    <contour>
      <point x="718.0" y="412.0" type="curve" smooth="yes"/>
      <point x="996.0" y="412.0"/>
      <point x="1052.0" y="344.0"/>
      <point x="1150.0" y="344.0" type="curve" smooth="yes"/>
      <point x="1246.0" y="344.0"/>
      <point x="1304.0" y="406.0"/>
      <point x="1322.0" y="472.0" type="curve" smooth="yes"/>
      <point x="1338.0" y="528.0"/>
      <point x="1314.0" y="588.0"/>
      <point x="1222.0" y="588.0" type="curve" smooth="yes"/>
      <point x="1132.0" y="588.0"/>
      <point x="1032.0" y="514.0"/>
      <point x="746.0" y="514.0" type="curve" smooth="yes"/>
      <point x="472.0" y="514.0"/>
      <point x="412.0" y="590.0"/>
      <point x="316.0" y="590.0" type="curve" smooth="yes"/>
      <point x="222.0" y="590.0"/>
      <point x="166.0" y="532.0"/>
      <point x="152.0" y="474.0" type="curve" smooth="yes"/>
      <point x="130.0" y="398.0"/>
      <point x="160.0" y="350.0"/>
      <point x="254.0" y="348.0" type="curve" smooth="yes"/>
      <point x="346.0" y="346.0"/>
      <point x="442.0" y="412.0"/>
    </contour>
  </outline>
</glyph>
<glyph name="percent" format="2">
  <advance width="1662"/>
  <unicode hex="0025"/>
  <outline>
    <contour>
      <point x="1640.0" y="1074.0" type="curve" smooth="yes"/>
      <point x="1717.1714785452568" y="1137.6664697998367"/>
      <point x="1762.0" y="1185.578947368421"/>
      <point x="1762.0" y="1234.0" type="curve" smooth="yes"/>
      <point x="1762.0" y="1279.7446808510638"/>
      <point x="1733.3333333333333" y="1320.0"/>
      <point x="1676.0" y="1320.0" type="curve" smooth="yes"/>
      <point x="1614.8131868131868" y="1320.0"/>
      <point x="1563.0399000698887" y="1278.977958138914"/>
      <point x="1502.0" y="1214.0" type="curve" smooth="yes"/>
      <point x="1367.1863614718527" y="1073.1499298959654"/>
      <point x="1220.02254732" y="896.0207253143433"/>
      <point x="1022.0" y="714.0" type="curve" smooth="yes"/>
      <point x="750.0" y="464.0"/>
      <point x="570.3620268753459" y="372.62722252409947"/>
      <point x="362.0" y="198.0" type="curve" smooth="yes"/>
      <point x="302.11642065532874" y="146.37622470286965"/>
      <point x="272.0" y="91.47945205479454"/>
      <point x="272.0" y="54.0" type="curve" smooth="yes"/>
      <point x="272.0" y="18.36363636363636"/>
      <point x="298.5945945945946" y="-30.0"/>
      <point x="354.0" y="-30.0" type="curve" smooth="yes"/>
      <point x="405.51724137931035" y="-30.0"/>
      <point x="458.3977713661559" y="-15.576565965059828"/>
      <point x="520.0" y="50.0" type="curve" smooth="yes"/>
      <point x="686.5451927999032" y="218.5278736665687"/>
      <point x="776.6211426209887" y="354.47012488827676"/>
      <point x="1078.0" y="646.0" type="curve" smooth="yes"/>
      <point x="1292.9371841819363" y="854.8540563277306"/>
      <point x="1494.2642485261931" y="952.5535404384941"/>
    </contour>
    <contour>
      <point x="736.0" y="1318.0" type="curve" smooth="yes"/>
      <point x="520.0" y="1318.0"/>
      <point x="348.0" y="1176.0"/>
      <point x="306.0" y="952.0" type="curve" smooth="yes"/>
      <point x="266.0" y="734.0"/>
      <point x="378.0" y="580.0"/>
      <point x="576.0" y="580.0" type="curve" smooth="yes"/>
      <point x="788.0" y="580.0"/>
      <point x="962.0" y="716.0"/>
      <point x="1004.0" y="952.0" type="curve" smooth="yes"/>
      <point x="1042.0" y="1168.0"/>
      <point x="934.0" y="1318.0"/>
    </contour>
    <contour>
      <point x="768.0" y="968.0" type="curve" smooth="yes"/>
      <point x="742.0" y="754.0"/>
      <point x="668.0" y="690.0"/>
      <point x="604.0" y="690.0" type="curve" smooth="yes"/>
      <point x="550.0" y="690.0"/>
      <point x="510.0" y="768.0"/>
      <point x="540.0" y="940.0" type="curve" smooth="yes"/>
      <point x="576.0" y="1132.0"/>
      <point x="642.0" y="1206.0"/>
      <point x="704.0" y="1206.0" type="curve" smooth="yes"/>
      <point x="762.0" y="1206.0"/>
      <point x="792.0" y="1142.0"/>
    </contour>
    <contour>
      <point x="1430.0" y="694.0" type="curve" smooth="yes"/>
      <point x="1214.0" y="694.0"/>
      <point x="1042.0" y="552.0"/>
      <point x="1000.0" y="328.0" type="curve" smooth="yes"/>
      <point x="960.0" y="110.0"/>
      <point x="1072.0" y="-44.0"/>
      <point x="1270.0" y="-44.0" type="curve" smooth="yes"/>
      <point x="1482.0" y="-44.0"/>
      <point x="1656.0" y="92.0"/>
      <point x="1698.0" y="328.0" type="curve" smooth="yes"/>
      <point x="1736.0" y="544.0"/>
      <point x="1628.0" y="694.0"/>
    </contour>
    <contour>
      <point x="1462.0" y="344.0" type="curve" smooth="yes"/>
      <point x="1436.0" y="130.0"/>
      <point x="1362.0" y="66.0"/>
      <point x="1298.0" y="66.0" type="curve" smooth="yes"/>
      <point x="1244.0" y="66.0"/>
      <point x="1204.0" y="144.0"/>
      <point x="1234.0" y="316.0" type="curve" smooth="yes"/>
      <point x="1270.0" y="508.0"/>
      <point x="1336.0" y="582.0"/>
      <point x="1398.0" y="582.0" type="curve" smooth="yes"/>
      <point x="1456.0" y="582.0"/>
      <point x="1486.0" y="518.0"/>
    </contour>
  </outline>
</glyph>
<glyph name="ampersand" format="2">
  <advance width="1374"/>
  <unicode hex="0026"/>
  <outline>
    <contour>
      <point x="354.0" y="314.0" type="line" smooth="yes"/>
      <point x="38.0" y="80.0"/>
      <point x="-58.0" y="-100.0"/>
      <point x="-58.0" y="-268.0" type="curve" smooth="yes"/>
      <point x="-58.0" y="-416.0"/>
      <point x="26.363636363636374" y="-490.0"/>
      <point x="134.0" y="-490.0" type="curve" smooth="yes"/>
      <point x="243.24137931034483" y="-490.0"/>
      <point x="326.0" y="-411.1034482758621"/>
      <point x="326.0" y="-314.0" type="curve" smooth="yes"/>
      <point x="326.0" y="-224.0"/>
      <point x="250.0" y="-186.0"/>
      <point x="250.0" y="-90.0" type="curve" smooth="yes"/>
      <point x="250.0" y="8.244897959183675"/>
      <point x="286.0" y="114.0"/>
      <point x="462.0" y="242.0" type="curve" smooth="yes"/>
      <point x="1162.0" y="756.0" type="line" smooth="yes"/>
      <point x="1432.0" y="954.0"/>
      <point x="1520.0" y="1082.0"/>
      <point x="1520.0" y="1236.0" type="curve" smooth="yes"/>
      <point x="1520.0" y="1358.0"/>
      <point x="1434.0" y="1430.0"/>
      <point x="1342.0" y="1430.0" type="curve" smooth="yes"/>
      <point x="1220.0" y="1430.0"/>
      <point x="1134.0" y="1342.0"/>
      <point x="1134.0" y="1264.0" type="curve" smooth="yes"/>
      <point x="1134.0" y="1190.0"/>
      <point x="1208.0" y="1146.0"/>
      <point x="1208.0" y="1052.0" type="curve" smooth="yes"/>
      <point x="1208.0" y="982.5263157894736"/>
      <point x="1172.2546017192349" y="921.2433863761657"/>
      <point x="1052.0" y="832.0" type="curve" smooth="yes"/>
    </contour>
    <contour>
      <point x="1144.0" y="304.0" type="curve" smooth="yes"/>
      <point x="1144.0" y="210.0"/>
      <point x="1036.0" y="136.0"/>
      <point x="884.0" y="136.0" type="curve" smooth="yes"/>
      <point x="666.0" y="136.0"/>
      <point x="536.0" y="266.0"/>
      <point x="536.0" y="480.0" type="curve" smooth="yes"/>
      <point x="536.0" y="688.0"/>
      <point x="657.875" y="846.0"/>
      <point x="776.0" y="846.0" type="curve" smooth="yes"/>
      <point x="840.0" y="846.0"/>
      <point x="874.0" y="798.5925925925926"/>
      <point x="874.0" y="718.0" type="curve" smooth="yes"/>
      <point x="874.0" y="603.7757009345794"/>
      <point x="812.0" y="496.0"/>
      <point x="848.0" y="524.0" type="curve" smooth="yes"/>
      <point x="954.0" y="604.0"/>
      <point x="1034.0" y="654.0"/>
      <point x="1088.0" y="654.0" type="curve" smooth="yes"/>
      <point x="1150.0" y="654.0"/>
      <point x="1190.0" y="704.0"/>
      <point x="1190.0" y="766.0" type="curve" smooth="yes"/>
      <point x="1190.0" y="886.6785714285714"/>
      <point x="1043.3333333333333" y="984.0"/>
      <point x="838.0" y="984.0" type="curve" smooth="yes"/>
      <point x="528.7453874538746" y="984.0"/>
      <point x="256.0" y="684.828025477707"/>
      <point x="256.0" y="374.0" type="curve" smooth="yes"/>
      <point x="256.0" y="129.08808290155437"/>
      <point x="438.0" y="-30.0"/>
      <point x="780.0" y="-30.0" type="curve" smooth="yes"/>
      <point x="1204.0" y="-30.0"/>
      <point x="1436.0" y="168.89655172413794"/>
      <point x="1436.0" y="418.0" type="curve" smooth="yes"/>
      <point x="1436.0" y="552.0"/>
      <point x="1364.0" y="618.0"/>
      <point x="1258.0" y="618.0" type="curve" smooth="yes"/>
      <point x="1158.0" y="618.0"/>
      <point x="1102.0" y="550.0"/>
      <point x="1102.0" y="476.0" type="curve" smooth="yes"/>
      <point x="1102.0" y="410.0"/>
      <point x="1144.0" y="374.0"/>
    </contour>
  </outline>
</glyph>
<glyph name="parenright" format="2">
  <advance width="830"/>
  <unicode hex="0029"/>
  <outline>
    <contour>
      <point x="834.0" y="584.0" type="curve" smooth="yes"/>
      <point x="962.0" y="1056.0"/>
      <point x="802.0" y="1392.0"/>
      <point x="552.0" y="1488.0" type="curve" smooth="yes"/>
      <point x="520.0" y="1500.0"/>
      <point x="486.0" y="1504.0"/>
      <point x="466.0" y="1504.0" type="curve" smooth="yes"/>
      <point x="436.0" y="1504.0"/>
      <point x="408.0" y="1480.0"/>
      <point x="400.0" y="1448.0" type="curve" smooth="yes"/>
      <point x="394.0" y="1428.0"/>
      <point x="400.0" y="1410.0"/>
      <point x="430.0" y="1394.0" type="curve" smooth="yes"/>
      <point x="604.0" y="1302.0"/>
      <point x="652.0" y="1004.0"/>
      <point x="538.0" y="584.0" type="curve" smooth="yes"/>
      <point x="426.0" y="166.0"/>
      <point x="218.0" y="-134.0"/>
      <point x="-4.0" y="-226.0" type="curve" smooth="yes"/>
      <point x="-42.0" y="-242.0"/>
      <point x="-58.0" y="-262.0"/>
      <point x="-64.0" y="-286.0" type="curve" smooth="yes"/>
      <point x="-72.0" y="-312.0"/>
      <point x="-58.0" y="-338.0"/>
      <point x="-30.0" y="-338.0" type="curve" smooth="yes"/>
      <point x="-10.0" y="-338.0"/>
      <point x="16.0" y="-328.0"/>
      <point x="64.0" y="-312.0" type="curve" smooth="yes"/>
      <point x="394.0" y="-196.0"/>
      <point x="720.0" y="160.0"/>
    </contour>
  </outline>
</glyph>
<glyph name="plus" format="2">
  <advance width="996"/>
  <unicode hex="002B"/>
  <outline>
    <contour>
      <point x="222.0" y="606.0" type="curve" smooth="yes"/>
      <point x="206.0" y="548.0"/>
      <point x="248.0" y="502.0"/>
      <point x="306.0" y="502.0" type="curve" smooth="yes"/>
      <point x="420.0" y="502.0"/>
      <point x="562.0" y="530.0"/>
      <point x="646.0" y="530.0" type="curve" smooth="yes"/>
      <point x="732.0" y="530.0"/>
      <point x="852.0" y="502.0"/>
      <point x="958.0" y="502.0" type="curve" smooth="yes"/>
      <point x="1026.0" y="502.0"/>
      <point x="1082.0" y="548.0"/>
      <point x="1098.0" y="606.0" type="curve" smooth="yes"/>
      <point x="1114.0" y="666.0"/>
      <point x="1080.0" y="714.0"/>
      <point x="1016.0" y="714.0" type="curve" smooth="yes"/>
      <point x="908.0" y="714.0"/>
      <point x="774.0" y="686.0"/>
      <point x="688.0" y="686.0" type="curve" smooth="yes"/>
      <point x="590.0" y="686.0"/>
      <point x="478.0" y="714.0"/>
      <point x="366.0" y="714.0" type="curve" smooth="yes"/>
      <point x="310.0" y="714.0"/>
      <point x="238.0" y="666.0"/>
    </contour>
    <contour>
      <point x="550.0" y="166.0" type="curve" smooth="yes"/>
      <point x="608.0" y="166.0"/>
      <point x="668.0" y="218.0"/>
      <point x="684.0" y="278.0" type="curve" smooth="yes"/>
      <point x="716.0" y="392.0"/>
      <point x="722.0" y="526.0"/>
      <point x="746.0" y="610.0" type="curve" smooth="yes"/>
      <point x="768.0" y="696.0"/>
      <point x="830.0" y="824.0"/>
      <point x="860.0" y="930.0" type="curve" smooth="yes"/>
      <point x="878.0" y="998.0"/>
      <point x="844.0" y="1042.0"/>
      <point x="786.0" y="1042.0" type="curve" smooth="yes"/>
      <point x="724.0" y="1042.0"/>
      <point x="664.0" y="996.0"/>
      <point x="648.0" y="930.0" type="curve" smooth="yes"/>
      <point x="618.0" y="824.0"/>
      <point x="612.0" y="696.0"/>
      <point x="590.0" y="610.0" type="curve" smooth="yes"/>
      <point x="564.0" y="512.0"/>
      <point x="504.0" y="392.0"/>
      <point x="474.0" y="280.0" type="curve" smooth="yes"/>
      <point x="458.0" y="224.0"/>
      <point x="490.0" y="166.0"/>
    </contour>
  </outline>
</glyph>
<glyph name="period" format="2">
  <advance width="560"/>
  <unicode hex="002E"/>
  <outline>
    <contour>
      <point x="296.0" y="-30.0" type="curve" smooth="yes"/>
      <point x="435.2086330935252" y="-30.0"/>
      <point x="554.0" y="84.60606060606062"/>
      <point x="554.0" y="214.0" type="curve" smooth="yes"/>
      <point x="554.0" y="297.8032786885246"/>
      <point x="487.7142857142857" y="356.0"/>
      <point x="394.0" y="356.0" type="curve" smooth="yes"/>
      <point x="245.42857142857144" y="356.0"/>
      <point x="134.0" y="232.2290076335878"/>
      <point x="134.0" y="114.0" type="curve" smooth="yes"/>
      <point x="134.0" y="30.387096774193537"/>
      <point x="202.45070422535213" y="-30.0"/>
    </contour>
  </outline>
</glyph>
<glyph name="slash" format="2">
  <advance width="840"/>
  <unicode hex="002F"/>
  <outline>
    <contour>
      <point x="1140.9653969521028" y="1364.0" type="curve" smooth="yes"/>
      <point x="1157.8269581887967" y="1388.0"/>
      <point x="1168.5449258860415" y="1408.0"/>
      <point x="1173.1193000438375" y="1424.0" type="curve" smooth="yes"/>
      <point x="1190.4885934447457" y="1490.0"/>
      <point x="1154.0681223786844" y="1534.0"/>
      <point x="1096.0681223786844" y="1534.0" type="curve" smooth="yes"/>
      <point x="1036.0681223786844" y="1534.0"/>
      <point x="981.1296095961231" y="1480.0"/>
      <point x="953.1193000438375" y="1424.0" type="curve" smooth="yes"/>
      <point x="875.3755584658782" y="1264.0"/>
      <point x="824.2061910457148" y="1120.0"/>
      <point x="563.7698855549493" y="690.0" type="curve" smooth="yes"/>
      <point x="278.96944143941846" y="222.0"/>
      <point x="160.45139972291838" y="124.0"/>
      <point x="54.70765814495917" y="-36.0" type="curve" smooth="yes"/>
      <point x="31.415316289918337" y="-72.0"/>
      <point x="21.625551822948978" y="-94.0"/>
      <point x="14.907584125704034" y="-114.0" type="curve" smooth="yes"/>
      <point x="3.1844616523162586" y="-162.0"/>
      <point x="32.389542409203955" y="-212.0"/>
      <point x="88.38954240920395" y="-212.0" type="curve" smooth="yes"/>
      <point x="146.38954240920395" y="-212.0"/>
      <point x="210.75368103396931" y="-174.0"/>
      <point x="254.9845356715714" y="-84.0" type="curve" smooth="yes"/>
      <point x="333.5128869403572" y="70.0"/>
      <point x="354.0309286568572" y="168.0"/>
      <point x="638.4775436999084" y="654.0" type="curve" smooth="yes"/>
      <point x="898.4164265787455" y="1098.0"/>
      <point x="1037.7960295319394" y="1220.0"/>
    </contour>
  </outline>
</glyph>
<glyph name="zero" format="2">
  <advance width="1282"/>
  <unicode hex="0030"/>
  <outline>
    <contour>
      <point x="988.0" y="1318.0" type="curve" smooth="yes"/>
      <point x="656.0" y="1318.0"/>
      <point x="360.0" y="1076.0"/>
      <point x="256.0" y="688.0" type="curve" smooth="yes"/>
      <point x="128.0" y="221.99999999999994"/>
      <point x="244.0" y="-30.0"/>
      <point x="624.0" y="-30.0" type="curve" smooth="yes"/>
      <point x="942.0" y="-30.0"/>
      <point x="1264.0" y="202.0000000000001"/>
      <point x="1384.0" y="648.0" type="curve" smooth="yes"/>
      <point x="1496.0" y="1070.0"/>
      <point x="1348.0" y="1318.0"/>
    </contour>
    <contour>
      <point x="1060.0" y="1172.0"/>
      <point x="1128.0" y="976.0"/>
      <point x="1020.0" y="564.0" type="curve" smooth="yes"/>
      <point x="932.0" y="228.0"/>
      <point x="806.0" y="116.0"/>
      <point x="678.0" y="116.0" type="curve" smooth="yes"/>
      <point x="564.0" y="116.0"/>
      <point x="488.0" y="304.00000000000006"/>
      <point x="610.0" y="758.0" type="curve" smooth="yes"/>
      <point x="690.0" y="1052.0"/>
      <point x="802.0" y="1172.0"/>
      <point x="940.0" y="1172.0" type="curve" smooth="yes"/>
    </contour>
  </outline>
</glyph>
<glyph name="two" format="2">
  <advance width="1122"/>
  <unicode hex="0032"/>
  <outline>
    <contour>
      <point x="616.0" y="606.0" type="curve" smooth="yes"/>
      <point x="280.0" y="464.0"/>
      <point x="130.0" y="278.0"/>
      <point x="96.0" y="122.0" type="curve" smooth="yes"/>
      <point x="74.0" y="26.0"/>
      <point x="114.0" y="-30.0"/>
      <point x="196.0" y="-30.0" type="curve" smooth="yes"/>
      <point x="276.0" y="-30.0"/>
      <point x="310.0" y="82.0"/>
      <point x="412.0" y="82.0" type="curve" smooth="yes"/>
      <point x="556.0" y="82.0"/>
      <point x="620.0" y="-30.0"/>
      <point x="792.0" y="-30.0" type="curve" smooth="yes"/>
      <point x="990.0" y="-30.0"/>
      <point x="1142.0" y="94.0"/>
      <point x="1186.0" y="304.0" type="curve" smooth="yes"/>
      <point x="1198.0" y="366.0"/>
      <point x="1182.0" y="400.0"/>
      <point x="1134.0" y="400.0" type="curve" smooth="yes"/>
      <point x="1100.0" y="400.0"/>
      <point x="1066.0" y="382.0"/>
      <point x="1040.0" y="334.0" type="curve" smooth="yes"/>
      <point x="1008.0" y="276.0"/>
      <point x="974.0" y="254.0"/>
      <point x="906.0" y="254.0" type="curve" smooth="yes"/>
      <point x="786.0" y="254.0"/>
      <point x="700.0" y="334.0"/>
      <point x="518.0" y="334.0" type="curve" smooth="yes"/>
      <point x="350.0" y="334.0"/>
      <point x="248.0" y="202.0"/>
      <point x="216.0" y="66.0" type="curve"/>
      <point x="274.0" y="68.0" type="line"/>
      <point x="306.0" y="218.0"/>
      <point x="390.0" y="344.0"/>
      <point x="712.0" y="482.0" type="curve" smooth="yes"/>
      <point x="1077.036125138104" y="641.5786339401548"/>
      <point x="1250.748141744248" y="765.0549121223459"/>
      <point x="1298.0" y="958.0" type="curve" smooth="yes"/>
      <point x="1346.0" y="1164.0"/>
      <point x="1208.0" y="1320.0"/>
      <point x="898.0" y="1320.0" type="curve" smooth="yes"/>
      <point x="580.0" y="1320.0"/>
      <point x="374.0" y="1160.0"/>
      <point x="338.0" y="980.0" type="curve" smooth="yes"/>
      <point x="314.0" y="856.0"/>
      <point x="370.0" y="778.0"/>
      <point x="466.0" y="778.0" type="curve" smooth="yes"/>
      <point x="556.0" y="778.0"/>
      <point x="646.0" y="850.0"/>
      <point x="674.0" y="958.0" type="curve" smooth="yes"/>
      <point x="690.0" y="1020.0" type="line" smooth="yes"/>
      <point x="716.0" y="1122.0"/>
      <point x="772.0" y="1182.0"/>
      <point x="862.0" y="1182.0" type="curve" smooth="yes"/>
      <point x="940.0" y="1182.0"/>
      <point x="996.0" y="1104.0"/>
      <point x="964.0" y="960.0" type="curve" smooth="yes"/>
      <point x="928.7610652259679" y="793.5939191226258"/>
      <point x="829.2691845697528" y="697.6858176655012"/>
    </contour>
  </outline>
</glyph>
<glyph name="three" format="2">
  <advance width="1064"/>
  <unicode hex="0033"/>
  <outline>
    <contour>
      <point x="722.0" y="680.0" type="line"/>
      <point x="1242.0" y="1104.0" type="line" smooth="yes"/>
      <point x="1290.0" y="1142.0"/>
      <point x="1312.0" y="1182.0"/>
      <point x="1320.0" y="1210.0" type="curve" smooth="yes"/>
      <point x="1334.0" y="1262.0"/>
      <point x="1304.0" y="1298.0"/>
      <point x="1240.0" y="1298.0" type="curve" smooth="yes"/>
      <point x="602.0" y="1298.0" type="line" smooth="yes"/>
      <point x="520.0" y="1298.0"/>
      <point x="458.0" y="1252.0"/>
      <point x="434.0" y="1184.0" type="curve" smooth="yes"/>
      <point x="346.0" y="936.0" type="line" smooth="yes"/>
      <point x="332.0" y="892.0"/>
      <point x="356.0" y="870.0"/>
      <point x="396.0" y="870.0" type="curve" smooth="yes"/>
      <point x="434.0" y="870.0"/>
      <point x="468.0" y="900.0"/>
      <point x="494.0" y="932.0" type="curve" smooth="yes"/>
      <point x="542.0" y="990.0" type="line" smooth="yes"/>
      <point x="584.0" y="1042.0"/>
      <point x="632.0" y="1060.0"/>
      <point x="700.0" y="1060.0" type="curve" smooth="yes"/>
      <point x="1110.0" y="1060.0" type="line"/>
      <point x="1108.0" y="1170.0" type="line"/>
      <point x="578.0" y="738.0" type="line" smooth="yes"/>
      <point x="544.0" y="712.0"/>
      <point x="516.0" y="682.0"/>
      <point x="508.0" y="648.0" type="curve" smooth="yes"/>
      <point x="498.0" y="610.0"/>
      <point x="524.0" y="584.0"/>
      <point x="568.0" y="584.0" type="curve" smooth="yes"/>
      <point x="640.0" y="584.0" type="line" smooth="yes"/>
      <point x="764.0" y="584.0"/>
      <point x="830.0" y="504.0"/>
      <point x="786.0" y="344.0" type="curve" smooth="yes"/>
      <point x="748.0" y="198.0"/>
      <point x="656.0" y="100.0"/>
      <point x="560.0" y="98.0" type="curve" smooth="yes"/>
      <point x="476.0" y="96.0"/>
      <point x="436.0" y="152.0"/>
      <point x="456.0" y="222.0" type="curve" smooth="yes"/>
      <point x="476.0" y="298.0" type="line" smooth="yes"/>
      <point x="502.0" y="398.0"/>
      <point x="450.0" y="468.0"/>
      <point x="366.0" y="468.0" type="curve" smooth="yes"/>
      <point x="268.0" y="468.0"/>
      <point x="166.0" y="392.0"/>
      <point x="140.0" y="288.0" type="curve" smooth="yes"/>
      <point x="92.0" y="112.0"/>
      <point x="218.0" y="-30.0"/>
      <point x="508.0" y="-30.0" type="curve" smooth="yes"/>
      <point x="798.0" y="-30.0"/>
      <point x="1036.0" y="132.0"/>
      <point x="1104.0" y="390.0" type="curve" smooth="yes"/>
      <point x="1166.0" y="620.0"/>
      <point x="1010.0" y="730.0"/>
      <point x="720.0" y="730.0" type="curve" smooth="yes"/>
      <point x="714.0" y="730.0"/>
      <point x="682.0" y="730.0"/>
      <point x="674.0" y="730.0" type="curve"/>
    </contour>
  </outline>
</glyph>
<glyph name="four" format="2">
  <advance width="1102"/>
  <unicode hex="0034"/>
  <outline>
    <contour>
      <point x="806.0" y="728.0"/>
      <point x="778.0" y="696.0"/>
      <point x="766.0" y="646.0" type="curve" smooth="yes"/>
      <point x="664.0" y="262.0" type="line" smooth="yes"/>
      <point x="648.0" y="204.0"/>
      <point x="616.0" y="180.0"/>
      <point x="560.0" y="164.0" type="curve" smooth="yes"/>
      <point x="502.0" y="148.0" type="line" smooth="yes"/>
      <point x="434.0" y="130.0"/>
      <point x="394.0" y="120.0"/>
      <point x="380.0" y="70.0" type="curve" smooth="yes"/>
      <point x="368.0" y="20.0"/>
      <point x="388.0" y="0.0"/>
      <point x="448.0" y="0.0" type="curve" smooth="yes"/>
      <point x="988.0" y="0.0" type="line" smooth="yes"/>
      <point x="1046.0" y="0.0"/>
      <point x="1080.0" y="20.0"/>
      <point x="1092.0" y="70.0" type="curve" smooth="yes"/>
      <point x="1106.0" y="120.0"/>
      <point x="1082.0" y="146.0"/>
      <point x="1034.0" y="154.0" type="curve" smooth="yes"/>
      <point x="994.0" y="160.0" type="line" smooth="yes"/>
      <point x="946.0" y="168.0"/>
      <point x="928.0" y="198.0"/>
      <point x="942.0" y="256.0" type="curve" smooth="yes"/>
      <point x="1094.0" y="832.0" type="line" smooth="yes"/>
      <point x="1108.0" y="884.0"/>
      <point x="1090.0" y="906.0"/>
      <point x="1056.0" y="906.0" type="curve" smooth="yes"/>
      <point x="1028.0" y="906.0"/>
      <point x="1000.0" y="900.0"/>
      <point x="952.0" y="858.0" type="curve" smooth="yes"/>
      <point x="844.0" y="762.0" type="line" smooth="yes"/>
    </contour>
    <contour>
      <point x="536.0" y="788.0" type="curve" smooth="yes"/>
      <point x="254.0" y="554.0" type="line" smooth="yes"/>
      <point x="190.0" y="500.0"/>
      <point x="144.0" y="450.0"/>
      <point x="134.0" y="410.0" type="curve" smooth="yes"/>
      <point x="118.0" y="348.0"/>
      <point x="146.0" y="312.0"/>
      <point x="214.0" y="312.0" type="curve" smooth="yes"/>
      <point x="1064.0" y="312.0" type="line" smooth="yes"/>
      <point x="1132.0" y="312.0"/>
      <point x="1168.0" y="338.0"/>
      <point x="1186.0" y="400.0" type="curve" smooth="yes"/>
      <point x="1198.0" y="446.0"/>
      <point x="1160.0" y="468.0"/>
      <point x="1106.0" y="468.0" type="curve" smooth="yes"/>
      <point x="296.0" y="468.0" type="line"/>
      <point x="284.0" y="414.0" type="line"/>
      <point x="796.0" y="844.0" type="line" smooth="yes"/>
      <point x="970.0" y="990.0"/>
      <point x="1044.0" y="1068.0"/>
      <point x="1066.0" y="1146.0" type="curve" smooth="yes"/>
      <point x="1094.0" y="1254.0"/>
      <point x="1034.0" y="1330.0"/>
      <point x="928.0" y="1330.0" type="curve" smooth="yes"/>
      <point x="798.0" y="1330.0"/>
      <point x="696.0" y="1238.0"/>
      <point x="670.0" y="1140.0" type="curve" smooth="yes"/>
      <point x="650.0" y="1064.0"/>
      <point x="700.0" y="1040.0"/>
      <point x="682.0" y="970.0" type="curve" smooth="yes"/>
      <point x="668.0" y="918.0"/>
      <point x="618.0" y="856.0"/>
    </contour>
  </outline>
</glyph>
<glyph name="five" format="2">
  <advance width="1116"/>
  <unicode hex="0035"/>
  <outline>
    <contour>
      <point x="144.0" y="282.0" type="curve" smooth="yes"/>
      <point x="108.0" y="114.0"/>
      <point x="256.0" y="-28.0"/>
      <point x="488.0" y="-28.0" type="curve" smooth="yes"/>
      <point x="796.0" y="-28.0"/>
      <point x="1092.0" y="128.0"/>
      <point x="1146.0" y="366.0" type="curve" smooth="yes"/>
      <point x="1208.0" y="630.0"/>
      <point x="1046.0" y="806.0"/>
      <point x="728.0" y="806.0" type="curve" smooth="yes"/>
      <point x="606.0" y="806.0"/>
      <point x="482.0" y="768.0"/>
      <point x="388.0" y="662.0" type="curve"/>
      <point x="462.0" y="622.0" type="line"/>
      <point x="614.0" y="1186.0" type="line"/>
      <point x="530.0" y="1064.0" type="line"/>
      <point x="562.0" y="980.0"/>
      <point x="682.0" y="930.0"/>
      <point x="842.0" y="930.0" type="curve" smooth="yes"/>
      <point x="1090.0" y="930.0"/>
      <point x="1310.0" y="1064.0"/>
      <point x="1346.0" y="1234.0" type="curve" smooth="yes"/>
      <point x="1362.0" y="1294.0"/>
      <point x="1330.0" y="1322.0"/>
      <point x="1290.0" y="1322.0" type="curve" smooth="yes"/>
      <point x="1254.0" y="1322.0"/>
      <point x="1224.0" y="1304.0"/>
      <point x="1194.0" y="1262.0" type="curve" smooth="yes"/>
      <point x="1154.0" y="1214.0"/>
      <point x="1098.0" y="1202.0"/>
      <point x="1032.0" y="1202.0" type="curve" smooth="yes"/>
      <point x="842.0" y="1202.0"/>
      <point x="738.0" y="1320.0"/>
      <point x="608.0" y="1320.0" type="curve" smooth="yes"/>
      <point x="524.0" y="1320.0"/>
      <point x="482.0" y="1278.0"/>
      <point x="462.0" y="1212.0" type="curve" smooth="yes"/>
      <point x="298.0" y="644.0" type="line" smooth="yes"/>
      <point x="280.0" y="580.0"/>
      <point x="318.0" y="526.0"/>
      <point x="362.0" y="526.0" type="curve" smooth="yes"/>
      <point x="394.0" y="526.0"/>
      <point x="436.0" y="538.0"/>
      <point x="474.0" y="576.0" type="curve" smooth="yes"/>
      <point x="528.0" y="632.0"/>
      <point x="592.0" y="648.0"/>
      <point x="652.0" y="648.0" type="curve" smooth="yes"/>
      <point x="808.0" y="648.0"/>
      <point x="868.0" y="550.0"/>
      <point x="824.0" y="368.0" type="curve" smooth="yes"/>
      <point x="786.0" y="196.0"/>
      <point x="680.0" y="96.0"/>
      <point x="558.0" y="96.0" type="curve" smooth="yes"/>
      <point x="484.0" y="96.0"/>
      <point x="444.0" y="154.0"/>
      <point x="460.0" y="216.0" type="curve" smooth="yes"/>
      <point x="474.0" y="280.0" type="line" smooth="yes"/>
      <point x="498.0" y="390.0"/>
      <point x="438.0" y="460.0"/>
      <point x="336.0" y="460.0" type="curve" smooth="yes"/>
      <point x="252.0" y="460.0"/>
      <point x="168.0" y="384.0"/>
    </contour>
  </outline>
</glyph>
<glyph name="seven" format="2">
  <advance width="966"/>
  <unicode hex="0037"/>
  <outline>
    <contour>
      <point x="1058.0" y="1100.0" type="curve" smooth="yes"/>
      <point x="880.0" y="938.0" type="line" smooth="yes"/>
      <point x="421.8999489049585" y="521.0774815876589"/>
      <point x="316.0" y="338.58734177215194"/>
      <point x="316.0" y="154.0" type="curve" smooth="yes"/>
      <point x="316.0" y="36.0"/>
      <point x="386.0" y="-30.0"/>
      <point x="508.0" y="-30.0" type="curve" smooth="yes"/>
      <point x="632.0" y="-30.0"/>
      <point x="710.0" y="78.0"/>
      <point x="710.0" y="182.0" type="curve" smooth="yes"/>
      <point x="710.0" y="238.0"/>
      <point x="688.0" y="290.0"/>
      <point x="688.0" y="360.0" type="curve" smooth="yes"/>
      <point x="688.0" y="478.48739495798316"/>
      <point x="753.9833696935581" y="626.4458675958527"/>
      <point x="970.0" y="830.0" type="curve" smooth="yes"/>
      <point x="1178.0" y="1026.0" type="line" smooth="yes"/>
      <point x="1278.0" y="1120.0"/>
      <point x="1310.0" y="1168.0"/>
      <point x="1310.0" y="1220.0" type="curve" smooth="yes"/>
      <point x="1310.0" y="1262.0"/>
      <point x="1280.0" y="1290.0"/>
      <point x="1220.0" y="1290.0" type="curve" smooth="yes"/>
      <point x="490.0" y="1290.0" type="line" smooth="yes"/>
      <point x="432.0" y="1290.0"/>
      <point x="388.0" y="1252.0"/>
      <point x="368.0" y="1196.0" type="curve" smooth="yes"/>
      <point x="292.0" y="992.0" type="line" smooth="yes"/>
      <point x="284.0" y="968.0"/>
      <point x="274.0" y="950.0"/>
      <point x="274.0" y="930.0" type="curve" smooth="yes"/>
      <point x="274.0" y="888.0"/>
      <point x="300.0" y="866.0"/>
      <point x="338.0" y="866.0" type="curve" smooth="yes"/>
      <point x="376.0" y="866.0"/>
      <point x="408.0" y="886.0"/>
      <point x="470.0" y="962.0" type="curve" smooth="yes"/>
      <point x="524.0" y="1032.0"/>
      <point x="566.0" y="1050.0"/>
      <point x="622.0" y="1050.0" type="curve" smooth="yes"/>
      <point x="1146.0" y="1050.0" type="line"/>
      <point x="1134.0" y="1224.0" type="line"/>
      <point x="1124.0" y="1186.0"/>
      <point x="1106.0" y="1144.0"/>
    </contour>
  </outline>
</glyph>
<glyph name="eight" format="2">
  <advance width="1140"/>
  <unicode hex="0038"/>
  <outline>
    <contour>
      <point x="544.0" y="-30.0" type="curve" smooth="yes"/>
      <point x="884.0" y="-30.0"/>
      <point x="1148.0" y="164.0"/>
      <point x="1148.0" y="366.0" type="curve" smooth="yes"/>
      <point x="1148.0" y="516.0"/>
      <point x="1068.0" y="622.0"/>
      <point x="866.0" y="708.0" type="curve" smooth="yes"/>
      <point x="702.0" y="778.0"/>
      <point x="644.0" y="846.0"/>
      <point x="644.0" y="932.0" type="curve" smooth="yes"/>
      <point x="644.0" y="1052.0"/>
      <point x="739.0467289719627" y="1160.0"/>
      <point x="870.0" y="1160.0" type="curve" smooth="yes"/>
      <point x="978.0" y="1160.0"/>
      <point x="1044.0" y="1092.0"/>
      <point x="1044.0" y="978.0" type="curve" smooth="yes"/>
      <point x="1044.0" y="848.0"/>
      <point x="930.0" y="734.0"/>
      <point x="782.0" y="688.0" type="curve"/>
      <point x="830.0" y="624.0" type="line"/>
      <point x="1148.0" y="660.0"/>
      <point x="1338.0" y="820.0"/>
      <point x="1338.0" y="1014.0" type="curve" smooth="yes"/>
      <point x="1338.0" y="1186.0"/>
      <point x="1204.0" y="1320.0"/>
      <point x="948.0" y="1320.0" type="curve" smooth="yes"/>
      <point x="600.0" y="1320.0"/>
      <point x="318.0" y="1064.0"/>
      <point x="318.0" y="864.0" type="curve" smooth="yes"/>
      <point x="318.0" y="696.0"/>
      <point x="400.0" y="592.0"/>
      <point x="598.0" y="504.0" type="curve" smooth="yes"/>
      <point x="764.0" y="430.0"/>
      <point x="822.0" y="380.0"/>
      <point x="822.0" y="296.0" type="curve" smooth="yes"/>
      <point x="822.0" y="200.0"/>
      <point x="744.1224489795918" y="118.0"/>
      <point x="610.0" y="118.0" type="curve" smooth="yes"/>
      <point x="482.0" y="118.0"/>
      <point x="416.0" y="184.0"/>
      <point x="416.0" y="290.0" type="curve" smooth="yes"/>
      <point x="416.0" y="418.0"/>
      <point x="492.0" y="510.0"/>
      <point x="634.0" y="574.0" type="curve"/>
      <point x="570.0" y="604.0" type="line"/>
      <point x="302.0" y="600.0"/>
      <point x="140.0" y="430.0"/>
      <point x="140.0" y="244.0" type="curve" smooth="yes"/>
      <point x="140.0" y="78.0"/>
      <point x="270.0" y="-30.0"/>
    </contour>
  </outline>
</glyph>
<glyph name="nine" format="2">
  <advance width="1232"/>
  <unicode hex="0039"/>
  <outline>
    <contour>
      <point x="596.0" y="-28.0" type="curve" smooth="yes"/>
      <point x="1048.0" y="-28.0"/>
      <point x="1364.0" y="386.0"/>
      <point x="1364.0" y="892.0" type="curve" smooth="yes"/>
      <point x="1364.0" y="1170.0"/>
      <point x="1220.0" y="1322.0"/>
      <point x="932.0" y="1322.0" type="curve" smooth="yes"/>
      <point x="560.0" y="1322.0"/>
      <point x="314.0" y="1056.0"/>
      <point x="314.0" y="774.0" type="curve" smooth="yes"/>
      <point x="314.0" y="584.0"/>
      <point x="446.0" y="464.0"/>
      <point x="658.0" y="464.0" type="curve" smooth="yes"/>
      <point x="908.0" y="464.0"/>
      <point x="1112.0" y="628.0"/>
      <point x="1168.0" y="840.0" type="curve"/>
      <point x="1072.0" y="868.0" type="line"/>
      <point x="1038.0" y="734.0"/>
      <point x="914.0" y="638.0"/>
      <point x="794.0" y="638.0" type="curve" smooth="yes"/>
      <point x="694.0" y="638.0"/>
      <point x="628.0" y="704.0"/>
      <point x="628.0" y="838.0" type="curve" smooth="yes"/>
      <point x="628.0" y="1042.0"/>
      <point x="736.0" y="1172.0"/>
      <point x="876.0" y="1172.0" type="curve" smooth="yes"/>
      <point x="980.0" y="1172.0"/>
      <point x="1056.0" y="1108.0"/>
      <point x="1056.0" y="964.0" type="curve" smooth="yes"/>
      <point x="1056.0" y="434.0"/>
      <point x="828.0" y="120.0"/>
      <point x="636.0" y="120.0" type="curve" smooth="yes"/>
      <point x="558.0" y="120.0"/>
      <point x="516.0" y="168.0"/>
      <point x="516.0" y="232.0" type="curve" smooth="yes"/>
      <point x="516.0" y="260.0"/>
      <point x="516.0" y="268.0"/>
      <point x="516.0" y="296.0" type="curve" smooth="yes"/>
      <point x="516.0" y="390.0"/>
      <point x="448.0" y="448.0"/>
      <point x="350.0" y="448.0" type="curve" smooth="yes"/>
      <point x="248.0" y="448.0"/>
      <point x="168.0" y="358.0"/>
      <point x="168.0" y="250.0" type="curve" smooth="yes"/>
      <point x="168.0" y="92.0"/>
      <point x="298.0" y="-28.0"/>
    </contour>
  </outline>
</glyph>
<glyph name="colon" format="2">
  <advance width="544"/>
  <unicode hex="003A"/>
  <outline>
    <contour>
      <point x="270.0" y="-30.0" type="curve" smooth="yes"/>
      <point x="409.2086330935252" y="-30.0"/>
      <point x="528.0" y="84.60606060606062"/>
      <point x="528.0" y="214.0" type="curve" smooth="yes"/>
      <point x="528.0" y="297.8032786885246"/>
      <point x="461.7142857142857" y="356.0"/>
      <point x="368.0" y="356.0" type="curve" smooth="yes"/>
      <point x="219.42857142857144" y="356.0"/>
      <point x="108.0" y="232.2290076335878"/>
      <point x="108.0" y="114.0" type="curve" smooth="yes"/>
      <point x="108.0" y="30.387096774193537"/>
      <point x="176.45070422535213" y="-30.0"/>
    </contour>
    <contour>
      <point x="396.0" y="546.0" type="curve" smooth="yes"/>
      <point x="535.2086330935251" y="546.0"/>
      <point x="654.0" y="660.6060606060606"/>
      <point x="654.0" y="790.0" type="curve" smooth="yes"/>
      <point x="654.0" y="873.8032786885246"/>
      <point x="587.7142857142858" y="932.0"/>
      <point x="494.0" y="932.0" type="curve" smooth="yes"/>
      <point x="345.42857142857144" y="932.0"/>
      <point x="234.0" y="808.2290076335878"/>
      <point x="234.0" y="690.0" type="curve" smooth="yes"/>
      <point x="234.0" y="606.3870967741935"/>
      <point x="302.4507042253521" y="546.0"/>
    </contour>
  </outline>
</glyph>
<glyph name="semicolon" format="2">
  <advance width="634"/>
  <unicode hex="003B"/>
  <outline>
    <contour>
      <point x="456.0" y="546.0" type="curve" smooth="yes"/>
      <point x="595.2086330935251" y="546.0"/>
      <point x="714.0" y="660.6060606060606"/>
      <point x="714.0" y="790.0" type="curve" smooth="yes"/>
      <point x="714.0" y="873.8032786885246"/>
      <point x="647.7142857142858" y="932.0"/>
      <point x="554.0" y="932.0" type="curve" smooth="yes"/>
      <point x="405.42857142857144" y="932.0"/>
      <point x="294.0" y="808.2290076335878"/>
      <point x="294.0" y="690.0" type="curve" smooth="yes"/>
      <point x="294.0" y="606.3870967741935"/>
      <point x="362.4507042253521" y="546.0"/>
    </contour>
    <contour>
      <point x="258.0" y="0.0" type="curve" smooth="yes"/>
      <point x="304.0" y="-20.0"/>
      <point x="320.0" y="-36.0"/>
      <point x="320.0" y="-76.0" type="curve" smooth="yes"/>
      <point x="320.0" y="-136.0"/>
      <point x="256.9649860678319" y="-209.5627406880137"/>
      <point x="128.0" y="-268.0" type="curve" smooth="yes"/>
      <point x="70.79627223118344" y="-293.64305037912465"/>
      <point x="52.0" y="-324.72340425531917"/>
      <point x="52.0" y="-354.0" type="curve" smooth="yes"/>
      <point x="52.0" y="-390.0"/>
      <point x="78.0" y="-418.0"/>
      <point x="110.0" y="-418.0" type="curve" smooth="yes"/>
      <point x="142.0" y="-418.0"/>
      <point x="178.0" y="-408.0"/>
      <point x="220.0" y="-390.0" type="curve" smooth="yes"/>
      <point x="416.0" y="-302.0"/>
      <point x="558.0" y="-128.0"/>
      <point x="558.0" y="142.0" type="curve" smooth="yes"/>
      <point x="558.0" y="272.0"/>
      <point x="490.0" y="352.0"/>
      <point x="390.0" y="352.0" type="curve" smooth="yes"/>
      <point x="258.0" y="352.0"/>
      <point x="162.0" y="250.0"/>
      <point x="162.0" y="140.0" type="curve" smooth="yes"/>
      <point x="162.0" y="66.0"/>
      <point x="198.0" y="26.0"/>
    </contour>
  </outline>
</glyph>
<glyph name="equal" format="2">
  <advance width="998"/>
  <unicode hex="003D"/>
  <outline>
    <contour>
      <point x="274.0" y="796.0" type="curve" smooth="yes"/>
      <point x="258.0" y="738.0"/>
      <point x="298.0" y="692.0"/>
      <point x="358.0" y="692.0" type="curve" smooth="yes"/>
      <point x="472.0" y="692.0"/>
      <point x="610.0" y="710.0"/>
      <point x="694.0" y="710.0" type="curve" smooth="yes"/>
      <point x="780.0" y="710.0"/>
      <point x="904.0" y="692.0"/>
      <point x="1010.0" y="692.0" type="curve" smooth="yes"/>
      <point x="1078.0" y="692.0"/>
      <point x="1134.0" y="738.0"/>
      <point x="1150.0" y="796.0" type="curve" smooth="yes"/>
      <point x="1166.0" y="856.0"/>
      <point x="1132.0" y="904.0"/>
      <point x="1066.0" y="904.0" type="curve" smooth="yes"/>
      <point x="960.0" y="904.0"/>
      <point x="828.0" y="886.0"/>
      <point x="742.0" y="886.0" type="curve" smooth="yes"/>
      <point x="644.0" y="886.0"/>
      <point x="528.0" y="904.0"/>
      <point x="416.0" y="904.0" type="curve" smooth="yes"/>
      <point x="362.0" y="904.0"/>
      <point x="290.0" y="856.0"/>
    </contour>
    <contour>
      <point x="182.0" y="436.0" type="curve" smooth="yes"/>
      <point x="166.0" y="378.0"/>
      <point x="206.0" y="332.0"/>
      <point x="266.0" y="332.0" type="curve" smooth="yes"/>
      <point x="380.0" y="332.0"/>
      <point x="518.0" y="350.0"/>
      <point x="602.0" y="350.0" type="curve" smooth="yes"/>
      <point x="688.0" y="350.0"/>
      <point x="812.0" y="332.0"/>
      <point x="918.0" y="332.0" type="curve" smooth="yes"/>
      <point x="986.0" y="332.0"/>
      <point x="1042.0" y="378.0"/>
      <point x="1058.0" y="436.0" type="curve" smooth="yes"/>
      <point x="1074.0" y="496.0"/>
      <point x="1040.0" y="544.0"/>
      <point x="974.0" y="544.0" type="curve" smooth="yes"/>
      <point x="868.0" y="544.0"/>
      <point x="736.0" y="526.0"/>
      <point x="650.0" y="526.0" type="curve" smooth="yes"/>
      <point x="552.0" y="526.0"/>
      <point x="436.0" y="544.0"/>
      <point x="324.0" y="544.0" type="curve" smooth="yes"/>
      <point x="270.0" y="544.0"/>
      <point x="198.0" y="496.0"/>
    </contour>
  </outline>
</glyph>
<glyph name="greater" format="2">
  <advance width="1056"/>
  <unicode hex="003E"/>
  <outline>
    <contour>
      <point x="366.0" y="986.0" type="curve" smooth="yes"/>
      <point x="348.0" y="924.0"/>
      <point x="374.0" y="864.0"/>
      <point x="468.0" y="812.0" type="curve" smooth="yes"/>
      <point x="600.0" y="734.0"/>
      <point x="812.0" y="662.0"/>
      <point x="1040.0" y="590.0" type="curve"/>
      <point x="1048.0" y="622.0" type="line"/>
      <point x="784.0" y="552.0"/>
      <point x="532.0" y="482.0"/>
      <point x="352.0" y="398.0" type="curve" smooth="yes"/>
      <point x="236.0" y="344.0"/>
      <point x="178.0" y="288.0"/>
      <point x="162.0" y="230.0" type="curve" smooth="yes"/>
      <point x="148.0" y="172.0"/>
      <point x="162.0" y="130.0"/>
      <point x="204.0" y="130.0" type="curve" smooth="yes"/>
      <point x="244.0" y="130.0"/>
      <point x="298.0" y="148.0"/>
      <point x="358.0" y="188.0" type="curve" smooth="yes"/>
      <point x="472.0" y="264.0"/>
      <point x="782.0" y="402.0"/>
      <point x="1028.0" y="486.0" type="curve" smooth="yes"/>
      <point x="1118.0" y="518.0"/>
      <point x="1158.0" y="560.0"/>
      <point x="1170.0" y="606.0" type="curve" smooth="yes"/>
      <point x="1182.0" y="650.0"/>
      <point x="1164.0" y="694.0"/>
      <point x="1092.0" y="726.0" type="curve" smooth="yes"/>
      <point x="890.0" y="808.0"/>
      <point x="650.0" y="946.0"/>
      <point x="582.0" y="1024.0" type="curve" smooth="yes"/>
      <point x="544.0" y="1068.0"/>
      <point x="498.0" y="1082.0"/>
      <point x="466.0" y="1082.0" type="curve" smooth="yes"/>
      <point x="420.0" y="1082.0"/>
      <point x="380.0" y="1042.0"/>
    </contour>
  </outline>
</glyph>
<glyph name="at" format="2">
  <advance width="1594"/>
  <unicode hex="0040"/>
  <outline>
    <contour>
      <point x="744.0" y="450.0" type="curve" smooth="yes"/>
      <point x="734.0" y="644.0"/>
      <point x="876.0" y="798.0"/>
      <point x="990.0" y="798.0" type="curve" smooth="yes"/>
      <point x="1034.0" y="798.0"/>
      <point x="1058.0" y="776.0"/>
      <point x="1060.0" y="720.0" type="curve" smooth="yes"/>
      <point x="1066.264450487551" y="603.0635908990489"/>
      <point x="930.0" y="342.0"/>
      <point x="822.0" y="342.0" type="curve" smooth="yes"/>
      <point x="782.0" y="342.0"/>
      <point x="748.6935552943874" y="367.8627823482214"/>
    </contour>
    <contour>
      <point x="1326.0" y="314.0" type="curve" smooth="yes"/>
      <point x="1286.0" y="314.0"/>
      <point x="1266.0" y="340.0"/>
      <point x="1266.0" y="370.0" type="curve" smooth="yes"/>
      <point x="1266.0" y="416.3945578231293"/>
      <point x="1282.0" y="558.0"/>
      <point x="1296.0" y="640.0" type="curve" smooth="yes"/>
      <point x="1312.0" y="738.0"/>
      <point x="1374.0" y="780.0"/>
      <point x="1374.0" y="848.0" type="curve" smooth="yes"/>
      <point x="1374.0" y="928.0"/>
      <point x="1295.6831683168316" y="982.0"/>
      <point x="1148.0" y="982.0" type="curve" smooth="yes"/>
      <point x="804.0" y="982.0"/>
      <point x="481.6176766444621" y="631.7898383690848"/>
      <point x="498.0" y="298.0" type="curve" smooth="yes"/>
      <point x="504.0" y="186.0"/>
      <point x="580.0" y="140.0"/>
      <point x="688.0" y="140.0" type="curve" smooth="yes"/>
      <point x="834.0" y="140.0"/>
      <point x="1012.0" y="246.0"/>
      <point x="1122.0" y="594.0" type="curve"/>
      <point x="1060.0" y="614.0" type="line"/>
      <point x="1068.3772578673015" y="479.9638741231738"/>
      <point x="1015.8109854152302" y="358.4418427420893"/>
      <point x="1020.0" y="260.0" type="curve" smooth="yes"/>
      <point x="1026.0" y="188.0"/>
      <point x="1058.0" y="140.0"/>
      <point x="1182.0" y="140.0" type="curve" smooth="yes"/>
      <point x="1412.0" y="140.0"/>
      <point x="1720.0" y="447.05882352941177"/>
      <point x="1720.0" y="836.0" type="curve" smooth="yes"/>
      <point x="1720.0" y="1136.0"/>
      <point x="1558.0" y="1320.0"/>
      <point x="1184.0" y="1320.0" type="curve" smooth="yes"/>
      <point x="636.0" y="1320.0"/>
      <point x="178.0" y="760.0"/>
      <point x="178.0" y="260.0" type="curve" smooth="yes"/>
      <point x="178.0" y="-86.0"/>
      <point x="350.0" y="-266.0"/>
      <point x="702.0" y="-266.0" type="curve" smooth="yes"/>
      <point x="991.3449275362319" y="-266.0"/>
      <point x="1227.8395014910245" y="-175.6708685984369"/>
      <point x="1436.0" y="20.0" type="curve" smooth="yes"/>
      <point x="1526.0" y="104.0"/>
      <point x="1450.0" y="178.0"/>
      <point x="1370.0" y="98.0" type="curve" smooth="yes"/>
      <point x="1202.739661393381" y="-69.26033860661892"/>
      <point x="970.628762541806" y="-150.0"/>
      <point x="728.0" y="-150.0" type="curve" smooth="yes"/>
      <point x="462.0" y="-150.0"/>
      <point x="302.0" y="-12.0"/>
      <point x="302.0" y="300.0" type="curve" smooth="yes"/>
      <point x="302.0" y="688.0"/>
      <point x="708.0" y="1208.0"/>
      <point x="1144.0" y="1208.0" type="curve" smooth="yes"/>
      <point x="1438.0" y="1208.0"/>
      <point x="1596.0" y="1054.0"/>
      <point x="1596.0" y="812.0" type="curve" smooth="yes"/>
      <point x="1596.0" y="520.6390041493776"/>
      <point x="1424.0" y="314.0"/>
    </contour>
  </outline>
</glyph>
<glyph name="C" format="2">
  <advance width="1298"/>
  <unicode hex="0043"/>
  <outline>
    <contour>
      <point x="1358.0" y="370.0" type="curve" smooth="yes"/>
      <point x="1358.0" y="418.64864864864865"/>
      <point x="1336.0" y="442.0"/>
      <point x="1300.0" y="442.0" type="curve" smooth="yes"/>
      <point x="1256.0" y="442.0"/>
      <point x="1221.336812485725" y="415.5383781043013"/>
      <point x="1172.0" y="344.0" type="curve" smooth="yes"/>
      <point x="1097.3754563603786" y="234.933359295938"/>
      <point x="1006.2857142857142" y="192.0"/>
      <point x="882.0" y="192.0" type="curve" smooth="yes"/>
      <point x="719.7142857142858" y="192.0"/>
      <point x="598.0" y="341.4505494505495"/>
      <point x="598.0" y="592.0" type="curve" smooth="yes"/>
      <point x="598.0" y="945.5537190082644"/>
      <point x="818.0" y="1282.0"/>
      <point x="1062.0" y="1282.0" type="curve" smooth="yes"/>
      <point x="1193.0569105691056" y="1282.0"/>
      <point x="1256.9014100815289" y="1236.704221337775"/>
      <point x="1310.0" y="1106.0" type="curve" smooth="yes"/>
      <point x="1336.0" y="1042.0" type="line" smooth="yes"/>
      <point x="1361.8227111703563" y="978.4364032729693"/>
      <point x="1396.8524590163934" y="942.0"/>
      <point x="1452.0" y="942.0" type="curve" smooth="yes"/>
      <point x="1495.5294117647059" y="942.0"/>
      <point x="1530.4152053626578" y="976.0033289792118"/>
      <point x="1526.0" y="1058.0" type="curve" smooth="yes"/>
      <point x="1512.0" y="1318.0" type="line" smooth="yes"/>
      <point x="1508.0" y="1388.0"/>
      <point x="1486.0" y="1430.0"/>
      <point x="1446.0" y="1430.0" type="curve" smooth="yes"/>
      <point x="1404.0" y="1430.0"/>
      <point x="1370.0" y="1380.0"/>
      <point x="1322.0" y="1380.0" type="curve" smooth="yes"/>
      <point x="1276.0" y="1380.0"/>
      <point x="1196.0" y="1430.0"/>
      <point x="1076.0" y="1430.0" type="curve" smooth="yes"/>
      <point x="584.0" y="1430.0"/>
      <point x="222.0" y="979.2622950819672"/>
      <point x="222.0" y="490.0" type="curve" smooth="yes"/>
      <point x="222.0" y="178.42975206611573"/>
      <point x="426.0" y="-30.0"/>
      <point x="742.0" y="-30.0" type="curve" smooth="yes"/>
      <point x="1028.0" y="-30.0"/>
      <point x="1250.0" y="100.0"/>
      <point x="1326.0" y="266.0" type="curve" smooth="yes"/>
      <point x="1348.0" y="314.0"/>
      <point x="1358.0" y="338.0"/>
    </contour>
  </outline>
</glyph>
<glyph name="F" format="2">
  <advance width="1160"/>
  <unicode hex="0046"/>
  <outline>
    <contour>
      <point x="400.0" y="1328.0" type="curve" smooth="yes"/>
      <point x="400.0" y="1286.974358974359"/>
      <point x="417.38094013355993" y="1267.1224542284742"/>
      <point x="462.0" y="1248.0" type="curve" smooth="yes"/>
      <point x="490.0" y="1236.0" type="line" smooth="yes"/>
      <point x="535.7301527034275" y="1216.4013631271025"/>
      <point x="550.0" y="1198.0"/>
      <point x="540.0" y="1146.0" type="curve" smooth="yes"/>
      <point x="478.0" y="842.0"/>
      <point x="396.0" y="548.0"/>
      <point x="312.0" y="266.0" type="curve" smooth="yes"/>
      <point x="294.06332569718256" y="206.21108565727522"/>
      <point x="271.9676785798332" y="173.42087585234123"/>
      <point x="224.0" y="162.0" type="curve" smooth="yes"/>
      <point x="182.0" y="152.0" type="line" smooth="yes"/>
      <point x="124.7921881521513" y="138.37909241717887"/>
      <point x="92.0" y="115.1"/>
      <point x="92.0" y="70.0" type="curve" smooth="yes"/>
      <point x="92.0" y="27.22222222222222"/>
      <point x="114.0" y="0.0"/>
      <point x="158.0" y="0.0" type="curve" smooth="yes"/>
      <point x="734.0" y="0.0" type="line" smooth="yes"/>
      <point x="812.0" y="0.0"/>
      <point x="832.0" y="34.0"/>
      <point x="832.0" y="76.0" type="curve" smooth="yes"/>
      <point x="832.0" y="116.0"/>
      <point x="810.0" y="136.0"/>
      <point x="726.0" y="156.0" type="curve" smooth="yes"/>
      <point x="684.0" y="166.0"/>
      <point x="642.0" y="198.0"/>
      <point x="658.0" y="278.0" type="curve" smooth="yes"/>
      <point x="717.2052745888966" y="557.6938834027187"/>
      <point x="791.569026422297" y="890.2460325538784"/>
      <point x="910.0" y="1268.0" type="curve"/>
      <point x="1050.0" y="1268.0" type="line" smooth="yes"/>
      <point x="1143.2307692307693" y="1268.0"/>
      <point x="1226.0" y="1242.0"/>
      <point x="1252.0" y="1164.0" type="curve" smooth="yes"/>
      <point x="1272.0" y="1104.0" type="line" smooth="yes"/>
      <point x="1296.652919154959" y="1030.0412425351233"/>
      <point x="1326.1875" y="1010.0"/>
      <point x="1374.0" y="1010.0" type="curve" smooth="yes"/>
      <point x="1411.304347826087" y="1010.0"/>
      <point x="1456.0" y="1046.0"/>
      <point x="1452.0" y="1114.0" type="curve" smooth="yes"/>
      <point x="1438.0" y="1374.0" type="line" smooth="yes"/>
      <point x="1434.4394525449222" y="1440.124452737158"/>
      <point x="1429.7272727272727" y="1466.0"/>
      <point x="1386.0" y="1466.0" type="curve" smooth="yes"/>
      <point x="1357.6129032258066" y="1466.0"/>
      <point x="1329.9780267371195" y="1452.334845548216"/>
      <point x="1298.0" y="1426.0" type="curve" smooth="yes"/>
      <point x="1274.4342747308438" y="1406.7189520525085"/>
      <point x="1231.090909090909" y="1400.0"/>
      <point x="1202.0" y="1400.0" type="curve" smooth="yes"/>
      <point x="480.0" y="1400.0" type="line" smooth="yes"/>
      <point x="435.55555555555554" y="1400.0"/>
      <point x="400.0" y="1376.0"/>
    </contour>
    <contour>
      <point x="624.0" y="750.0" type="line"/>
      <point x="588.0" y="612.0" type="line"/>
      <point x="932.0" y="612.0" type="line" smooth="yes"/>
      <point x="1010.1159420289855" y="612.0"/>
      <point x="1062.0" y="590.0"/>
      <point x="1086.0" y="544.0" type="curve" smooth="yes"/>
      <point x="1120.3236869344391" y="479.3907069469379"/>
      <point x="1142.2978723404256" y="468.0"/>
      <point x="1184.0" y="468.0" type="curve" smooth="yes"/>
      <point x="1215.7333333333333" y="468.0"/>
      <point x="1251.889823552677" y="499.9086992249096"/>
      <point x="1240.0" y="562.0" type="curve" smooth="yes"/>
      <point x="1186.0" y="844.0" type="line" smooth="yes"/>
      <point x="1180.0" y="880.0"/>
      <point x="1162.0" y="912.0"/>
      <point x="1122.0" y="912.0" type="curve" smooth="yes"/>
      <point x="1090.0" y="912.0"/>
      <point x="1065.7743374922668" y="885.9943704418909"/>
      <point x="1034.0" y="834.0" type="curve" smooth="yes"/>
      <point x="996.7897209568533" y="767.8483928121836"/>
      <point x="929.7333333333333" y="750.0"/>
      <point x="864.0" y="750.0" type="curve" smooth="yes"/>
    </contour>
  </outline>
</glyph>
<glyph name="H" format="2">
  <advance width="1602"/>
  <unicode hex="0048"/>
  <outline>
    <contour>
      <point x="556.0" y="734.0" type="line"/>
      <point x="530.0" y="576.0" type="line"/>
      <point x="1298.0" y="576.0" type="line"/>
      <point x="1324.0" y="734.0" type="line"/>
    </contour>
    <contour>
      <point x="642.0" y="220.0" type="curve" smooth="yes"/>
      <point x="642.0" y="310.0"/>
      <point x="772.0" y="846.0"/>
      <point x="886.0" y="1154.0" type="curve" smooth="yes"/>
      <point x="906.0" y="1208.0"/>
      <point x="928.0" y="1234.0"/>
      <point x="970.0" y="1244.0" type="curve" smooth="yes"/>
      <point x="1006.0" y="1252.0" type="line" smooth="yes"/>
      <point x="1059.6553338722365" y="1263.9234075271636"/>
      <point x="1090.0" y="1296.4166666666667"/>
      <point x="1090.0" y="1334.0" type="curve" smooth="yes"/>
      <point x="1090.0" y="1374.6153846153845"/>
      <point x="1063.35" y="1400.0"/>
      <point x="1008.0" y="1400.0" type="curve" smooth="yes"/>
      <point x="482.0" y="1400.0" type="line" smooth="yes"/>
      <point x="429.33962561096627" y="1400.0"/>
      <point x="398.0" y="1366.5714285714287"/>
      <point x="398.0" y="1322.0" type="curve" smooth="yes"/>
      <point x="398.0" y="1287.0"/>
      <point x="423.9367330748936" y="1260.4854745706132"/>
      <point x="460.0" y="1252.0" type="curve" smooth="yes"/>
      <point x="494.0" y="1244.0" type="line" smooth="yes"/>
      <point x="526.0" y="1236.0"/>
      <point x="540.0" y="1218.0"/>
      <point x="540.0" y="1182.0" type="curve" smooth="yes"/>
      <point x="540.0" y="1090.0"/>
      <point x="420.3529411764706" y="565.6470588235295"/>
      <point x="298.0" y="248.0" type="curve" smooth="yes"/>
      <point x="280.0" y="198.0"/>
      <point x="258.0" y="170.0"/>
      <point x="212.0" y="160.0" type="curve" smooth="yes"/>
      <point x="172.0" y="150.0" type="line" smooth="yes"/>
      <point x="127.5544866395878" y="138.88862165989696"/>
      <point x="94.0" y="109.14893617021276"/>
      <point x="94.0" y="70.0" type="curve" smooth="yes"/>
      <point x="94.0" y="27.5"/>
      <point x="121.57575757575758" y="0.0"/>
      <point x="164.0" y="0.0" type="curve" smooth="yes"/>
      <point x="688.0" y="0.0" type="line" smooth="yes"/>
      <point x="752.0" y="0.0"/>
      <point x="786.0" y="34.325581395348834"/>
      <point x="786.0" y="82.0" type="curve" smooth="yes"/>
      <point x="786.0" y="118.06060606060606"/>
      <point x="760.0207487897546" y="143.05394146123422"/>
      <point x="722.0" y="152.0" type="curve" smooth="yes"/>
      <point x="688.0" y="160.0" type="line" smooth="yes"/>
      <point x="658.0" y="166.0"/>
      <point x="642.0" y="186.0"/>
    </contour>
    <contour>
      <point x="1440.0" y="220.0" type="curve" smooth="yes"/>
      <point x="1440.0" y="310.0"/>
      <point x="1570.0" y="846.0"/>
      <point x="1684.0" y="1154.0" type="curve" smooth="yes"/>
      <point x="1704.0" y="1208.0"/>
      <point x="1726.0" y="1234.0"/>
      <point x="1768.0" y="1244.0" type="curve" smooth="yes"/>
      <point x="1804.0" y="1252.0" type="line" smooth="yes"/>
      <point x="1857.6553338722365" y="1263.9234075271636"/>
      <point x="1888.0" y="1296.4166666666667"/>
      <point x="1888.0" y="1334.0" type="curve" smooth="yes"/>
      <point x="1888.0" y="1374.6153846153845"/>
      <point x="1861.35" y="1400.0"/>
      <point x="1806.0" y="1400.0" type="curve" smooth="yes"/>
      <point x="1280.0" y="1400.0" type="line" smooth="yes"/>
      <point x="1227.3396256109663" y="1400.0"/>
      <point x="1196.0" y="1366.5714285714287"/>
      <point x="1196.0" y="1322.0" type="curve" smooth="yes"/>
      <point x="1196.0" y="1287.0"/>
      <point x="1221.9367330748937" y="1260.4854745706132"/>
      <point x="1258.0" y="1252.0" type="curve" smooth="yes"/>
      <point x="1292.0" y="1244.0" type="line" smooth="yes"/>
      <point x="1324.0" y="1236.0"/>
      <point x="1338.0" y="1218.0"/>
      <point x="1338.0" y="1182.0" type="curve" smooth="yes"/>
      <point x="1338.0" y="1090.0"/>
      <point x="1218.3529411764707" y="565.6470588235295"/>
      <point x="1096.0" y="248.0" type="curve" smooth="yes"/>
      <point x="1078.0" y="198.0"/>
      <point x="1056.0" y="170.0"/>
      <point x="1010.0" y="160.0" type="curve" smooth="yes"/>
      <point x="970.0" y="150.0" type="line" smooth="yes"/>
      <point x="925.5544866395878" y="138.88862165989696"/>
      <point x="892.0" y="109.14893617021276"/>
      <point x="892.0" y="70.0" type="curve" smooth="yes"/>
      <point x="892.0" y="27.5"/>
      <point x="919.5757575757576" y="0.0"/>
      <point x="962.0" y="0.0" type="curve" smooth="yes"/>
      <point x="1486.0" y="0.0" type="line" smooth="yes"/>
      <point x="1550.0" y="0.0"/>
      <point x="1584.0" y="34.325581395348834"/>
      <point x="1584.0" y="82.0" type="curve" smooth="yes"/>
      <point x="1584.0" y="118.06060606060606"/>
      <point x="1558.0207487897546" y="143.05394146123422"/>
      <point x="1520.0" y="152.0" type="curve" smooth="yes"/>
      <point x="1486.0" y="160.0" type="line" smooth="yes"/>
      <point x="1456.0" y="166.0"/>
      <point x="1440.0" y="186.0"/>
    </contour>
  </outline>
</glyph>
<glyph name="J" format="2">
  <advance width="770"/>
  <unicode hex="004A"/>
  <outline>
    <contour>
      <point x="858.0" y="1100.0" type="curve" smooth="yes"/>
      <point x="890.0" y="1200.0"/>
      <point x="920.0" y="1216.0"/>
      <point x="964.0" y="1230.0" type="curve" smooth="yes"/>
      <point x="1000.0" y="1242.0" type="line" smooth="yes"/>
      <point x="1056.0" y="1260.0"/>
      <point x="1104.0" y="1296.0"/>
      <point x="1104.0" y="1336.0" type="curve" smooth="yes"/>
      <point x="1104.0" y="1380.0"/>
      <point x="1088.0" y="1400.0"/>
      <point x="1026.0" y="1400.0" type="curve" smooth="yes"/>
      <point x="476.0" y="1400.0" type="line" smooth="yes"/>
      <point x="420.0" y="1400.0"/>
      <point x="386.0" y="1376.0"/>
      <point x="386.0" y="1332.0" type="curve" smooth="yes"/>
      <point x="386.0" y="1288.0"/>
      <point x="414.0" y="1268.0"/>
      <point x="448.0" y="1256.0" type="curve" smooth="yes"/>
      <point x="476.0" y="1246.0" type="line" smooth="yes"/>
      <point x="516.0" y="1232.0"/>
      <point x="548.0" y="1186.0"/>
      <point x="532.0" y="1100.0" type="curve" smooth="yes"/>
      <point x="490.7842419306522" y="872.3320030455072"/>
      <point x="330.0" y="428.0"/>
      <point x="330.0" y="258.0" type="curve" smooth="yes"/>
      <point x="330.0" y="142.0"/>
      <point x="402.0" y="84.0"/>
      <point x="402.0" y="0.0" type="curve" smooth="yes"/>
      <point x="402.0" y="-74.0"/>
      <point x="362.0" y="-110.0"/>
      <point x="308.0" y="-110.0" type="curve" smooth="yes"/>
      <point x="228.0" y="-110.0"/>
      <point x="158.0" y="-26.0"/>
      <point x="70.0" y="-26.0" type="curve" smooth="yes"/>
      <point x="-38.0" y="-26.0"/>
      <point x="-100.0" y="-104.0"/>
      <point x="-100.0" y="-196.0" type="curve"/>
      <point x="-100.0" y="-294.0"/>
      <point x="-30.0" y="-368.0"/>
      <point x="98.0" y="-368.0" type="curve" smooth="yes"/>
      <point x="326.0" y="-368.0"/>
      <point x="548.0" y="-180.0"/>
      <point x="612.0" y="158.0" type="curve" smooth="yes"/>
      <point x="642.0" y="318.0"/>
      <point x="773.4305363283237" y="840.3914138450868"/>
    </contour>
  </outline>
</glyph>
<glyph name="K" format="2">
  <advance width="1504"/>
  <unicode hex="004B"/>
  <outline>
    <contour>
      <point x="816.0" y="684.0" type="line"/>
      <point x="986.0" y="250.0" type="line" smooth="yes"/>
      <point x="1072.0" y="30.0"/>
      <point x="1150.0" y="-30.0"/>
      <point x="1290.0" y="-30.0" type="curve" smooth="yes"/>
      <point x="1422.0" y="-30.0"/>
      <point x="1560.0" y="88.0"/>
      <point x="1560.0" y="224.0" type="curve" smooth="yes"/>
      <point x="1560.0" y="264.0"/>
      <point x="1536.0" y="298.0"/>
      <point x="1502.0" y="298.0" type="curve" smooth="yes"/>
      <point x="1456.0" y="298.0"/>
      <point x="1426.0" y="276.0"/>
      <point x="1376.0" y="276.0" type="curve" smooth="yes"/>
      <point x="1328.0" y="276.0"/>
      <point x="1276.0" y="308.0"/>
      <point x="1214.0" y="456.0" type="curve" smooth="yes"/>
      <point x="1046.0" y="858.0" type="line"/>
    </contour>
    <contour>
      <point x="580.0" y="294.0" type="line"/>
      <point x="1200.0" y="938.0" type="line" smooth="yes"/>
      <point x="1306.0" y="1048.0"/>
      <point x="1384.0" y="1096.0"/>
      <point x="1458.0" y="1096.0" type="curve" smooth="yes"/>
      <point x="1520.0" y="1096.0"/>
      <point x="1556.0" y="1054.0"/>
      <point x="1636.0" y="1054.0" type="curve" smooth="yes"/>
      <point x="1726.0" y="1054.0"/>
      <point x="1816.0" y="1132.0"/>
      <point x="1816.0" y="1240.0" type="curve" smooth="yes"/>
      <point x="1816.0" y="1336.0"/>
      <point x="1748.0" y="1430.0"/>
      <point x="1654.0" y="1430.0" type="curve" smooth="yes"/>
      <point x="1536.0" y="1430.0"/>
      <point x="1420.0" y="1374.0"/>
      <point x="1236.0" y="1180.0" type="curve" smooth="yes"/>
      <point x="518.0" y="416.0" type="line"/>
    </contour>
    <contour>
      <point x="642.0" y="220.0" type="curve" smooth="yes"/>
      <point x="642.0" y="310.0"/>
      <point x="772.0" y="846.0"/>
      <point x="886.0" y="1154.0" type="curve" smooth="yes"/>
      <point x="906.0" y="1208.0"/>
      <point x="928.0" y="1234.0"/>
      <point x="970.0" y="1244.0" type="curve" smooth="yes"/>
      <point x="1006.0" y="1252.0" type="line" smooth="yes"/>
      <point x="1059.6553338722365" y="1263.9234075271636"/>
      <point x="1090.0" y="1296.4166666666667"/>
      <point x="1090.0" y="1334.0" type="curve" smooth="yes"/>
      <point x="1090.0" y="1374.6153846153845"/>
      <point x="1063.35" y="1400.0"/>
      <point x="1008.0" y="1400.0" type="curve" smooth="yes"/>
      <point x="482.0" y="1400.0" type="line" smooth="yes"/>
      <point x="429.33962561096627" y="1400.0"/>
      <point x="398.0" y="1366.5714285714287"/>
      <point x="398.0" y="1322.0" type="curve" smooth="yes"/>
      <point x="398.0" y="1287.0"/>
      <point x="423.9367330748936" y="1260.4854745706132"/>
      <point x="460.0" y="1252.0" type="curve" smooth="yes"/>
      <point x="494.0" y="1244.0" type="line" smooth="yes"/>
      <point x="526.0" y="1236.0"/>
      <point x="540.0" y="1218.0"/>
      <point x="540.0" y="1182.0" type="curve" smooth="yes"/>
      <point x="540.0" y="1090.0"/>
      <point x="420.3529411764706" y="565.6470588235295"/>
      <point x="298.0" y="248.0" type="curve" smooth="yes"/>
      <point x="280.0" y="198.0"/>
      <point x="258.0" y="170.0"/>
      <point x="212.0" y="160.0" type="curve" smooth="yes"/>
      <point x="172.0" y="150.0" type="line" smooth="yes"/>
      <point x="127.5544866395878" y="138.88862165989696"/>
      <point x="94.0" y="109.14893617021276"/>
      <point x="94.0" y="70.0" type="curve" smooth="yes"/>
      <point x="94.0" y="27.5"/>
      <point x="121.57575757575758" y="0.0"/>
      <point x="164.0" y="0.0" type="curve" smooth="yes"/>
      <point x="688.0" y="0.0" type="line" smooth="yes"/>
      <point x="752.0" y="0.0"/>
      <point x="786.0" y="34.325581395348834"/>
      <point x="786.0" y="82.0" type="curve" smooth="yes"/>
      <point x="786.0" y="118.06060606060606"/>
      <point x="760.0207487897546" y="143.05394146123422"/>
      <point x="722.0" y="152.0" type="curve" smooth="yes"/>
      <point x="688.0" y="160.0" type="line" smooth="yes"/>
      <point x="658.0" y="166.0"/>
      <point x="642.0" y="186.0"/>
    </contour>
  </outline>
</glyph>
<glyph name="M" format="2">
  <advance width="1876"/>
  <unicode hex="004D"/>
  <outline>
    <contour>
      <point x="1102.0" y="396.0" type="line"/>
      <point x="1034.0" y="700.0"/>
      <point x="964.0" y="1008.0"/>
      <point x="916.0" y="1288.0" type="curve" smooth="yes"/>
      <point x="900.0" y="1380.0"/>
      <point x="848.0" y="1400.0"/>
      <point x="776.0" y="1400.0" type="curve" smooth="yes"/>
      <point x="522.0" y="1400.0" type="line" smooth="yes"/>
      <point x="472.93333333333334" y="1400.0"/>
      <point x="430.0" y="1381.2121212121212"/>
      <point x="430.0" y="1338.0" type="curve" smooth="yes"/>
      <point x="430.0" y="1292.0"/>
      <point x="452.0" y="1266.0"/>
      <point x="492.0" y="1246.0" type="curve" smooth="yes"/>
      <point x="520.0" y="1232.0" type="line" smooth="yes"/>
      <point x="552.0" y="1216.0"/>
      <point x="574.0" y="1196.0"/>
      <point x="562.0" y="1158.0" type="curve" smooth="yes"/>
      <point x="320.0" y="370.0" type="line" smooth="yes"/>
      <point x="282.0" y="246.0"/>
      <point x="240.0" y="204.0"/>
      <point x="188.0" y="182.0" type="curve" smooth="yes"/>
      <point x="150.0" y="166.0" type="line" smooth="yes"/>
      <point x="80.0" y="136.0"/>
      <point x="46.0" y="110.0"/>
      <point x="46.0" y="70.0" type="curve" smooth="yes"/>
      <point x="46.0" y="24.0"/>
      <point x="66.0" y="0.0"/>
      <point x="116.0" y="0.0" type="curve" smooth="yes"/>
      <point x="528.0" y="0.0" type="line" smooth="yes"/>
      <point x="580.0" y="0.0"/>
      <point x="630.0" y="26.0"/>
      <point x="630.0" y="72.0" type="curve" smooth="yes"/>
      <point x="630.0" y="116.0"/>
      <point x="624.0" y="128.0"/>
      <point x="558.0" y="162.0" type="curve" smooth="yes"/>
      <point x="534.0" y="174.0" type="line" smooth="yes"/>
      <point x="478.0" y="202.0"/>
      <point x="456.0" y="256.0"/>
      <point x="490.0" y="366.0" type="curve" smooth="yes"/>
      <point x="704.0" y="1066.0" type="line"/>
      <point x="638.0" y="1046.0" type="line"/>
      <point x="714.0" y="724.0"/>
      <point x="778.0" y="466.0"/>
      <point x="816.0" y="266.0" type="curve" smooth="yes"/>
      <point x="838.0" y="148.0"/>
      <point x="884.0" y="122.0"/>
      <point x="940.0" y="122.0" type="curve" smooth="yes"/>
      <point x="988.0" y="122.0"/>
      <point x="1028.0" y="148.0"/>
      <point x="1102.0" y="262.0" type="curve" smooth="yes"/>
      <point x="1602.0" y="1032.0" type="line"/>
      <point x="1572.0" y="1034.0" type="line"/>
      <point x="1532.0" y="752.0"/>
      <point x="1470.0" y="488.0"/>
      <point x="1418.0" y="242.0" type="curve" smooth="yes"/>
      <point x="1408.0" y="190.0"/>
      <point x="1378.0" y="162.0"/>
      <point x="1340.0" y="154.0" type="curve" smooth="yes"/>
      <point x="1288.0" y="142.0" type="line" smooth="yes"/>
      <point x="1236.0" y="130.0"/>
      <point x="1200.0" y="104.0"/>
      <point x="1200.0" y="66.0" type="curve" smooth="yes"/>
      <point x="1200.0" y="30.0"/>
      <point x="1212.0" y="0.0"/>
      <point x="1272.0" y="0.0" type="curve" smooth="yes"/>
      <point x="1790.0" y="0.0" type="line" smooth="yes"/>
      <point x="1846.0" y="0.0"/>
      <point x="1882.0" y="22.0"/>
      <point x="1882.0" y="66.0" type="curve" smooth="yes"/>
      <point x="1882.0" y="106.0"/>
      <point x="1860.0" y="126.0"/>
      <point x="1818.0" y="142.0" type="curve" smooth="yes"/>
      <point x="1788.0" y="154.0" type="line" smooth="yes"/>
      <point x="1746.0" y="170.0"/>
      <point x="1732.0" y="190.0"/>
      <point x="1740.0" y="242.0" type="curve" smooth="yes"/>
      <point x="1780.0" y="540.0"/>
      <point x="1852.0" y="846.0"/>
      <point x="1918.0" y="1158.0" type="curve" smooth="yes"/>
      <point x="1928.0" y="1210.0"/>
      <point x="1958.0" y="1240.0"/>
      <point x="1996.0" y="1248.0" type="curve" smooth="yes"/>
      <point x="2054.0" y="1260.0" type="line" smooth="yes"/>
      <point x="2094.0" y="1268.0"/>
      <point x="2122.0" y="1300.0"/>
      <point x="2122.0" y="1334.0" type="curve" smooth="yes"/>
      <point x="2122.0" y="1380.0"/>
      <point x="2090.0" y="1400.0"/>
      <point x="2048.0" y="1400.0" type="curve" smooth="yes"/>
      <point x="2048.0" y="1400.0"/>
      <point x="1764.0" y="1400.0"/>
      <point x="1714.0" y="1400.0" type="curve" smooth="yes"/>
      <point x="1662.0" y="1400.0"/>
      <point x="1612.0" y="1374.0"/>
      <point x="1562.0" y="1294.0" type="curve" smooth="yes"/>
      <point x="976.0" y="350.0" type="line"/>
    </contour>
  </outline>
</glyph>
<glyph name="O" format="2">
  <advance width="1566"/>
  <unicode hex="004F"/>
  <anchor x="1140.0" y="1546.0" name="center"/>
  <outline>
    <contour>
      <point x="1158.0" y="1430.0" type="curve" smooth="yes"/>
      <point x="708.0" y="1430.0"/>
      <point x="386.0" y="1130.0"/>
      <point x="284.0" y="714.0" type="curve" smooth="yes"/>
      <point x="170.0" y="250.0"/>
      <point x="394.0" y="-30.0"/>
      <point x="766.0" y="-30.0" type="curve" smooth="yes"/>
      <point x="1166.0" y="-30.0"/>
      <point x="1546.0" y="228.0"/>
      <point x="1662.0" y="710.0" type="curve" smooth="yes"/>
      <point x="1764.0" y="1134.0"/>
      <point x="1508.0" y="1430.0"/>
    </contour>
    <contour>
      <point x="818.0" y="134.0" type="curve" smooth="yes"/>
      <point x="694.0" y="134.0"/>
      <point x="580.3842511789879" y="281.3123747631112"/>
      <point x="686.0" y="708.0" type="curve" smooth="yes"/>
      <point x="773.0388225173467" y="1056.155290069387"/>
      <point x="960.0" y="1272.0"/>
      <point x="1120.0" y="1272.0" type="curve" smooth="yes"/>
      <point x="1266.0" y="1272.0"/>
      <point x="1359.245324544365" y="1078.9997311273669"/>
      <point x="1264.0" y="734.0" type="curve" smooth="yes"/>
      <point x="1141.3264658615233" y="284.85657662202925"/>
      <point x="982.0" y="134.0"/>
    </contour>
  </outline>
</glyph>
<glyph name="P" format="2">
  <advance width="1320"/>
  <unicode hex="0050"/>
  <outline>
    <contour>
      <point x="1268.0" y="392.0"/>
      <point x="1554.0" y="634.0"/>
      <point x="1554.0" y="986.0" type="curve" smooth="yes"/>
      <point x="1554.0" y="1244.0"/>
      <point x="1364.0" y="1400.0"/>
      <point x="1064.0" y="1400.0" type="curve" smooth="yes"/>
      <point x="464.0" y="1400.0" type="line" smooth="yes"/>
      <point x="416.0" y="1400.0"/>
      <point x="392.0" y="1348.0"/>
      <point x="392.0" y="1322.0" type="curve" smooth="yes"/>
      <point x="392.0" y="1290.0"/>
      <point x="406.0" y="1264.0"/>
      <point x="438.0" y="1256.0" type="curve" smooth="yes"/>
      <point x="484.0" y="1244.0" type="line" smooth="yes"/>
      <point x="520.0" y="1234.0"/>
      <point x="538.0" y="1214.0"/>
      <point x="538.0" y="1182.0" type="curve" smooth="yes"/>
      <point x="538.0" y="1174.0"/>
      <point x="536.0" y="1164.0"/>
      <point x="534.0" y="1154.0" type="curve"/>
      <point x="472.0" y="848.0"/>
      <point x="396.0" y="542.0"/>
      <point x="298.0" y="244.0" type="curve" smooth="yes"/>
      <point x="284.0" y="200.0"/>
      <point x="262.0" y="166.0"/>
      <point x="220.0" y="156.0" type="curve" smooth="yes"/>
      <point x="168.0" y="144.0" type="line" smooth="yes"/>
      <point x="118.0" y="132.0"/>
      <point x="98.0" y="94.0"/>
      <point x="98.0" y="58.0" type="curve" smooth="yes"/>
      <point x="98.0" y="20.0"/>
      <point x="118.0" y="0.0"/>
      <point x="152.0" y="0.0" type="curve" smooth="yes"/>
      <point x="714.0" y="0.0" type="line" smooth="yes"/>
      <point x="758.0" y="0.0"/>
      <point x="788.0" y="34.0"/>
      <point x="788.0" y="76.0" type="curve" smooth="yes"/>
      <point x="788.0" y="110.0"/>
      <point x="774.0" y="136.0"/>
      <point x="742.0" y="144.0" type="curve" smooth="yes"/>
      <point x="694.0" y="156.0" type="line" smooth="yes"/>
      <point x="646.0" y="168.0"/>
      <point x="620.0" y="188.0"/>
      <point x="620.0" y="218.0" type="curve" smooth="yes"/>
      <point x="620.0" y="226.0"/>
      <point x="624.0" y="236.0"/>
      <point x="630.0" y="264.0" type="curve" smooth="yes"/>
      <point x="688.0" y="522.0"/>
      <point x="828.0" y="1020.0"/>
      <point x="858.0" y="1110.0" type="curve" smooth="yes"/>
      <point x="890.0" y="1208.0"/>
      <point x="966.0" y="1256.0"/>
      <point x="1054.0" y="1256.0" type="curve" smooth="yes"/>
      <point x="1154.0" y="1256.0"/>
      <point x="1224.0" y="1170.0"/>
      <point x="1224.0" y="1036.0" type="curve" smooth="yes"/>
      <point x="1224.0" y="742.0"/>
      <point x="1064.0" y="546.0"/>
      <point x="852.0" y="546.0" type="curve" smooth="yes"/>
      <point x="718.0" y="546.0"/>
      <point x="626.0" y="584.0"/>
      <point x="532.0" y="646.0" type="curve"/>
      <point x="492.0" y="530.0" type="line"/>
      <point x="640.0" y="434.0"/>
      <point x="734.0" y="392.0"/>
      <point x="932.0" y="392.0" type="curve" smooth="yes"/>
    </contour>
  </outline>
</glyph>
<glyph name="W" format="2">
  <advance width="2002"/>
  <unicode hex="0057"/>
  <anchor x="1380.0" y="1478.0" name="center"/>
  <outline>
    <contour>
      <point x="1234.0" y="1174.0" type="line"/>
      <point x="626.0" y="200.0" type="line"/>
      <point x="740.0" y="198.0" type="line"/>
      <point x="742.0" y="496.0"/>
      <point x="732.0" y="926.0"/>
      <point x="740.0" y="1118.0" type="curve" smooth="yes"/>
      <point x="740.0" y="1188.0"/>
      <point x="772.0" y="1228.0"/>
      <point x="836.0" y="1238.0" type="curve" smooth="yes"/>
      <point x="898.0" y="1248.0"/>
      <point x="928.0" y="1286.0"/>
      <point x="928.0" y="1332.0" type="curve" smooth="yes"/>
      <point x="928.0" y="1380.0"/>
      <point x="898.0" y="1400.0"/>
      <point x="840.0" y="1400.0" type="curve" smooth="yes"/>
      <point x="410.0" y="1400.0" type="line" smooth="yes"/>
      <point x="366.0" y="1400.0"/>
      <point x="334.0" y="1370.0"/>
      <point x="334.0" y="1324.0" type="curve" smooth="yes"/>
      <point x="334.0" y="1284.9302325581396"/>
      <point x="350.0" y="1260.0"/>
      <point x="370.0" y="1244.0" type="curve" smooth="yes"/>
      <point x="406.0" y="1216.0"/>
      <point x="422.0" y="1184.0"/>
      <point x="424.0" y="1126.0" type="curve" smooth="yes"/>
      <point x="434.0" y="830.0"/>
      <point x="444.0" y="462.0"/>
      <point x="440.0" y="234.0" type="curve" smooth="yes"/>
      <point x="440.0" y="184.0"/>
      <point x="408.0" y="124.0"/>
      <point x="408.0" y="70.0" type="curve" smooth="yes"/>
      <point x="408.0" y="28.0"/>
      <point x="420.0" y="0.0"/>
      <point x="458.0" y="0.0" type="curve" smooth="yes"/>
      <point x="678.0" y="0.0" type="line" smooth="yes"/>
      <point x="720.0" y="0.0"/>
      <point x="750.0" y="30.0"/>
      <point x="760.0" y="68.0" type="curve" smooth="yes"/>
      <point x="786.0" y="158.0"/>
      <point x="810.0" y="206.0"/>
      <point x="840.0" y="254.0" type="curve" smooth="yes"/>
      <point x="1308.0" y="1010.0" type="line"/>
    </contour>
    <contour>
      <point x="1852.0" y="1320.0" type="curve" smooth="yes"/>
      <point x="1852.0" y="1282.0"/>
      <point x="1874.0" y="1252.0"/>
      <point x="1920.0" y="1216.0" type="curve" smooth="yes"/>
      <point x="1948.0" y="1194.0"/>
      <point x="1962.0" y="1160.0"/>
      <point x="1964.0" y="1140.0" type="curve" smooth="yes"/>
      <point x="1966.0" y="1110.0"/>
      <point x="1960.0" y="1072.0"/>
      <point x="1938.0" y="1036.0" type="curve" smooth="yes"/>
      <point x="1440.0" y="212.0" type="line"/>
      <point x="1558.0" y="198.0" type="line"/>
      <point x="1534.0" y="502.0"/>
      <point x="1508.0" y="926.0"/>
      <point x="1500.0" y="1118.0" type="curve" smooth="yes"/>
      <point x="1498.0" y="1176.0"/>
      <point x="1528.0" y="1210.0"/>
      <point x="1586.0" y="1228.0" type="curve" smooth="yes"/>
      <point x="1648.0" y="1250.0"/>
      <point x="1664.0" y="1288.0"/>
      <point x="1664.0" y="1334.0" type="curve" smooth="yes"/>
      <point x="1664.0" y="1380.0"/>
      <point x="1642.0" y="1400.0"/>
      <point x="1580.0" y="1400.0" type="curve" smooth="yes"/>
      <point x="1172.0" y="1400.0" type="line" smooth="yes"/>
      <point x="1132.0" y="1400.0"/>
      <point x="1098.0" y="1374.0"/>
      <point x="1094.0" y="1328.0" type="curve" smooth="yes"/>
      <point x="1090.0" y="1294.0"/>
      <point x="1100.0" y="1270.0"/>
      <point x="1134.0" y="1246.0" type="curve" smooth="yes"/>
      <point x="1170.0" y="1220.0"/>
      <point x="1194.0" y="1202.0"/>
      <point x="1202.0" y="1126.0" type="curve" smooth="yes"/>
      <point x="1230.0" y="840.0"/>
      <point x="1254.0" y="550.0"/>
      <point x="1262.0" y="254.0" type="curve" smooth="yes"/>
      <point x="1264.0" y="190.0"/>
      <point x="1222.0" y="120.0"/>
      <point x="1222.0" y="74.0" type="curve" smooth="yes"/>
      <point x="1222.0" y="30.0"/>
      <point x="1244.0" y="0.0"/>
      <point x="1282.0" y="0.0" type="curve" smooth="yes"/>
      <point x="1500.0" y="0.0" type="line" smooth="yes"/>
      <point x="1542.0" y="0.0"/>
      <point x="1582.0" y="32.0"/>
      <point x="1588.0" y="86.0" type="curve" smooth="yes"/>
      <point x="1596.0" y="156.0"/>
      <point x="1606.0" y="208.0"/>
      <point x="1634.0" y="252.0" type="curve" smooth="yes"/>
      <point x="2108.0" y="1028.0" type="line" smooth="yes"/>
      <point x="2170.0" y="1130.0"/>
      <point x="2222.0" y="1160.0"/>
      <point x="2292.0" y="1192.0" type="curve" smooth="yes"/>
      <point x="2364.0" y="1222.0"/>
      <point x="2384.0" y="1254.0"/>
      <point x="2384.0" y="1302.0" type="curve" smooth="yes"/>
      <point x="2384.0" y="1370.0"/>
      <point x="2342.0" y="1400.0"/>
      <point x="2266.0" y="1400.0" type="curve" smooth="yes"/>
      <point x="1922.0" y="1400.0" type="line" smooth="yes"/>
      <point x="1882.0" y="1400.0"/>
      <point x="1852.0" y="1366.0"/>
    </contour>
  </outline>
</glyph>
<glyph name="bracketright" format="2">
  <advance width="786"/>
  <unicode hex="005D"/>
  <outline>
    <contour>
      <point x="260.0" y="-118.0" type="line" smooth="yes"/>
      <point x="244.0" y="-178.0"/>
      <point x="182.0" y="-226.0"/>
      <point x="124.0" y="-226.0" type="curve" smooth="yes"/>
      <point x="24.0" y="-226.0" type="line" smooth="yes"/>
      <point x="-38.0" y="-226.0"/>
      <point x="-66.0" y="-244.0"/>
      <point x="-78.0" y="-286.0" type="curve" smooth="yes"/>
      <point x="-86.0" y="-320.0"/>
      <point x="-72.0" y="-352.0"/>
      <point x="-14.0" y="-352.0" type="curve" smooth="yes"/>
      <point x="350.0" y="-352.0" type="line" smooth="yes"/>
      <point x="418.0" y="-352.0"/>
      <point x="488.0" y="-290.0"/>
      <point x="508.0" y="-214.0" type="curve" smooth="yes"/>
      <point x="934.0" y="1376.0" type="line" smooth="yes"/>
      <point x="954.0" y="1452.0"/>
      <point x="918.0" y="1514.0"/>
      <point x="850.0" y="1514.0" type="curve" smooth="yes"/>
      <point x="486.0" y="1514.0" type="line" smooth="yes"/>
      <point x="428.0" y="1514.0"/>
      <point x="396.0" y="1480.0"/>
      <point x="388.0" y="1448.0" type="curve" smooth="yes"/>
      <point x="376.0" y="1406.0"/>
      <point x="396.0" y="1388.0"/>
      <point x="458.0" y="1388.0" type="curve" smooth="yes"/>
      <point x="558.0" y="1388.0" type="line" smooth="yes"/>
      <point x="616.0" y="1388.0"/>
      <point x="650.0" y="1340.0"/>
      <point x="634.0" y="1280.0" type="curve" smooth="yes"/>
    </contour>
  </outline>
</glyph>
<glyph name="grave" format="2">
  <advance width="668"/>
  <unicode hex="0060"/>
  <outline>
    <contour>
      <point x="695" y="1154" type="curve" smooth="yes"/>
      <point x="561" y="1274" type="line" smooth="yes"/>
      <point x="471" y="1356"/>
      <point x="388" y="1396"/>
      <point x="310" y="1396" type="curve" smooth="yes"/>
      <point x="285" y="1395" type="line" smooth="yes"/>
      <point x="225" y="1393"/>
      <point x="197" y="1357"/>
      <point x="197" y="1304" type="curve" smooth="yes"/>
      <point x="196" y="1248"/>
      <point x="249" y="1198"/>
      <point x="344" y="1156" type="curve" smooth="yes"/>
      <point x="544" y="1066" type="line" smooth="yes"/>
      <point x="601" y="1040"/>
      <point x="648" y="1024"/>
      <point x="680" y="1024" type="curve" smooth="yes"/>
      <point x="718" y="1024"/>
      <point x="738" y="1046"/>
      <point x="738" y="1076" type="curve" smooth="yes"/>
      <point x="740" y="1104"/>
      <point x="719" y="1132"/>
    </contour>
  </outline>
</glyph>
<glyph name="b" format="2">
  <advance width="1104"/>
  <unicode hex="0062"/>
  <outline>
    <contour>
      <point x="674.0" y="1086.0" type="line" smooth="yes"/>
      <point x="712.0" y="1222.0"/>
      <point x="758.0" y="1270.0"/>
      <point x="812.0" y="1270.0" type="curve" smooth="yes"/>
      <point x="906.0" y="1270.0"/>
      <point x="1034.0" y="1140.0"/>
      <point x="1146.0" y="1140.0" type="curve" smooth="yes"/>
      <point x="1250.0" y="1140.0"/>
      <point x="1314.0" y="1212.0"/>
      <point x="1314.0" y="1282.0" type="curve" smooth="yes"/>
      <point x="1314.0" y="1380.0"/>
      <point x="1236.0" y="1452.0"/>
      <point x="1068.0" y="1452.0" type="curve" smooth="yes"/>
      <point x="702.0" y="1452.0"/>
      <point x="490.0" y="1282.0"/>
      <point x="404.0" y="1002.0" type="curve" smooth="yes"/>
      <point x="180.0" y="280.0" type="line" smooth="yes"/>
      <point x="144.0" y="166.0"/>
      <point x="130.0" y="116.0"/>
      <point x="130.0" y="68.0" type="curve" smooth="yes"/>
      <point x="130.0" y="8.0"/>
      <point x="164.0" y="-30.0"/>
      <point x="208.0" y="-30.0" type="curve" smooth="yes"/>
      <point x="258.0" y="-30.0"/>
      <point x="296.0" y="-6.0"/>
      <point x="336.0" y="64.0" type="curve" smooth="yes"/>
      <point x="434.0" y="230.0" type="line"/>
      <point x="252.0" y="266.0" type="line"/>
      <point x="300.0" y="46.0"/>
      <point x="406.0" y="-30.0"/>
      <point x="574.0" y="-30.0" type="curve" smooth="yes"/>
      <point x="866.0" y="-30.0"/>
      <point x="1198.0" y="266.0"/>
      <point x="1198.0" y="650.0" type="curve" smooth="yes"/>
      <point x="1198.0" y="896.0"/>
      <point x="1079.8125" y="980.0"/>
      <point x="950.0" y="980.0" type="curve" smooth="yes"/>
      <point x="730.3697478991596" y="980.0"/>
      <point x="564.2439731918374" y="816.5875272783023"/>
      <point x="466.0" y="580.0" type="curve"/>
      <point x="556.0" y="658.0" type="line"/>
    </contour>
    <contour>
      <point x="774.0" y="764.0" type="curve" smooth="yes"/>
      <point x="846.0" y="764.0"/>
      <point x="904.0" y="706.0"/>
      <point x="904.0" y="576.0" type="curve" smooth="yes"/>
      <point x="904.0" y="288.8186046511628"/>
      <point x="772.169014084507" y="122.0"/>
      <point x="644.0" y="122.0" type="curve" smooth="yes"/>
      <point x="538.7887323943662" y="122.0"/>
      <point x="478.0" y="196.0"/>
      <point x="478.0" y="310.0" type="curve" smooth="yes"/>
      <point x="478.0" y="522.0"/>
      <point x="656.0" y="764.0"/>
    </contour>
  </outline>
</glyph>
<glyph name="d" format="2">
  <advance width="1156"/>
  <unicode hex="0064"/>
  <outline>
    <contour>
      <point x="1144.0" y="738.0" type="line"/>
      <point x="1148.0" y="872.0"/>
      <point x="1034.0" y="980.0"/>
      <point x="862.0" y="980.0" type="curve" smooth="yes"/>
      <point x="504.9944444444444" y="980.0"/>
      <point x="144.0" y="586.0"/>
      <point x="144.0" y="240.0" type="curve" smooth="yes"/>
      <point x="144.0" y="64.0"/>
      <point x="236.0" y="-30.0"/>
      <point x="386.0" y="-30.0" type="curve" smooth="yes"/>
      <point x="556.0" y="-30.0"/>
      <point x="720.0" y="88.0"/>
      <point x="866.0" y="402.0" type="curve"/>
      <point x="814.0" y="402.0" type="line"/>
      <point x="814.0" y="314.0"/>
      <point x="786.0" y="224.0"/>
      <point x="786.0" y="122.0" type="curve" smooth="yes"/>
      <point x="786.0" y="38.0"/>
      <point x="842.0" y="-30.0"/>
      <point x="926.0" y="-30.0" type="curve" smooth="yes"/>
      <point x="1100.0" y="-30.0"/>
      <point x="1226.0" y="102.0"/>
      <point x="1226.0" y="196.0" type="curve" smooth="yes"/>
      <point x="1226.0" y="240.0"/>
      <point x="1204.0" y="270.0"/>
      <point x="1172.0" y="270.0" type="curve" smooth="yes"/>
      <point x="1158.0" y="270.0"/>
      <point x="1148.0" y="264.0"/>
      <point x="1140.0" y="254.0" type="curve" smooth="yes"/>
      <point x="1128.0" y="240.0"/>
      <point x="1116.0" y="230.0"/>
      <point x="1094.0" y="230.0" type="curve" smooth="yes"/>
      <point x="1068.0" y="230.0"/>
      <point x="1050.0" y="258.0"/>
      <point x="1050.0" y="326.0" type="curve" smooth="yes"/>
      <point x="1050.0" y="360.0"/>
      <point x="1056.0" y="418.0"/>
      <point x="1078.0" y="494.0" type="curve" smooth="yes"/>
      <point x="1198.0" y="922.0" type="line" smooth="yes"/>
      <point x="1230.0" y="1032.0"/>
      <point x="1190.0" y="1082.0"/>
      <point x="1190.0" y="1142.0" type="curve" smooth="yes"/>
      <point x="1190.0" y="1180.0"/>
      <point x="1204.0" y="1196.0"/>
      <point x="1242.0" y="1196.0" type="curve" smooth="yes"/>
      <point x="1290.0" y="1196.0"/>
      <point x="1330.0" y="1142.0"/>
      <point x="1412.0" y="1142.0" type="curve" smooth="yes"/>
      <point x="1504.0" y="1142.0"/>
      <point x="1566.0" y="1202.0"/>
      <point x="1566.0" y="1290.0" type="curve" smooth="yes"/>
      <point x="1566.0" y="1382.0"/>
      <point x="1508.0" y="1450.0"/>
      <point x="1400.0" y="1450.0" type="curve" smooth="yes"/>
      <point x="1252.0" y="1450.0"/>
      <point x="1100.0" y="1344.0"/>
      <point x="1042.0" y="1164.0" type="curve" smooth="yes"/>
      <point x="904.0" y="734.0" type="line" smooth="yes"/>
      <point x="782.0" y="354.0"/>
      <point x="640.0" y="214.0"/>
      <point x="522.0" y="214.0" type="curve" smooth="yes"/>
      <point x="450.0" y="214.0"/>
      <point x="404.0" y="262.0"/>
      <point x="404.0" y="350.0" type="curve" smooth="yes"/>
      <point x="404.0" y="586.0"/>
      <point x="559.1284916201117" y="778.0"/>
      <point x="760.0" y="778.0" type="curve" smooth="yes"/>
      <point x="826.0" y="778.0"/>
      <point x="884.0" y="732.0"/>
      <point x="884.0" y="656.0" type="curve"/>
    </contour>
  </outline>
</glyph>
<glyph name="f" format="2">
  <advance width="660"/>
  <unicode hex="0066"/>
  <outline>
    <contour>
      <point x="530.0" y="750.0" type="line"/>
      <point x="764.0" y="750.0" type="line" smooth="yes"/>
      <point x="834.0" y="750.0"/>
      <point x="880.0" y="782.0"/>
      <point x="880.0" y="838.0" type="curve" smooth="yes"/>
      <point x="880.0" y="886.0"/>
      <point x="848.0" y="908.0"/>
      <point x="788.0" y="908.0" type="curve" smooth="yes"/>
      <point x="564.0" y="908.0" type="line"/>
    </contour>
    <contour>
      <point x="220.0" y="840.0" type="curve" smooth="yes"/>
      <point x="220.0" y="812.0"/>
      <point x="236.0" y="776.0"/>
      <point x="270.0" y="762.0" type="curve" smooth="yes"/>
      <point x="330.0" y="738.0"/>
      <point x="352.0" y="684.0"/>
      <point x="332.0" y="620.0" type="curve" smooth="yes"/>
      <point x="116.0" y="-84.0" type="line" smooth="yes"/>
      <point x="96.0" y="-152.0"/>
      <point x="80.0" y="-198.0"/>
      <point x="82.0" y="-262.0" type="curve" smooth="yes"/>
      <point x="88.0" y="-352.0"/>
      <point x="136.0" y="-402.0"/>
      <point x="224.0" y="-402.0" type="curve" smooth="yes"/>
      <point x="344.0" y="-402.0"/>
      <point x="470.0" y="-322.0"/>
      <point x="470.0" y="-218.0" type="curve" smooth="yes"/>
      <point x="470.0" y="-134.0"/>
      <point x="406.0" y="-122.0"/>
      <point x="406.0" y="-48.0" type="curve" smooth="yes"/>
      <point x="406.0" y="-24.0"/>
      <point x="408.0" y="8.0"/>
      <point x="420.0" y="52.0" type="curve" smooth="yes"/>
      <point x="670.0" y="906.0" type="line" smooth="yes"/>
      <point x="720.0" y="1074.0"/>
      <point x="564.0" y="1115.2682926829268"/>
      <point x="564.0" y="1192.0" type="curve" smooth="yes"/>
      <point x="564.0" y="1246.0"/>
      <point x="602.0" y="1276.0"/>
      <point x="656.0" y="1276.0" type="curve" smooth="yes"/>
      <point x="740.9026548672566" y="1276.0"/>
      <point x="786.6194690265487" y="1138.0"/>
      <point x="902.0" y="1138.0" type="curve" smooth="yes"/>
      <point x="1000.0" y="1138.0"/>
      <point x="1054.0" y="1206.0"/>
      <point x="1054.0" y="1288.0" type="curve" smooth="yes"/>
      <point x="1054.0" y="1374.0"/>
      <point x="972.0" y="1450.0"/>
      <point x="830.0" y="1450.0" type="curve" smooth="yes"/>
      <point x="597.1176470588235" y="1450.0"/>
      <point x="413.5609121074778" y="1306.0473411028306"/>
      <point x="402.0" y="1044.0" type="curve" smooth="yes"/>
      <point x="396.0" y="908.0" type="line"/>
      <point x="306.0" y="908.0" type="line" smooth="yes"/>
      <point x="254.0" y="908.0"/>
      <point x="220.0" y="880.0"/>
    </contour>
  </outline>
</glyph>
<glyph name="h" format="2">
  <advance width="1142"/>
  <unicode hex="0068"/>
  <outline>
    <contour>
      <point x="498.0" y="386.0" type="curve" smooth="yes"/>
      <point x="482.0" y="332.0"/>
      <point x="472.0" y="288.0"/>
      <point x="472.0" y="258.0" type="curve" smooth="yes"/>
      <point x="472.0" y="186.0"/>
      <point x="496.0" y="152.0"/>
      <point x="496.0" y="100.0" type="curve" smooth="yes"/>
      <point x="496.0" y="22.0"/>
      <point x="394.0" y="-30.0"/>
      <point x="284.0" y="-30.0" type="curve" smooth="yes"/>
      <point x="198.0" y="-30.0"/>
      <point x="148.0" y="18.0"/>
      <point x="148.0" y="98.0" type="curve" smooth="yes"/>
      <point x="148.0" y="134.0"/>
      <point x="158.0" y="176.0"/>
      <point x="192.0" y="288.0" type="curve" smooth="yes"/>
      <point x="410.0" y="1000.0" type="line" smooth="yes"/>
      <point x="490.0" y="1260.0"/>
      <point x="748.0" y="1450.0"/>
      <point x="1074.0" y="1450.0" type="curve" smooth="yes"/>
      <point x="1244.0" y="1450.0"/>
      <point x="1324.0" y="1378.0"/>
      <point x="1324.0" y="1280.0" type="curve" smooth="yes"/>
      <point x="1324.0" y="1206.0"/>
      <point x="1268.0" y="1140.0"/>
      <point x="1152.0" y="1140.0" type="curve" smooth="yes"/>
      <point x="1016.0" y="1140.0"/>
      <point x="942.0" y="1266.0"/>
      <point x="820.0" y="1266.0" type="curve" smooth="yes"/>
      <point x="762.0" y="1266.0"/>
      <point x="726.0" y="1224.0"/>
      <point x="686.0" y="1090.0" type="curve" smooth="yes"/>
      <point x="602.0" y="802.0"/>
      <point x="562.0" y="690.0"/>
      <point x="550.0" y="610.0" type="curve"/>
      <point x="538.0" y="654.0" type="line"/>
      <point x="676.0007619695791" y="878.0012368201865"/>
      <point x="855.2995780590718" y="980.0"/>
      <point x="1008.0" y="980.0" type="curve" smooth="yes"/>
      <point x="1116.0" y="980.0"/>
      <point x="1180.0" y="912.0"/>
      <point x="1180.0" y="824.0" type="curve" smooth="yes"/>
      <point x="1180.0" y="750.0"/>
      <point x="1164.0" y="692.0"/>
      <point x="1128.0" y="610.0" type="curve" smooth="yes"/>
      <point x="1020.0" y="368.0" type="line" smooth="yes"/>
      <point x="1004.0" y="334.0"/>
      <point x="996.0" y="298.0"/>
      <point x="996.0" y="262.0" type="curve" smooth="yes"/>
      <point x="996.0" y="234.0"/>
      <point x="1006.0" y="208.0"/>
      <point x="1032.0" y="208.0" type="curve" smooth="yes"/>
      <point x="1048.0" y="208.0"/>
      <point x="1064.0" y="214.0"/>
      <point x="1080.0" y="228.0" type="curve" smooth="yes"/>
      <point x="1104.0" y="250.0"/>
      <point x="1118.0" y="256.0"/>
      <point x="1136.0" y="256.0" type="curve" smooth="yes"/>
      <point x="1166.0" y="256.0"/>
      <point x="1184.0" y="222.0"/>
      <point x="1184.0" y="180.0" type="curve" smooth="yes"/>
      <point x="1184.0" y="80.0"/>
      <point x="1056.0" y="-30.0"/>
      <point x="874.0" y="-30.0" type="curve" smooth="yes"/>
      <point x="756.0" y="-30.0"/>
      <point x="692.0" y="22.0"/>
      <point x="692.0" y="118.0" type="curve" smooth="yes"/>
      <point x="692.0" y="172.0"/>
      <point x="708.0" y="224.0"/>
      <point x="736.0" y="286.0" type="curve" smooth="yes"/>
      <point x="850.0" y="546.0" type="line" smooth="yes"/>
      <point x="872.0" y="598.0"/>
      <point x="892.0" y="658.0"/>
      <point x="892.0" y="692.0" type="curve" smooth="yes"/>
      <point x="892.0" y="730.0"/>
      <point x="870.0" y="756.0"/>
      <point x="830.0" y="756.0" type="curve" smooth="yes"/>
      <point x="707.4761904761905" y="756.0"/>
      <point x="567.0515374253669" y="593.1546122761006"/>
    </contour>
  </outline>
</glyph>
<glyph name="i" format="2">
  <advance width="666"/>
  <unicode hex="0069"/>
  <outline>
    <contour>
      <point x="640.0" y="1084.0" type="curve" smooth="yes"/>
      <point x="773.2537313432836" y="1084.0"/>
      <point x="888.0" y="1176.5555555555557"/>
      <point x="888.0" y="1280.0" type="curve" smooth="yes"/>
      <point x="888.0" y="1367.6923076923076"/>
      <point x="820.1052631578948" y="1430.0"/>
      <point x="716.0" y="1430.0" type="curve" smooth="yes"/>
      <point x="575.4285714285714" y="1430.0"/>
      <point x="470.0" y="1330.091743119266"/>
      <point x="470.0" y="1232.0" type="curve" smooth="yes"/>
      <point x="470.0" y="1139.5"/>
      <point x="535.7333333333333" y="1084.0"/>
    </contour>
    <contour>
      <point x="520.0" y="270.0" type="curve" smooth="yes"/>
      <point x="520.0" y="234.0"/>
      <point x="536.0" y="216.0"/>
      <point x="560.0" y="216.0" type="curve" smooth="yes"/>
      <point x="576.0" y="216.0"/>
      <point x="590.0" y="226.0"/>
      <point x="604.0" y="240.0" type="curve" smooth="yes"/>
      <point x="624.0" y="258.0"/>
      <point x="638.0" y="264.0"/>
      <point x="658.0" y="264.0" type="curve" smooth="yes"/>
      <point x="684.0" y="264.0"/>
      <point x="702.0" y="240.0"/>
      <point x="702.0" y="202.0" type="curve" smooth="yes"/>
      <point x="702.0" y="96.0"/>
      <point x="590.0" y="-30.0"/>
      <point x="386.0" y="-30.0" type="curve" smooth="yes"/>
      <point x="274.0" y="-30.0"/>
      <point x="200.0" y="26.0"/>
      <point x="200.0" y="112.0" type="curve" smooth="yes"/>
      <point x="200.0" y="186.0"/>
      <point x="228.0" y="254.0"/>
      <point x="262.0" y="332.0" type="curve" smooth="yes"/>
      <point x="394.0" y="616.0" type="line" smooth="yes"/>
      <point x="406.0" y="640.0"/>
      <point x="414.0" y="658.0"/>
      <point x="414.0" y="686.0" type="curve" smooth="yes"/>
      <point x="414.0" y="708.0"/>
      <point x="398.0" y="732.0"/>
      <point x="372.0" y="732.0" type="curve" smooth="yes"/>
      <point x="354.0" y="732.0"/>
      <point x="344.0" y="726.0"/>
      <point x="328.0" y="710.0" type="curve" smooth="yes"/>
      <point x="308.0" y="690.0"/>
      <point x="292.0" y="682.0"/>
      <point x="274.0" y="682.0" type="curve" smooth="yes"/>
      <point x="244.0" y="682.0"/>
      <point x="212.0" y="702.0"/>
      <point x="212.0" y="750.0" type="curve" smooth="yes"/>
      <point x="212.0" y="850.0"/>
      <point x="374.0" y="980.0"/>
      <point x="580.0" y="980.0" type="curve" smooth="yes"/>
      <point x="674.0" y="980.0"/>
      <point x="718.0" y="922.0"/>
      <point x="718.0" y="842.0" type="curve" smooth="yes"/>
      <point x="718.0" y="774.0"/>
      <point x="692.0" y="696.0"/>
      <point x="648.0" y="598.0" type="curve" smooth="yes"/>
      <point x="546.0" y="374.0" type="line" smooth="yes"/>
      <point x="530.0" y="340.0"/>
      <point x="520.0" y="304.0"/>
    </contour>
  </outline>
</glyph>
<glyph name="k" format="2">
  <advance width="1140"/>
  <unicode hex="006B"/>
  <outline>
    <contour>
      <point x="448.0" y="572.0" type="line"/>
      <point x="554.0" y="832.0"/>
      <point x="784.0" y="980.0"/>
      <point x="986.0" y="980.0" type="curve" smooth="yes"/>
      <point x="1144.0" y="980.0"/>
      <point x="1246.0" y="906.0"/>
      <point x="1246.0" y="760.0" type="curve" smooth="yes"/>
      <point x="1246.0" y="550.0"/>
      <point x="996.0" y="392.0"/>
      <point x="412.0" y="274.0" type="curve"/>
      <point x="408.0" y="378.0" type="line"/>
      <point x="820.0" y="472.0"/>
      <point x="950.0" y="618.0"/>
      <point x="950.0" y="744.0" type="curve" smooth="yes"/>
      <point x="950.0" y="796.0"/>
      <point x="926.0" y="824.0"/>
      <point x="874.0" y="824.0" type="curve" smooth="yes"/>
      <point x="738.0" y="824.0"/>
      <point x="564.0" y="664.0"/>
      <point x="480.0" y="368.0" type="curve" smooth="yes"/>
      <point x="466.0" y="318.0"/>
      <point x="458.0" y="282.0"/>
      <point x="458.0" y="256.0" type="curve" smooth="yes"/>
      <point x="458.0" y="182.0"/>
      <point x="484.0" y="150.0"/>
      <point x="484.0" y="104.0" type="curve" smooth="yes"/>
      <point x="484.0" y="24.0"/>
      <point x="386.0" y="-32.0"/>
      <point x="276.0" y="-32.0" type="curve" smooth="yes"/>
      <point x="192.0" y="-32.0"/>
      <point x="138.0" y="14.0"/>
      <point x="138.0" y="96.0" type="curve" smooth="yes"/>
      <point x="138.0" y="134.0"/>
      <point x="146.0" y="178.0"/>
      <point x="164.0" y="234.0" type="curve" smooth="yes"/>
      <point x="388.0" y="964.0" type="line" smooth="yes"/>
      <point x="482.0" y="1268.0"/>
      <point x="722.0" y="1450.0"/>
      <point x="1082.0" y="1450.0" type="curve" smooth="yes"/>
      <point x="1236.0" y="1450.0"/>
      <point x="1312.0" y="1368.0"/>
      <point x="1312.0" y="1282.0" type="curve" smooth="yes"/>
      <point x="1312.0" y="1208.0"/>
      <point x="1250.0" y="1140.0"/>
      <point x="1138.0" y="1140.0" type="curve" smooth="yes"/>
      <point x="1020.0" y="1140.0"/>
      <point x="906.0" y="1268.0"/>
      <point x="810.0" y="1268.0" type="curve" smooth="yes"/>
      <point x="756.0" y="1268.0"/>
      <point x="710.0" y="1218.0"/>
      <point x="676.0" y="1092.0" type="curve" smooth="yes"/>
      <point x="588.0" y="770.0"/>
      <point x="526.0" y="682.0"/>
      <point x="526.0" y="576.0" type="curve"/>
    </contour>
    <contour>
      <point x="602.0" y="360.0" type="curve"/>
      <point x="770.0" y="414.0" type="line"/>
      <point x="824.0" y="290.0"/>
      <point x="864.0" y="234.0"/>
      <point x="924.0" y="234.0" type="curve" smooth="yes"/>
      <point x="996.0" y="234.0"/>
      <point x="1022.0" y="304.0"/>
      <point x="1076.0" y="304.0" type="curve" smooth="yes"/>
      <point x="1124.0" y="304.0"/>
      <point x="1152.0" y="278.0"/>
      <point x="1152.0" y="224.0" type="curve" smooth="yes"/>
      <point x="1152.0" y="80.0"/>
      <point x="1010.0" y="-30.0"/>
      <point x="838.0" y="-30.0" type="curve" smooth="yes"/>
      <point x="728.0" y="-30.0"/>
      <point x="642.0" y="58.0"/>
    </contour>
  </outline>
</glyph>
<glyph name="l" format="2">
  <advance width="608"/>
  <unicode hex="006C"/>
  <outline>
    <contour>
      <point x="852.0" y="1450.0" type="curve" smooth="yes"/>
      <point x="671.04" y="1450.0"/>
      <point x="521.9291798541228" y="1325.1528978355789"/>
      <point x="436.0" y="1060.0" type="curve" smooth="yes"/>
      <point x="226.0" y="412.0" type="line" smooth="yes"/>
      <point x="194.0" y="312.0"/>
      <point x="174.0" y="252.0"/>
      <point x="174.0" y="166.0" type="curve" smooth="yes"/>
      <point x="174.0" y="48.0"/>
      <point x="240.0" y="-30.0"/>
      <point x="366.0" y="-30.0" type="curve" smooth="yes"/>
      <point x="536.0" y="-30.0"/>
      <point x="654.0" y="102.0"/>
      <point x="654.0" y="204.0" type="curve" smooth="yes"/>
      <point x="654.0" y="236.0"/>
      <point x="640.0" y="268.0"/>
      <point x="612.0" y="268.0" type="curve" smooth="yes"/>
      <point x="594.0" y="268.0"/>
      <point x="580.0" y="266.0"/>
      <point x="570.0" y="252.0" type="curve" smooth="yes"/>
      <point x="562.0" y="242.0"/>
      <point x="548.0" y="232.0"/>
      <point x="520.0" y="232.0" type="curve" smooth="yes"/>
      <point x="494.0" y="232.0"/>
      <point x="476.0" y="264.0"/>
      <point x="476.0" y="326.0" type="curve" smooth="yes"/>
      <point x="476.0" y="372.0"/>
      <point x="494.0" y="436.0"/>
      <point x="518.0" y="516.0" type="curve" smooth="yes"/>
      <point x="646.0" y="916.0" type="line" smooth="yes"/>
      <point x="678.0" y="1014.0"/>
      <point x="598.0" y="1078.0"/>
      <point x="598.0" y="1136.0" type="curve" smooth="yes"/>
      <point x="598.0" y="1188.0"/>
      <point x="622.0" y="1216.0"/>
      <point x="678.0" y="1216.0" type="curve" smooth="yes"/>
      <point x="726.0" y="1216.0"/>
      <point x="757.0909090909091" y="1150.0"/>
      <point x="852.0" y="1150.0" type="curve" smooth="yes"/>
      <point x="966.0" y="1150.0"/>
      <point x="1016.0" y="1222.0"/>
      <point x="1016.0" y="1302.0" type="curve" smooth="yes"/>
      <point x="1016.0" y="1380.0"/>
      <point x="964.9777777777778" y="1450.0"/>
    </contour>
  </outline>
</glyph>
<glyph name="m" format="2">
  <advance width="1728"/>
  <unicode hex="006D"/>
  <outline>
    <contour>
      <point x="770.0" y="234.0" type="line" smooth="yes"/>
      <point x="748.0" y="180.0"/>
      <point x="740.0" y="150.0"/>
      <point x="744.0" y="104.0" type="curve" smooth="yes"/>
      <point x="746.0" y="16.0"/>
      <point x="796.0" y="-30.0"/>
      <point x="878.0" y="-30.0" type="curve" smooth="yes"/>
      <point x="992.0" y="-30.0"/>
      <point x="1092.0" y="28.0"/>
      <point x="1092.0" y="120.0" type="curve" smooth="yes"/>
      <point x="1092.0" y="156.0"/>
      <point x="1060.0" y="188.0"/>
      <point x="1056.0" y="222.0" type="curve" smooth="yes"/>
      <point x="1054.0" y="252.0"/>
      <point x="1058.0" y="298.0"/>
      <point x="1100.0" y="406.0" type="curve" smooth="yes"/>
      <point x="1191.9811420076953" y="643.8049037272124"/>
      <point x="1300.6438356164383" y="744.0"/>
      <point x="1402.0" y="744.0" type="curve" smooth="yes"/>
      <point x="1446.0" y="744.0"/>
      <point x="1464.0" y="712.0"/>
      <point x="1464.0" y="674.0" type="curve" smooth="yes"/>
      <point x="1464.0" y="632.8888888888889"/>
      <point x="1449.6398156343128" y="581.1595698133964"/>
      <point x="1426.0" y="526.0" type="curve" smooth="yes"/>
      <point x="1336.0" y="316.0" type="line" smooth="yes"/>
      <point x="1304.0" y="242.0"/>
      <point x="1276.0" y="174.0"/>
      <point x="1278.0" y="106.0" type="curve" smooth="yes"/>
      <point x="1282.0" y="30.0"/>
      <point x="1342.0" y="-30.0"/>
      <point x="1454.0" y="-30.0" type="curve" smooth="yes"/>
      <point x="1654.0" y="-30.0"/>
      <point x="1772.0" y="78.0"/>
      <point x="1772.0" y="186.0" type="curve" smooth="yes"/>
      <point x="1772.0" y="236.0"/>
      <point x="1750.0" y="254.0"/>
      <point x="1724.0" y="254.0" type="curve" smooth="yes"/>
      <point x="1706.0" y="254.0"/>
      <point x="1694.0" y="248.0"/>
      <point x="1674.0" y="228.0" type="curve" smooth="yes"/>
      <point x="1654.0" y="208.0"/>
      <point x="1640.0" y="204.0"/>
      <point x="1624.0" y="204.0" type="curve" smooth="yes"/>
      <point x="1604.0" y="204.0"/>
      <point x="1588.0" y="222.0"/>
      <point x="1588.0" y="256.0" type="curve" smooth="yes"/>
      <point x="1588.0" y="296.0"/>
      <point x="1598.0" y="338.0"/>
      <point x="1616.0" y="380.0" type="curve" smooth="yes"/>
      <point x="1706.0" y="598.0" type="line" smooth="yes"/>
      <point x="1742.0" y="684.0"/>
      <point x="1756.0" y="740.0"/>
      <point x="1756.0" y="818.0" type="curve" smooth="yes"/>
      <point x="1756.0" y="914.0"/>
      <point x="1694.0" y="980.0"/>
      <point x="1582.0" y="980.0" type="curve" smooth="yes"/>
      <point x="1430.0" y="980.0"/>
      <point x="1264.0" y="856.0"/>
      <point x="1096.0" y="614.0" type="curve"/>
      <point x="1156.0" y="564.0" type="line"/>
      <point x="1156.0" y="642.0"/>
      <point x="1222.0" y="726.0"/>
      <point x="1222.0" y="814.0" type="curve" smooth="yes"/>
      <point x="1222.0" y="912.0"/>
      <point x="1168.0" y="980.0"/>
      <point x="1070.0" y="980.0" type="curve" smooth="yes"/>
      <point x="912.0" y="980.0"/>
      <point x="736.0" y="858.0"/>
      <point x="572.0" y="610.0" type="curve"/>
      <point x="608.0" y="586.0" type="line"/>
      <point x="624.0" y="716.0"/>
      <point x="684.0" y="792.0"/>
      <point x="680.0" y="850.0" type="curve" smooth="yes"/>
      <point x="678.0" y="928.0"/>
      <point x="624.0" y="982.0"/>
      <point x="540.0" y="982.0" type="curve" smooth="yes"/>
      <point x="382.0" y="982.0"/>
      <point x="204.0" y="858.0"/>
      <point x="204.0" y="766.0" type="curve" smooth="yes"/>
      <point x="204.0" y="724.0"/>
      <point x="228.0" y="698.0"/>
      <point x="266.0" y="698.0" type="curve" smooth="yes"/>
      <point x="294.0" y="698.0"/>
      <point x="312.0" y="708.0"/>
      <point x="332.0" y="728.0" type="curve" smooth="yes"/>
      <point x="346.0" y="742.0"/>
      <point x="362.0" y="748.0"/>
      <point x="374.0" y="748.0" type="curve" smooth="yes"/>
      <point x="392.0" y="748.0"/>
      <point x="406.0" y="728.0"/>
      <point x="406.0" y="702.0" type="curve" smooth="yes"/>
      <point x="406.0" y="670.0"/>
      <point x="400.0" y="646.0"/>
      <point x="388.0" y="616.0" type="curve" smooth="yes"/>
      <point x="216.0" y="200.0" type="line" smooth="yes"/>
      <point x="200.0" y="162.0"/>
      <point x="190.0" y="120.0"/>
      <point x="194.0" y="78.0" type="curve" smooth="yes"/>
      <point x="196.0" y="6.0"/>
      <point x="244.0" y="-30.0"/>
      <point x="326.0" y="-30.0" type="curve" smooth="yes"/>
      <point x="446.0" y="-30.0"/>
      <point x="556.0" y="32.0"/>
      <point x="550.0" y="120.0" type="curve" smooth="yes"/>
      <point x="548.0" y="162.0"/>
      <point x="528.0" y="202.0"/>
      <point x="528.0" y="244.0" type="curve" smooth="yes"/>
      <point x="528.0" y="278.0"/>
      <point x="534.0" y="336.0"/>
      <point x="560.0" y="396.0" type="curve" smooth="yes"/>
      <point x="651.6481286950585" y="635.1792626919821"/>
      <point x="772.583850931677" y="746.0"/>
      <point x="874.0" y="746.0" type="curve" smooth="yes"/>
      <point x="914.0" y="746.0"/>
      <point x="930.0" y="716.0"/>
      <point x="930.0" y="676.0" type="curve" smooth="yes"/>
      <point x="930.0" y="632.0"/>
      <point x="910.2732648346113" y="581.1168926415805"/>
      <point x="888.0" y="526.0" type="curve" smooth="yes"/>
    </contour>
  </outline>
</glyph>
<glyph name="o" format="2">
  <advance width="1060"/>
  <unicode hex="006F"/>
  <outline>
    <contour>
      <point x="794.0" y="980.0" type="curve" smooth="yes"/>
      <point x="414.0" y="980.0"/>
      <point x="158.0" y="618.0"/>
      <point x="158.0" y="346.0" type="curve" smooth="yes"/>
      <point x="158.0" y="114.0"/>
      <point x="290.0" y="-30.0"/>
      <point x="512.0" y="-30.0" type="curve" smooth="yes"/>
      <point x="850.0" y="-30.0"/>
      <point x="1158.0" y="266.0"/>
      <point x="1158.0" y="632.0" type="curve" smooth="yes"/>
      <point x="1158.0" y="850.0"/>
      <point x="1034.0" y="980.0"/>
    </contour>
    <contour>
      <point x="588.0" y="152.0" type="curve" smooth="yes"/>
      <point x="512.0" y="152.0"/>
      <point x="470.0" y="216.0"/>
      <point x="470.0" y="362.0" type="curve" smooth="yes"/>
      <point x="470.0" y="622.0"/>
      <point x="616.0" y="810.0"/>
      <point x="724.0" y="810.0" type="curve" smooth="yes"/>
      <point x="800.0" y="810.0"/>
      <point x="844.0" y="754.0"/>
      <point x="844.0" y="616.0" type="curve" smooth="yes"/>
      <point x="844.0" y="324.0"/>
      <point x="680.0" y="152.0"/>
    </contour>
  </outline>
</glyph>
<glyph name="q" format="2">
  <advance width="1032"/>
  <unicode hex="0071"/>
  <outline>
    <contour>
      <point x="464.0" y="212.0"/>
      <point x="422.0" y="256.0"/>
      <point x="422.0" y="352.0" type="curve" smooth="yes"/>
      <point x="422.0" y="596.0"/>
      <point x="582.0" y="776.0"/>
      <point x="740.0" y="776.0" type="curve" smooth="yes"/>
      <point x="808.0" y="776.0"/>
      <point x="846.0" y="722.0"/>
      <point x="846.0" y="648.0" type="curve" smooth="yes"/>
      <point x="846.0" y="486.0"/>
      <point x="684.0" y="212.0"/>
      <point x="532.0" y="212.0" type="curve" smooth="yes"/>
    </contour>
    <contour>
      <point x="810.0" y="404.0" type="line"/>
      <point x="636.0" y="-188.0" type="line" smooth="yes"/>
      <point x="620.0" y="-240.0"/>
      <point x="594.0" y="-282.0"/>
      <point x="538.0" y="-304.0" type="curve" smooth="yes"/>
      <point x="476.0" y="-326.0"/>
      <point x="452.0" y="-364.0"/>
      <point x="452.0" y="-394.0" type="curve" smooth="yes"/>
      <point x="452.0" y="-438.0"/>
      <point x="476.0" y="-460.0"/>
      <point x="516.0" y="-460.0" type="curve" smooth="yes"/>
      <point x="900.0" y="-450.0" type="line" smooth="yes"/>
      <point x="938.0" y="-450.0"/>
      <point x="964.0" y="-428.0"/>
      <point x="964.0" y="-386.0" type="curve" smooth="yes"/>
      <point x="964.0" y="-364.0"/>
      <point x="952.0" y="-340.0"/>
      <point x="934.0" y="-328.0" type="curve" smooth="yes"/>
      <point x="904.0" y="-310.0"/>
      <point x="874.0" y="-276.0"/>
      <point x="874.0" y="-230.0" type="curve" smooth="yes"/>
      <point x="874.0" y="-198.0"/>
      <point x="880.0" y="-164.0"/>
      <point x="894.0" y="-108.0" type="curve" smooth="yes"/>
      <point x="1066.0" y="582.0" type="line" smooth="yes"/>
      <point x="1090.0" y="682.0"/>
      <point x="1194.0" y="732.0"/>
      <point x="1194.0" y="804.0" type="curve" smooth="yes"/>
      <point x="1194.0" y="916.0"/>
      <point x="1104.0" y="978.0"/>
      <point x="936.0" y="978.0" type="curve" smooth="yes"/>
      <point x="488.0" y="978.0"/>
      <point x="154.0" y="618.0"/>
      <point x="154.0" y="216.0" type="curve" smooth="yes"/>
      <point x="154.0" y="52.0"/>
      <point x="242.0" y="-30.0"/>
      <point x="384.0" y="-30.0" type="curve" smooth="yes"/>
      <point x="550.0" y="-30.0"/>
      <point x="750.0" y="128.0"/>
      <point x="848.0" y="386.0" type="curve"/>
    </contour>
  </outline>
</glyph>
<glyph name="v" format="2">
  <advance width="1148"/>
  <unicode hex="0076"/>
  <outline>
    <contour>
      <point x="904.0" y="-30.0"/>
      <point x="1250.0" y="326.0"/>
      <point x="1250.0" y="764.0" type="curve" smooth="yes"/>
      <point x="1250.0" y="908.0"/>
      <point x="1184.0" y="980.0"/>
      <point x="1090.0" y="980.0" type="curve" smooth="yes"/>
      <point x="978.0" y="980.0"/>
      <point x="894.0" y="898.0"/>
      <point x="894.0" y="798.0" type="curve" smooth="yes"/>
      <point x="894.0" y="740.0"/>
      <point x="916.0" y="692.0"/>
      <point x="960.0" y="648.0" type="curve" smooth="yes"/>
      <point x="1002.0" y="606.0"/>
      <point x="1010.0" y="558.0"/>
      <point x="1010.0" y="510.0" type="curve" smooth="yes"/>
      <point x="1010.0" y="328.0"/>
      <point x="866.0" y="182.0"/>
      <point x="748.0" y="182.0" type="curve" smooth="yes"/>
      <point x="654.0" y="182.0"/>
      <point x="614.0" y="242.0"/>
      <point x="614.0" y="330.0" type="curve" smooth="yes"/>
      <point x="614.0" y="414.58333333333337"/>
      <point x="644.0513837213838" y="491.01989287136837"/>
      <point x="740.0" y="620.0" type="curve" smooth="yes"/>
      <point x="841.938665538896" y="758.7498503168307"/>
      <point x="862.0" y="828.4347826086957"/>
      <point x="862.0" y="902.0" type="curve" smooth="yes"/>
      <point x="862.0" y="955.2682926829268"/>
      <point x="836.1176470588235" y="980.0"/>
      <point x="782.0" y="980.0" type="curve" smooth="yes"/>
      <point x="736.0" y="980.0"/>
      <point x="706.0" y="950.0"/>
      <point x="650.0" y="950.0" type="curve" smooth="yes"/>
      <point x="606.0" y="950.0"/>
      <point x="522.0" y="980.0"/>
      <point x="488.0" y="980.0" type="curve" smooth="yes"/>
      <point x="300.0" y="980.0"/>
      <point x="176.0" y="791.8934911242603"/>
      <point x="176.0" y="606.0" type="curve" smooth="yes"/>
      <point x="176.0" y="498.0"/>
      <point x="224.0" y="436.0"/>
      <point x="296.0" y="436.0" type="curve" smooth="yes"/>
      <point x="356.0" y="436.0"/>
      <point x="414.0" y="470.0"/>
      <point x="414.0" y="536.0" type="curve" smooth="yes"/>
      <point x="414.0" y="582.0"/>
      <point x="390.0" y="614.0"/>
      <point x="338.0" y="624.0" type="curve" smooth="yes"/>
      <point x="300.0" y="630.0"/>
      <point x="290.0" y="642.0"/>
      <point x="290.0" y="664.0" type="curve" smooth="yes"/>
      <point x="290.0" y="682.0"/>
      <point x="306.0" y="698.0"/>
      <point x="342.0" y="698.0" type="curve" smooth="yes"/>
      <point x="408.0" y="698.0"/>
      <point x="514.0" y="672.0"/>
      <point x="588.0" y="672.0" type="curve" smooth="yes"/>
      <point x="690.9830508474577" y="672.0"/>
      <point x="730.0" y="806.0"/>
      <point x="686.0" y="874.0" type="curve"/>
      <point x="686.0" y="756.0"/>
      <point x="648.0" y="678.0"/>
      <point x="528.0" y="558.0" type="curve" smooth="yes"/>
      <point x="350.0" y="380.0"/>
      <point x="284.0" y="287.9741379310344"/>
      <point x="284.0" y="164.0" type="curve" smooth="yes"/>
      <point x="284.0" y="47.96261682242992"/>
      <point x="393.5" y="-30.0"/>
      <point x="576.0" y="-30.0" type="curve" smooth="yes"/>
    </contour>
  </outline>
</glyph>
<glyph name="braceleft" format="2">
  <advance width="878"/>
  <unicode hex="007B"/>
  <outline>
    <contour>
      <point x="644.0" y="578.0" type="curve" smooth="yes"/>
      <point x="650.0" y="598.0"/>
      <point x="672.0" y="616.0"/>
      <point x="698.0" y="616.0" type="curve" smooth="yes"/>
      <point x="764.0" y="616.0"/>
      <point x="826.0" y="684.0"/>
      <point x="852.0" y="780.0" type="curve" smooth="yes"/>
      <point x="892.0" y="930.0"/>
      <point x="830.0" y="1060.0"/>
      <point x="866.0" y="1196.0" type="curve" smooth="yes"/>
      <point x="894.0" y="1298.0"/>
      <point x="996.0" y="1380.0"/>
      <point x="1092.0" y="1380.0" type="curve" smooth="yes"/>
      <point x="1132.0" y="1380.0" type="line" smooth="yes"/>
      <point x="1184.0" y="1380.0"/>
      <point x="1224.0" y="1404.0"/>
      <point x="1236.0" y="1446.0" type="curve" smooth="yes"/>
      <point x="1246.0" y="1482.0"/>
      <point x="1226.0" y="1510.0"/>
      <point x="1170.0" y="1510.0" type="curve" smooth="yes"/>
      <point x="1026.0" y="1510.0" type="line" smooth="yes"/>
      <point x="804.0" y="1510.0"/>
      <point x="612.0" y="1384.0"/>
      <point x="564.0" y="1200.0" type="curve" smooth="yes"/>
      <point x="516.0" y="1024.0"/>
      <point x="664.0" y="910.0"/>
      <point x="626.0" y="768.0" type="curve" smooth="yes"/>
      <point x="610.0" y="708.0"/>
      <point x="550.0" y="674.0"/>
      <point x="498.0" y="672.0" type="curve" smooth="yes"/>
      <point x="438.0" y="672.0"/>
      <point x="432.0" y="712.0"/>
      <point x="370.0" y="712.0" type="curve" smooth="yes"/>
      <point x="312.0" y="712.0"/>
      <point x="246.0" y="650.0"/>
      <point x="228.0" y="580.0" type="curve" smooth="yes"/>
      <point x="208.0" y="504.0"/>
      <point x="236.0" y="448.0"/>
      <point x="300.0" y="448.0" type="curve" smooth="yes"/>
      <point x="368.0" y="448.0"/>
      <point x="404.0" y="488.0"/>
      <point x="452.0" y="488.0" type="curve" smooth="yes"/>
      <point x="506.0" y="486.0"/>
      <point x="538.0" y="444.0"/>
      <point x="522.0" y="382.0" type="curve" smooth="yes"/>
      <point x="486.0" y="248.0"/>
      <point x="276.0" y="130.0"/>
      <point x="226.0" y="-60.0" type="curve" smooth="yes"/>
      <point x="178.0" y="-240.0"/>
      <point x="300.0" y="-370.0"/>
      <point x="522.0" y="-370.0" type="curve" smooth="yes"/>
      <point x="666.0" y="-370.0" type="line" smooth="yes"/>
      <point x="722.0" y="-370.0"/>
      <point x="758.0" y="-334.0"/>
      <point x="766.0" y="-306.0" type="curve" smooth="yes"/>
      <point x="778.0" y="-258.0"/>
      <point x="750.0" y="-240.0"/>
      <point x="698.0" y="-240.0" type="curve" smooth="yes"/>
      <point x="658.0" y="-240.0" type="line" smooth="yes"/>
      <point x="562.0" y="-240.0"/>
      <point x="504.0" y="-156.0"/>
      <point x="530.0" y="-56.0" type="curve" smooth="yes"/>
      <point x="570.0" y="90.0"/>
      <point x="704.0" y="228.0"/>
      <point x="742.0" y="372.0" type="curve" smooth="yes"/>
      <point x="766.0" y="464.0"/>
      <point x="748.0" y="540.0"/>
      <point x="676.0" y="540.0" type="curve" smooth="yes"/>
      <point x="650.0" y="540.0"/>
      <point x="638.0" y="552.0"/>
    </contour>
  </outline>
</glyph>
<glyph name="bar" format="2">
  <advance width="714"/>
  <unicode hex="007C"/>
  <outline>
    <contour>
      <point x="586.0" y="1362.0" type="curve" smooth="yes"/>
      <point x="548.0" y="1134.0"/>
      <point x="484.0" y="682.0"/>
      <point x="444.0" y="530.0" type="curve" smooth="yes"/>
      <point x="396.0" y="348.0"/>
      <point x="222.0" y="-84.0"/>
      <point x="138.0" y="-314.0" type="curve" smooth="yes"/>
      <point x="132.0" y="-330.0"/>
      <point x="128.0" y="-344.0"/>
      <point x="124.0" y="-360.0" type="curve" smooth="yes"/>
      <point x="100.0" y="-446.0"/>
      <point x="142.0" y="-500.0"/>
      <point x="222.0" y="-500.0" type="curve" smooth="yes"/>
      <point x="304.0" y="-500.0"/>
      <point x="366.0" y="-446.0"/>
      <point x="388.0" y="-366.0" type="curve" smooth="yes"/>
      <point x="392.0" y="-348.0"/>
      <point x="398.0" y="-330.0"/>
      <point x="402.0" y="-308.0" type="curve" smooth="yes"/>
      <point x="450.0" y="-80.0"/>
      <point x="498.0" y="336.0"/>
      <point x="548.0" y="526.0" type="curve" smooth="yes"/>
      <point x="588.0" y="668.0"/>
      <point x="766.0" y="1136.0"/>
      <point x="840.0" y="1360.0" type="curve" smooth="yes"/>
      <point x="850.0" y="1388.0"/>
      <point x="850.0" y="1390.0"/>
      <point x="852.0" y="1394.0" type="curve" smooth="yes"/>
      <point x="872.0" y="1470.0"/>
      <point x="840.0" y="1530.0"/>
      <point x="760.0" y="1530.0" type="curve" smooth="yes"/>
      <point x="684.0" y="1530.0"/>
      <point x="618.0" y="1478.0"/>
      <point x="594.0" y="1390.0" type="curve" smooth="yes"/>
      <point x="592.0" y="1382.0"/>
      <point x="590.0" y="1372.0"/>
    </contour>
  </outline>
</glyph>
<glyph name="asciitilde" format="2">
  <advance width="1016"/>
  <unicode hex="007E"/>
  <outline>
    <contour>
      <point x="271.875" y="452.0400000000002" type="curve" smooth="yes"/>
      <point x="328.125" y="621.4400000000003"/>
      <point x="496.875" y="747.2800000000002"/>
      <point x="709.375" y="747.2800000000002" type="curve" smooth="yes"/>
      <point x="856.25" y="747.2800000000002"/>
      <point x="931.25" y="720.6600000000003"/>
      <point x="1003.125" y="660.1600000000003" type="curve" smooth="yes"/>
      <point x="1068.75" y="604.5000000000002"/>
      <point x="1109.375" y="587.5600000000002"/>
      <point x="1162.5" y="587.5600000000002" type="curve" smooth="yes"/>
      <point x="1221.875" y="587.5600000000002"/>
      <point x="1265.625" y="611.7600000000002"/>
      <point x="1284.375" y="660.1600000000003" type="curve" smooth="yes"/>
      <point x="1303.125" y="718.2400000000002"/>
      <point x="1350.0" y="747.2800000000002"/>
      <point x="1412.5" y="747.2800000000002" type="curve" smooth="yes"/>
      <point x="1465.625" y="747.2800000000002"/>
      <point x="1509.375" y="725.5000000000002"/>
      <point x="1478.125" y="638.3800000000003" type="curve" smooth="yes"/>
      <point x="1415.625" y="456.8800000000001"/>
      <point x="1231.25" y="369.7600000000002"/>
      <point x="1037.5" y="369.7600000000002" type="curve" smooth="yes"/>
      <point x="906.25" y="369.7600000000002"/>
      <point x="825.0" y="386.7000000000003"/>
      <point x="746.875" y="449.6200000000001" type="curve" smooth="yes"/>
      <point x="665.625" y="512.5400000000002"/>
      <point x="631.25" y="529.4800000000002"/>
      <point x="587.5" y="529.4800000000002" type="curve" smooth="yes"/>
      <point x="534.375" y="529.4800000000002"/>
      <point x="496.875" y="500.4400000000003"/>
      <point x="475.0" y="437.5200000000002" type="curve" smooth="yes"/>
      <point x="456.25" y="384.2800000000002"/>
      <point x="400.0" y="357.6600000000001"/>
      <point x="340.625" y="357.6600000000001" type="curve" smooth="yes"/>
      <point x="290.625" y="357.6600000000001"/>
      <point x="243.75" y="377.0200000000002"/>
    </contour>
    <contour>
      <point x="271.875" y="452.0400000000002" type="curve" smooth="yes"/>
      <point x="328.125" y="621.4400000000003"/>
      <point x="496.875" y="747.2800000000002"/>
      <point x="709.375" y="747.2800000000002" type="curve" smooth="yes"/>
      <point x="856.25" y="747.2800000000002"/>
      <point x="931.25" y="720.6600000000003"/>
      <point x="1003.125" y="660.1600000000003" type="curve" smooth="yes"/>
      <point x="1068.75" y="604.5000000000002"/>
      <point x="1109.375" y="587.5600000000002"/>
      <point x="1162.5" y="587.5600000000002" type="curve" smooth="yes"/>
      <point x="1221.875" y="587.5600000000002"/>
      <point x="1265.625" y="611.7600000000002"/>
      <point x="1284.375" y="660.1600000000003" type="curve" smooth="yes"/>
      <point x="1303.125" y="718.2400000000002"/>
      <point x="1350.0" y="747.2800000000002"/>
      <point x="1412.5" y="747.2800000000002" type="curve" smooth="yes"/>
      <point x="1465.625" y="747.2800000000002"/>
      <point x="1509.375" y="725.5000000000002"/>
      <point x="1478.125" y="638.3800000000003" type="curve" smooth="yes"/>
      <point x="1415.625" y="456.8800000000001"/>
      <point x="1231.25" y="369.7600000000002"/>
      <point x="1037.5" y="369.7600000000002" type="curve" smooth="yes"/>
      <point x="906.25" y="369.7600000000002"/>
      <point x="825.0" y="386.7000000000003"/>
      <point x="746.875" y="449.6200000000001" type="curve" smooth="yes"/>
      <point x="665.625" y="512.5400000000002"/>
      <point x="631.25" y="529.4800000000002"/>
      <point x="587.5" y="529.4800000000002" type="curve" smooth="yes"/>
      <point x="534.375" y="529.4800000000002"/>
      <point x="496.875" y="500.4400000000003"/>
      <point x="475.0" y="437.5200000000002" type="curve" smooth="yes"/>
      <point x="456.25" y="384.2800000000002"/>
      <point x="400.0" y="357.6600000000001"/>
      <point x="340.625" y="357.6600000000001" type="curve" smooth="yes"/>
      <point x="290.625" y="357.6600000000001"/>
      <point x="243.75" y="377.0200000000002"/>
    </contour>
    <contour>
      <point x="271.875" y="452.0400000000002" type="curve" smooth="yes"/>
      <point x="328.125" y="621.4400000000003"/>
      <point x="496.875" y="747.2800000000002"/>
      <point x="709.375" y="747.2800000000002" type="curve" smooth="yes"/>
      <point x="856.25" y="747.2800000000002"/>
      <point x="931.25" y="720.6600000000003"/>
      <point x="1003.125" y="660.1600000000003" type="curve" smooth="yes"/>
      <point x="1068.75" y="604.5000000000002"/>
      <point x="1109.375" y="587.5600000000002"/>
      <point x="1162.5" y="587.5600000000002" type="curve" smooth="yes"/>
      <point x="1221.875" y="587.5600000000002"/>
      <point x="1265.625" y="611.7600000000002"/>
      <point x="1284.375" y="660.1600000000003" type="curve" smooth="yes"/>
      <point x="1303.125" y="718.2400000000002"/>
      <point x="1350.0" y="747.2800000000002"/>
      <point x="1412.5" y="747.2800000000002" type="curve" smooth="yes"/>
      <point x="1465.625" y="747.2800000000002"/>
      <point x="1509.375" y="725.5000000000002"/>
      <point x="1478.125" y="638.3800000000003" type="curve" smooth="yes"/>
      <point x="1415.625" y="456.8800000000001"/>
      <point x="1231.25" y="369.7600000000002"/>
      <point x="1037.5" y="369.7600000000002" type="curve" smooth="yes"/>
      <point x="906.25" y="369.7600000000002"/>
      <point x="825.0" y="386.7000000000003"/>
      <point x="746.875" y="449.6200000000001" type="curve" smooth="yes"/>
      <point x="665.625" y="512.5400000000002"/>
      <point x="631.25" y="529.4800000000002"/>
      <point x="587.5" y="529.4800000000002" type="curve" smooth="yes"/>
      <point x="534.375" y="529.4800000000002"/>
      <point x="496.875" y="500.4400000000003"/>
      <point x="475.0" y="437.5200000000002" type="curve" smooth="yes"/>
      <point x="456.25" y="384.2800000000002"/>
      <point x="400.0" y="357.6600000000001"/>
      <point x="340.625" y="357.6600000000001" type="curve" smooth="yes"/>
      <point x="290.625" y="357.6600000000001"/>
      <point x="243.75" y="377.0200000000002"/>
    </contour>
    <contour>
      <point x="271.875" y="452.0400000000002" type="curve" smooth="yes"/>
      <point x="328.125" y="621.4400000000003"/>
      <point x="496.875" y="747.2800000000002"/>
      <point x="709.375" y="747.2800000000002" type="curve" smooth="yes"/>
      <point x="856.25" y="747.2800000000002"/>
      <point x="931.25" y="720.6600000000003"/>
      <point x="1003.125" y="660.1600000000003" type="curve" smooth="yes"/>
      <point x="1068.75" y="604.5000000000002"/>
      <point x="1109.375" y="587.5600000000002"/>
      <point x="1162.5" y="587.5600000000002" type="curve" smooth="yes"/>
      <point x="1221.875" y="587.5600000000002"/>
      <point x="1265.625" y="611.7600000000002"/>
      <point x="1284.375" y="660.1600000000003" type="curve" smooth="yes"/>
      <point x="1303.125" y="718.2400000000002"/>
      <point x="1350.0" y="747.2800000000002"/>
      <point x="1412.5" y="747.2800000000002" type="curve" smooth="yes"/>
      <point x="1465.625" y="747.2800000000002"/>
      <point x="1509.375" y="725.5000000000002"/>
      <point x="1478.125" y="638.3800000000003" type="curve" smooth="yes"/>
      <point x="1415.625" y="456.8800000000001"/>
      <point x="1231.25" y="369.7600000000002"/>
      <point x="1037.5" y="369.7600000000002" type="curve" smooth="yes"/>
      <point x="906.25" y="369.7600000000002"/>
      <point x="825.0" y="386.7000000000003"/>
      <point x="746.875" y="449.6200000000001" type="curve" smooth="yes"/>
      <point x="665.625" y="512.5400000000002"/>
      <point x="631.25" y="529.4800000000002"/>
      <point x="587.5" y="529.4800000000002" type="curve" smooth="yes"/>
      <point x="534.375" y="529.4800000000002"/>
      <point x="496.875" y="500.4400000000003"/>
      <point x="475.0" y="437.5200000000002" type="curve" smooth="yes"/>
      <point x="456.25" y="384.2800000000002"/>
      <point x="400.0" y="357.6600000000001"/>
      <point x="340.625" y="357.6600000000001" type="curve" smooth="yes"/>
      <point x="290.625" y="357.6600000000001"/>
      <point x="243.75" y="377.0200000000002"/>
    </contour>
  </outline>
</glyph>
<glyph name="exclamdown" format="2">
  <advance width="526"/>
  <unicode hex="00A1"/>
  <outline>
    <contour>
      <point x="352.0" y="-406.0"/>
      <point x="268.0" y="-478.0"/>
      <point x="162.0" y="-478.0" type="curve" smooth="yes"/>
      <point x="68.0" y="-478.0"/>
      <point x="6.0" y="-402.0"/>
      <point x="6.0" y="-310.0" type="curve" smooth="yes"/>
      <point x="6.0" y="-286.0"/>
      <point x="6.0" y="-268.0"/>
      <point x="28.0" y="-220.0" type="curve" smooth="yes"/>
      <point x="314.0" y="438.0" type="line" smooth="yes"/>
      <point x="346.0" y="510.0"/>
      <point x="380.0" y="534.0"/>
      <point x="424.0" y="534.0" type="curve" smooth="yes"/>
      <point x="468.0" y="534.0"/>
      <point x="490.0" y="496.0"/>
      <point x="482.0" y="432.0" type="curve" smooth="yes"/>
      <point x="400.0" y="-242.0" type="line" smooth="yes"/>
      <point x="396.0" y="-268.0"/>
      <point x="392.0" y="-286.0"/>
      <point x="386.0" y="-304.0" type="curve" smooth="yes"/>
    </contour>
    <contour>
      <point x="555.832" y="983.99" type="curve" smooth="yes"/>
      <point x="425.95034532374103" y="983.99"/>
      <point x="315.11800000000005" y="877.0625454545454"/>
      <point x="315.11800000000005" y="756.338" type="curve" smooth="yes"/>
      <point x="315.11800000000005" y="678.1495409836066"/>
      <point x="376.96257142857144" y="623.8520000000001"/>
      <point x="464.398" y="623.8520000000001" type="curve" smooth="yes"/>
      <point x="603.0151428571428" y="623.8520000000001"/>
      <point x="706.9780000000001" y="739.3303358778626"/>
      <point x="706.9780000000001" y="849.638" type="curve" smooth="yes"/>
      <point x="706.9780000000001" y="927.6488387096774"/>
      <point x="643.1134929577465" y="983.99"/>
    </contour>
  </outline>
</glyph>
<glyph name="brokenbar" format="2">
  <advance width="692"/>
  <unicode hex="00A6"/>
  <outline>
    <contour>
      <point x="112.0" y="-330.0" type="curve" smooth="yes"/>
      <point x="82.0" y="-442.0"/>
      <point x="140.0" y="-490.0"/>
      <point x="214.0" y="-490.0" type="curve" smooth="yes"/>
      <point x="290.0" y="-490.0"/>
      <point x="374.0" y="-442.0"/>
      <point x="404.0" y="-330.0" type="curve" smooth="yes"/>
      <point x="426.0" y="-242.0"/>
      <point x="386.0" y="-148.0"/>
      <point x="512.0" y="318.0" type="curve" smooth="yes"/>
      <point x="530.0" y="386.0"/>
      <point x="512.0" y="414.0"/>
      <point x="456.0" y="414.0" type="curve" smooth="yes"/>
      <point x="400.0" y="414.0"/>
      <point x="370.0" y="386.0"/>
      <point x="352.0" y="318.0" type="curve" smooth="yes"/>
      <point x="226.0" y="-148.0"/>
      <point x="134.0" y="-242.0"/>
    </contour>
    <contour>
      <point x="568.0" y="1372.0" type="curve" smooth="yes"/>
      <point x="544.0" y="1286.0"/>
      <point x="584.0" y="1190.0"/>
      <point x="460.0" y="724.0" type="curve" smooth="yes"/>
      <point x="442.0" y="656.0"/>
      <point x="458.0" y="628.0"/>
      <point x="514.0" y="628.0" type="curve" smooth="yes"/>
      <point x="570.0" y="628.0"/>
      <point x="602.0" y="656.0"/>
      <point x="620.0" y="724.0" type="curve" smooth="yes"/>
      <point x="744.0" y="1190.0"/>
      <point x="836.0" y="1286.0"/>
      <point x="860.0" y="1372.0" type="curve" smooth="yes"/>
      <point x="890.0" y="1484.0"/>
      <point x="844.0" y="1532.0"/>
      <point x="756.0" y="1532.0" type="curve" smooth="yes"/>
      <point x="672.0" y="1532.0"/>
      <point x="598.0" y="1484.0"/>
    </contour>
  </outline>
</glyph>
<glyph name="section" format="2">
  <advance width="1064"/>
  <unicode hex="00A7"/>
  <outline>
    <contour>
      <point x="788.0" y="70.0" type="line"/>
      <point x="978.0" y="142.0"/>
      <point x="1096.0" y="282.0"/>
      <point x="1096.0" y="440.0" type="curve" smooth="yes"/>
      <point x="1096.0" y="590.0"/>
      <point x="1020.0" y="690.0"/>
      <point x="856.0" y="796.0" type="curve" smooth="yes"/>
      <point x="714.0" y="886.0"/>
      <point x="638.0" y="974.0"/>
      <point x="638.0" y="1086.0" type="curve" smooth="yes"/>
      <point x="638.0" y="1192.0"/>
      <point x="738.0" y="1290.0"/>
      <point x="864.0" y="1290.0" type="curve" smooth="yes"/>
      <point x="942.0" y="1290.0"/>
      <point x="988.0" y="1248.0"/>
      <point x="1010.0" y="1170.0" type="curve" smooth="yes"/>
      <point x="1036.0" y="1074.0" type="line" smooth="yes"/>
      <point x="1060.0" y="986.0"/>
      <point x="1110.0" y="964.0"/>
      <point x="1180.0" y="964.0" type="curve" smooth="yes"/>
      <point x="1264.0" y="964.0"/>
      <point x="1320.0" y="1034.0"/>
      <point x="1320.0" y="1138.0" type="curve" smooth="yes"/>
      <point x="1320.0" y="1286.0"/>
      <point x="1182.0" y="1426.0"/>
      <point x="922.0" y="1426.0" type="curve" smooth="yes"/>
      <point x="576.0" y="1426.0"/>
      <point x="380.0" y="1226.0"/>
      <point x="380.0" y="1006.0" type="curve" smooth="yes"/>
      <point x="380.0" y="852.0"/>
      <point x="456.0" y="736.0"/>
      <point x="630.0" y="620.0" type="curve" smooth="yes"/>
      <point x="766.0" y="526.0"/>
      <point x="832.0" y="456.0"/>
      <point x="832.0" y="352.0" type="curve" smooth="yes"/>
      <point x="832.0" y="268.0"/>
      <point x="780.0" y="196.0"/>
      <point x="704.0" y="172.0" type="curve"/>
    </contour>
    <contour>
      <point x="458.0" y="-348.0" type="curve" smooth="yes"/>
      <point x="390.0" y="-348.0"/>
      <point x="334.0" y="-308.0"/>
      <point x="310.0" y="-226.0" type="curve" smooth="yes"/>
      <point x="292.0" y="-162.0" type="line" smooth="yes"/>
      <point x="264.0" y="-64.0"/>
      <point x="212.0" y="-24.0"/>
      <point x="140.0" y="-24.0" type="curve" smooth="yes"/>
      <point x="60.0" y="-24.0"/>
      <point x="-4.0" y="-88.0"/>
      <point x="-4.0" y="-200.0" type="curve" smooth="yes"/>
      <point x="-4.0" y="-356.0"/>
      <point x="140.0" y="-488.0"/>
      <point x="396.0" y="-488.0" type="curve" smooth="yes"/>
      <point x="716.0" y="-488.0"/>
      <point x="926.0" y="-318.0"/>
      <point x="926.0" y="-84.0" type="curve" smooth="yes"/>
      <point x="926.0" y="80.0"/>
      <point x="836.0" y="176.0"/>
      <point x="656.0" y="300.0" type="curve" smooth="yes"/>
      <point x="516.0" y="398.0"/>
      <point x="454.0" y="464.0"/>
      <point x="454.0" y="568.0" type="curve" smooth="yes"/>
      <point x="454.0" y="650.0"/>
      <point x="514.0" y="724.0"/>
      <point x="596.0" y="748.0" type="curve"/>
      <point x="518.0" y="844.0" type="line"/>
      <point x="328.0" y="770.0"/>
      <point x="210.0" y="622.0"/>
      <point x="210.0" y="460.0" type="curve" smooth="yes"/>
      <point x="210.0" y="310.0"/>
      <point x="292.0" y="216.0"/>
      <point x="450.0" y="104.0" type="curve" smooth="yes"/>
      <point x="600.0" y="-2.0"/>
      <point x="652.0" y="-70.0"/>
      <point x="652.0" y="-176.0" type="curve" smooth="yes"/>
      <point x="652.0" y="-276.0"/>
      <point x="564.0" y="-348.0"/>
    </contour>
  </outline>
</glyph>
<glyph name="dieresis" format="2">
  <advance width="884"/>
  <unicode hex="00A8"/>
  <outline>
    <contour>
      <point x="521.2800000000001" y="1061.5990000000002" type="curve" smooth="yes"/>
      <point x="638.5432835820897" y="1061.5990000000002"/>
      <point x="739.5200000000001" y="1153.4372500000002"/>
      <point x="739.5200000000001" y="1256.0800000000002" type="curve" smooth="yes"/>
      <point x="739.5200000000001" y="1343.0926923076922"/>
      <point x="679.7726315789475" y="1404.9175"/>
      <point x="588.1600000000001" y="1404.9175" type="curve" smooth="yes"/>
      <point x="464.4571428571429" y="1404.9175"/>
      <point x="371.68000000000006" y="1305.783532110092"/>
      <point x="371.68000000000006" y="1208.452" type="curve" smooth="yes"/>
      <point x="371.68000000000006" y="1116.668875"/>
      <point x="429.5253333333334" y="1061.5990000000002"/>
    </contour>
    <contour>
      <point x="955.2800000000001" y="1061.5990000000002" type="curve" smooth="yes"/>
      <point x="1072.5432835820898" y="1061.5990000000002"/>
      <point x="1173.52" y="1153.4372500000002"/>
      <point x="1173.52" y="1256.0800000000002" type="curve" smooth="yes"/>
      <point x="1173.52" y="1343.0926923076922"/>
      <point x="1113.7726315789475" y="1404.9175"/>
      <point x="1022.1600000000001" y="1404.9175" type="curve" smooth="yes"/>
      <point x="898.4571428571429" y="1404.9175"/>
      <point x="805.6800000000001" y="1305.783532110092"/>
      <point x="805.6800000000001" y="1208.452" type="curve" smooth="yes"/>
      <point x="805.6800000000001" y="1116.668875"/>
      <point x="863.5253333333334" y="1061.5990000000002"/>
    </contour>
  </outline>
</glyph>
<glyph name="ordfeminine" format="2">
  <advance width="986"/>
  <unicode hex="00AA"/>
  <outline>
    <contour>
      <point x="1006.6919963122983" y="835.5268390043205" type="curve" smooth="yes"/>
      <point x="1006.6919963122983" y="872.6052868420617"/>
      <point x="1033.9793621259928" y="976.8962731538595"/>
      <point x="1055.5681320984118" y="1076.5367499496379" type="curve" smooth="yes"/>
      <point x="1067.365820046784" y="1133.839805698874"/>
      <point x="1094.3319639287774" y="1167.5474855513662"/>
      <point x="1121.298107810771" y="1196.199013425984" type="curve" smooth="yes"/>
      <point x="1146.5788677001397" y="1223.1651573079778"/>
      <point x="1170.174243596884" y="1253.5020691752206"/>
      <point x="1170.174243596884" y="1292.2659010055863" type="curve" smooth="yes"/>
      <point x="1170.174243596884" y="1388.3327885851882"/>
      <point x="1085.9050439656544" y="1433.8381563860523"/>
      <point x="915.6812607105701" y="1433.8381563860523" type="curve" smooth="yes"/>
      <point x="562.7046131986262" y="1433.8381563860523"/>
      <point x="292.08918343946937" y="1084.963669912761"/>
      <point x="292.08918343946937" y="803.5045431444532" type="curve" smooth="yes"/>
      <point x="292.08918343946937" y="646.7638318303657"/>
      <point x="374.67299907807455" y="582.7192401106311"/>
      <point x="487.59372658392255" y="582.7192401106311" type="curve" smooth="yes"/>
      <point x="617.3682940160165" y="582.7192401106311"/>
      <point x="752.1990134259842" y="672.0445917197346"/>
      <point x="887.0297328359519" y="936.6498785617964" type="curve"/>
      <point x="828.0412930940911" y="948.4475665101685" type="line"/>
      <point x="833.0974450719649" y="854.0660629231911"/>
      <point x="794.3336132415991" y="768.1114792993367"/>
      <point x="794.3336132415991" y="700.6961195943528" type="curve" smooth="yes"/>
      <point x="794.3336132415991" y="633.2807598893689"/>
      <point x="848.2659010055862" y="581.0338561180065"/>
      <point x="930.8497166441914" y="581.0338561180065" type="curve" smooth="yes"/>
      <point x="1062.30966806891" y="581.0338561180065"/>
      <point x="1151.6350196780136" y="678.7861276902331"/>
      <point x="1151.6350196780136" y="771.4822472845858" type="curve" smooth="yes"/>
      <point x="1151.6350196780136" y="816.98761508545"/>
      <point x="1136.4665637443923" y="835.5268390043205"/>
      <point x="1116.241955832897" y="835.5268390043205" type="curve" smooth="yes"/>
      <point x="1097.7027319140266" y="835.5268390043205"/>
      <point x="1089.2758119509035" y="827.0999190411976"/>
      <point x="1079.163507995156" y="816.98761508545" type="curve" smooth="yes"/>
      <point x="1069.0512040394083" y="806.8753111297024"/>
      <point x="1058.9389000836609" y="796.7630071739547"/>
      <point x="1037.028908179541" y="796.7630071739547" type="curve" smooth="yes"/>
      <point x="1015.1189162754213" y="796.7630071739547"/>
      <point x="1006.6919963122983" y="815.3022310928254"/>
    </contour>
    <contour>
      <point x="514.5598704659161" y="902.9421987093044" type="curve" smooth="yes"/>
      <point x="514.5598704659161" y="1093.390589875884"/>
      <point x="633.4880096264567" y="1261.9289891383435"/>
      <point x="787.5920772711007" y="1261.9289891383435" type="curve" smooth="yes"/>
      <point x="843.2097490277124" y="1261.9289891383435"/>
      <point x="873.5466608949552" y="1229.9066932784763"/>
      <point x="873.5466608949552" y="1157.4351815956184" type="curve" smooth="yes"/>
      <point x="873.5466608949552" y="1000.4299481302222"/>
      <point x="735.3451734997383" y="784.9653192255827"/>
      <point x="615.682910023392" y="784.9653192255827" type="curve" smooth="yes"/>
      <point x="558.3798542741556" y="784.9653192255827"/>
      <point x="514.5598704659161" y="830.4706870264467"/>
    </contour>
  </outline>
</glyph>
<glyph name="logicalnot" format="2">
  <advance width="1096"/>
  <unicode hex="00AC"/>
  <outline>
    <contour>
      <point x="914.0" y="268.0" type="curve" smooth="yes"/>
      <point x="974.0" y="268.0"/>
      <point x="1024.0" y="304.0"/>
      <point x="1046.0" y="386.0" type="curve" smooth="yes"/>
      <point x="1132.0" y="704.0" type="line" smooth="yes"/>
      <point x="1154.0" y="784.0"/>
      <point x="1124.0" y="820.0"/>
      <point x="1062.0" y="820.0" type="curve" smooth="yes"/>
      <point x="1000.0" y="820.0"/>
      <point x="942.0" y="780.0"/>
      <point x="922.0" y="704.0" type="curve" smooth="yes"/>
      <point x="838.0" y="388.0" type="line" smooth="yes"/>
      <point x="818.0" y="310.0"/>
      <point x="848.0" y="268.0"/>
    </contour>
    <contour>
      <point x="260.0" y="724.0" type="curve" smooth="yes"/>
      <point x="244.0" y="666.0"/>
      <point x="284.0" y="620.0"/>
      <point x="344.0" y="620.0" type="curve" smooth="yes"/>
      <point x="458.0" y="620.0"/>
      <point x="596.0" y="638.0"/>
      <point x="680.0" y="638.0" type="curve" smooth="yes"/>
      <point x="766.0" y="638.0"/>
      <point x="890.0" y="620.0"/>
      <point x="996.0" y="620.0" type="curve" smooth="yes"/>
      <point x="1064.0" y="620.0"/>
      <point x="1120.0" y="666.0"/>
      <point x="1136.0" y="724.0" type="curve" smooth="yes"/>
      <point x="1152.0" y="784.0"/>
      <point x="1118.0" y="832.0"/>
      <point x="1052.0" y="832.0" type="curve" smooth="yes"/>
      <point x="946.0" y="832.0"/>
      <point x="814.0" y="814.0"/>
      <point x="728.0" y="814.0" type="curve" smooth="yes"/>
      <point x="630.0" y="814.0"/>
      <point x="514.0" y="832.0"/>
      <point x="402.0" y="832.0" type="curve" smooth="yes"/>
      <point x="348.0" y="832.0"/>
      <point x="276.0" y="784.0"/>
    </contour>
  </outline>
</glyph>
<glyph name="hyphensoft" format="2">
  <advance width="788"/>
  <unicode hex="00AD"/>
  <outline>
    <contour>
      <point x="818.0" y="594.0" type="curve" smooth="yes"/>
      <point x="328.0" y="594.0" type="line" smooth="yes"/>
      <point x="272.0" y="594.0"/>
      <point x="242.0" y="574.0"/>
      <point x="218.0" y="520.0" type="curve" smooth="yes"/>
      <point x="202.0" y="486.0" type="line" smooth="yes"/>
      <point x="194.0" y="466.0"/>
      <point x="190.0" y="454.0"/>
      <point x="190.0" y="442.0" type="curve" smooth="yes"/>
      <point x="190.0" y="402.0"/>
      <point x="224.0" y="378.0"/>
      <point x="266.0" y="378.0" type="curve" smooth="yes"/>
      <point x="754.0" y="378.0" type="line" smooth="yes"/>
      <point x="812.0" y="378.0"/>
      <point x="842.0" y="400.0"/>
      <point x="866.0" y="454.0" type="curve" smooth="yes"/>
      <point x="880.0" y="486.0" type="line" smooth="yes"/>
      <point x="890.0" y="508.0"/>
      <point x="892.0" y="520.0"/>
      <point x="892.0" y="532.0" type="curve" smooth="yes"/>
      <point x="892.0" y="570.0"/>
      <point x="860.0" y="594.0"/>
    </contour>
  </outline>
</glyph>
<glyph name="registered" format="2">
  <advance width="1110"/>
  <unicode hex="00AE"/>
  <outline>
    <contour>
      <point x="650.0" y="362.0" type="curve" smooth="yes"/>
      <point x="368.0" y="362.0"/>
      <point x="228.0" y="572.0"/>
      <point x="302.0" y="854.0" type="curve" smooth="yes"/>
      <point x="378.0" y="1132.0"/>
      <point x="632.0" y="1330.0"/>
      <point x="910.0" y="1330.0" type="curve" smooth="yes"/>
      <point x="1188.0" y="1330.0"/>
      <point x="1340.0" y="1132.0"/>
      <point x="1264.0" y="854.0" type="curve" smooth="yes"/>
      <point x="1190.0" y="572.0"/>
      <point x="932.0" y="362.0"/>
    </contour>
    <contour>
      <point x="672.0" y="442.0" type="curve" smooth="yes"/>
      <point x="908.0" y="442.0"/>
      <point x="1122.0" y="618.0"/>
      <point x="1184.0" y="854.0" type="curve" smooth="yes"/>
      <point x="1246.0" y="1084.0"/>
      <point x="1118.0" y="1250.0"/>
      <point x="888.0" y="1250.0" type="curve" smooth="yes"/>
      <point x="656.0" y="1250.0"/>
      <point x="444.0" y="1086.0"/>
      <point x="382.0" y="854.0" type="curve" smooth="yes"/>
      <point x="320.0" y="618.0"/>
      <point x="436.0" y="442.0"/>
    </contour>
    <contour>
      <point x="1058.0" y="936.0" type="curve" smooth="yes"/>
      <point x="1090.0" y="1054.0"/>
      <point x="990.0" y="1130.0"/>
      <point x="830.0" y="1130.0" type="curve" smooth="yes"/>
      <point x="624.0" y="1130.0" type="line" smooth="yes"/>
      <point x="606.0" y="1130.0"/>
      <point x="594.0" y="1118.0"/>
      <point x="588.0" y="1100.0" type="curve" smooth="yes"/>
      <point x="584.0" y="1084.0"/>
      <point x="590.0" y="1074.0"/>
      <point x="606.0" y="1070.0" type="curve" smooth="yes"/>
      <point x="624.0" y="1066.0" type="line" smooth="yes"/>
      <point x="642.0" y="1062.0"/>
      <point x="648.0" y="1048.0"/>
      <point x="644.0" y="1030.0" type="curve" smooth="yes"/>
      <point x="550.0" y="682.0" type="line" smooth="yes"/>
      <point x="546.0" y="664.0"/>
      <point x="534.0" y="654.0"/>
      <point x="512.0" y="648.0" type="curve" smooth="yes"/>
      <point x="492.0" y="642.0" type="line" smooth="yes"/>
      <point x="472.0" y="636.0"/>
      <point x="462.0" y="628.0"/>
      <point x="458.0" y="612.0" type="curve" smooth="yes"/>
      <point x="454.0" y="594.0"/>
      <point x="460.0" y="584.0"/>
      <point x="478.0" y="584.0" type="curve" smooth="yes"/>
      <point x="702.0" y="584.0" type="line" smooth="yes"/>
      <point x="720.0" y="584.0"/>
      <point x="732.0" y="594.0"/>
      <point x="736.0" y="612.0" type="curve" smooth="yes"/>
      <point x="740.0" y="626.0"/>
      <point x="734.0" y="636.0"/>
      <point x="722.0" y="640.0" type="curve" smooth="yes"/>
      <point x="702.0" y="648.0" type="line" smooth="yes"/>
      <point x="690.0" y="652.0"/>
      <point x="686.0" y="662.0"/>
      <point x="690.0" y="682.0" type="curve" smooth="yes"/>
      <point x="792.0" y="1062.0" type="line"/>
      <point x="808.0" y="1062.0" type="line" smooth="yes"/>
      <point x="884.0" y="1062.0"/>
      <point x="924.0" y="1012.0"/>
      <point x="904.0" y="940.0" type="curve" smooth="yes"/>
      <point x="888.0" y="880.0"/>
      <point x="834.0" y="836.0"/>
      <point x="772.0" y="836.0" type="curve" smooth="yes"/>
      <point x="730.0" y="836.0"/>
      <point x="708.0" y="842.0"/>
      <point x="682.0" y="858.0" type="curve"/>
      <point x="656.0" y="794.0" type="line"/>
      <point x="690.0" y="776.0"/>
      <point x="718.0" y="766.0"/>
      <point x="782.0" y="766.0" type="curve" smooth="yes"/>
      <point x="920.0" y="766.0"/>
      <point x="1032.0" y="834.0"/>
    </contour>
    <contour>
      <point x="756.0" y="796.0" type="line"/>
      <point x="808.0" y="680.0" type="line" smooth="yes"/>
      <point x="812.0" y="672.0"/>
      <point x="814.0" y="666.0"/>
      <point x="812.0" y="656.0" type="curve" smooth="yes"/>
      <point x="810.0" y="650.0"/>
      <point x="806.0" y="644.0"/>
      <point x="796.0" y="640.0" type="curve" smooth="yes"/>
      <point x="782.0" y="636.0"/>
      <point x="774.0" y="626.0"/>
      <point x="770.0" y="610.0" type="curve" smooth="yes"/>
      <point x="766.0" y="594.0"/>
      <point x="772.0" y="584.0"/>
      <point x="792.0" y="584.0" type="curve" smooth="yes"/>
      <point x="972.0" y="584.0" type="line" smooth="yes"/>
      <point x="990.0" y="584.0"/>
      <point x="1002.0" y="594.0"/>
      <point x="1006.0" y="612.0" type="curve" smooth="yes"/>
      <point x="1010.0" y="626.0"/>
      <point x="1004.0" y="634.0"/>
      <point x="996.0" y="640.0" type="curve" smooth="yes"/>
      <point x="978.0" y="652.0"/>
      <point x="964.0" y="658.0"/>
      <point x="958.0" y="676.0" type="curve" smooth="yes"/>
      <point x="904.0" y="804.0" type="line"/>
    </contour>
  </outline>
</glyph>
<glyph name="macron" format="2">
  <advance width="790"/>
  <unicode hex="00AF"/>
  <outline>
    <contour>
      <point x="362.0" y="1124.0" type="curve" smooth="yes"/>
      <point x="348.0" y="1072.0"/>
      <point x="370.0" y="1038.0"/>
      <point x="422.0" y="1038.0" type="curve" smooth="yes"/>
      <point x="922.0" y="1038.0" type="line" smooth="yes"/>
      <point x="974.0" y="1038.0"/>
      <point x="1018.0" y="1072.0"/>
      <point x="1032.0" y="1124.0" type="curve" smooth="yes"/>
      <point x="1046.0" y="1178.0"/>
      <point x="1020.0" y="1214.0"/>
      <point x="970.0" y="1214.0" type="curve" smooth="yes"/>
      <point x="472.0" y="1214.0" type="line" smooth="yes"/>
      <point x="422.0" y="1214.0"/>
      <point x="376.0" y="1178.0"/>
    </contour>
    <contour>
      <point x="362.0" y="1124.0" type="curve" smooth="yes"/>
      <point x="348.0" y="1072.0"/>
      <point x="370.0" y="1038.0"/>
      <point x="422.0" y="1038.0" type="curve" smooth="yes"/>
      <point x="922.0" y="1038.0" type="line" smooth="yes"/>
      <point x="974.0" y="1038.0"/>
      <point x="1018.0" y="1072.0"/>
      <point x="1032.0" y="1124.0" type="curve" smooth="yes"/>
      <point x="1046.0" y="1178.0"/>
      <point x="1020.0" y="1214.0"/>
      <point x="970.0" y="1214.0" type="curve" smooth="yes"/>
      <point x="472.0" y="1214.0" type="line" smooth="yes"/>
      <point x="422.0" y="1214.0"/>
      <point x="376.0" y="1178.0"/>
    </contour>
  </outline>
</glyph>
<glyph name="plusminus" format="2">
  <advance width="996"/>
  <unicode hex="00B1"/>
  <outline>
    <contour>
      <point x="290.0" y="864.0" type="curve" smooth="yes"/>
      <point x="274.0" y="806.0"/>
      <point x="316.0" y="760.0"/>
      <point x="374.0" y="760.0" type="curve" smooth="yes"/>
      <point x="488.0" y="760.0"/>
      <point x="630.0" y="788.0"/>
      <point x="714.0" y="788.0" type="curve" smooth="yes"/>
      <point x="800.0" y="788.0"/>
      <point x="920.0" y="760.0"/>
      <point x="1026.0" y="760.0" type="curve" smooth="yes"/>
      <point x="1094.0" y="760.0"/>
      <point x="1150.0" y="806.0"/>
      <point x="1166.0" y="864.0" type="curve" smooth="yes"/>
      <point x="1182.0" y="924.0"/>
      <point x="1148.0" y="972.0"/>
      <point x="1084.0" y="972.0" type="curve" smooth="yes"/>
      <point x="976.0" y="972.0"/>
      <point x="842.0" y="944.0"/>
      <point x="756.0" y="944.0" type="curve" smooth="yes"/>
      <point x="658.0" y="944.0"/>
      <point x="546.0" y="972.0"/>
      <point x="434.0" y="972.0" type="curve" smooth="yes"/>
      <point x="378.0" y="972.0"/>
      <point x="306.0" y="924.0"/>
    </contour>
    <contour>
      <point x="618.0" y="424.0" type="curve" smooth="yes"/>
      <point x="676.0" y="424.0"/>
      <point x="736.0" y="476.0"/>
      <point x="752.0" y="536.0" type="curve" smooth="yes"/>
      <point x="784.0" y="650.0"/>
      <point x="790.0" y="784.0"/>
      <point x="814.0" y="868.0" type="curve" smooth="yes"/>
      <point x="836.0" y="954.0"/>
      <point x="898.0" y="1082.0"/>
      <point x="928.0" y="1188.0" type="curve" smooth="yes"/>
      <point x="946.0" y="1256.0"/>
      <point x="912.0" y="1300.0"/>
      <point x="854.0" y="1300.0" type="curve" smooth="yes"/>
      <point x="792.0" y="1300.0"/>
      <point x="732.0" y="1254.0"/>
      <point x="716.0" y="1188.0" type="curve" smooth="yes"/>
      <point x="686.0" y="1082.0"/>
      <point x="680.0" y="954.0"/>
      <point x="658.0" y="868.0" type="curve" smooth="yes"/>
      <point x="632.0" y="770.0"/>
      <point x="572.0" y="650.0"/>
      <point x="542.0" y="538.0" type="curve" smooth="yes"/>
      <point x="526.0" y="482.0"/>
      <point x="558.0" y="424.0"/>
    </contour>
    <contour>
      <point x="112.0" y="212.0" type="curve" smooth="yes"/>
      <point x="96.0" y="154.0"/>
      <point x="136.0" y="108.0"/>
      <point x="196.0" y="108.0" type="curve" smooth="yes"/>
      <point x="310.0" y="108.0"/>
      <point x="448.0" y="126.0"/>
      <point x="532.0" y="126.0" type="curve" smooth="yes"/>
      <point x="618.0" y="126.0"/>
      <point x="742.0" y="108.0"/>
      <point x="848.0" y="108.0" type="curve" smooth="yes"/>
      <point x="916.0" y="108.0"/>
      <point x="972.0" y="154.0"/>
      <point x="988.0" y="212.0" type="curve" smooth="yes"/>
      <point x="1004.0" y="272.0"/>
      <point x="970.0" y="320.0"/>
      <point x="904.0" y="320.0" type="curve" smooth="yes"/>
      <point x="798.0" y="320.0"/>
      <point x="666.0" y="302.0"/>
      <point x="580.0" y="302.0" type="curve" smooth="yes"/>
      <point x="482.0" y="302.0"/>
      <point x="366.0" y="320.0"/>
      <point x="254.0" y="320.0" type="curve" smooth="yes"/>
      <point x="200.0" y="320.0"/>
      <point x="128.0" y="272.0"/>
    </contour>
  </outline>
</glyph>
<glyph name="twosuperior" format="2">
  <advance width="748"/>
  <unicode hex="00B2"/>
  <outline>
    <contour>
      <point x="550.0" y="940.0" type="curve" smooth="yes"/>
      <point x="370.0" y="848.0"/>
      <point x="288.0" y="766.0"/>
      <point x="264.0" y="680.0" type="curve" smooth="yes"/>
      <point x="250.0" y="630.0"/>
      <point x="270.0" y="600.0"/>
      <point x="316.0" y="600.0" type="curve" smooth="yes"/>
      <point x="370.0" y="600.0"/>
      <point x="382.0" y="658.0"/>
      <point x="434.0" y="658.0" type="curve" smooth="yes"/>
      <point x="494.0" y="658.0"/>
      <point x="556.0" y="596.0"/>
      <point x="658.0" y="596.0" type="curve" smooth="yes"/>
      <point x="770.0" y="596.0"/>
      <point x="866.0" y="690.0"/>
      <point x="896.0" y="804.0" type="curve" smooth="yes"/>
      <point x="908.0" y="852.0"/>
      <point x="902.0" y="888.0"/>
      <point x="874.0" y="888.0" type="curve" smooth="yes"/>
      <point x="854.0" y="888.0"/>
      <point x="832.0" y="876.0"/>
      <point x="812.0" y="846.0" type="curve" smooth="yes"/>
      <point x="786.0" y="806.0"/>
      <point x="758.0" y="790.0"/>
      <point x="718.0" y="790.0" type="curve" smooth="yes"/>
      <point x="676.0" y="790.0"/>
      <point x="616.0" y="800.0"/>
      <point x="578.0" y="800.0" type="curve" smooth="yes"/>
      <point x="446.0" y="800.0"/>
      <point x="376.0" y="740.0"/>
      <point x="360.0" y="678.0" type="curve"/>
      <point x="396.0" y="680.0" type="line"/>
      <point x="416.0" y="752.0"/>
      <point x="462.0" y="806.0"/>
      <point x="608.0" y="864.0" type="curve" smooth="yes"/>
      <point x="812.0" y="946.0"/>
      <point x="906.0" y="1022.0"/>
      <point x="936.0" y="1132.0" type="curve" smooth="yes"/>
      <point x="966.0" y="1250.0"/>
      <point x="898.0" y="1330.0"/>
      <point x="748.0" y="1330.0" type="curve" smooth="yes"/>
      <point x="566.0" y="1330.0"/>
      <point x="410.0" y="1216.0"/>
      <point x="378.0" y="1100.0" type="curve" smooth="yes"/>
      <point x="362.0" y="1036.0"/>
      <point x="386.0" y="1002.0"/>
      <point x="444.0" y="1002.0" type="curve" smooth="yes"/>
      <point x="500.0" y="1002.0"/>
      <point x="558.0" y="1040.0"/>
      <point x="576.0" y="1108.0" type="curve" smooth="yes"/>
      <point x="594.0" y="1170.0" type="line" smooth="yes"/>
      <point x="602.0" y="1202.0"/>
      <point x="624.0" y="1226.0"/>
      <point x="668.0" y="1226.0" type="curve" smooth="yes"/>
      <point x="714.0" y="1226.0"/>
      <point x="742.0" y="1190.0"/>
      <point x="724.0" y="1120.0" type="curve" smooth="yes"/>
      <point x="702.0" y="1040.0"/>
      <point x="650.0" y="990.0"/>
    </contour>
  </outline>
</glyph>
<glyph name="threesuperior" format="2">
  <advance width="728"/>
  <unicode hex="00B3"/>
  <outline>
    <contour>
      <point x="644.0" y="972.0" type="line"/>
      <point x="906.0" y="1186.0" type="line" smooth="yes"/>
      <point x="950.0" y="1222.0"/>
      <point x="972.0" y="1252.0"/>
      <point x="978.0" y="1274.0" type="curve" smooth="yes"/>
      <point x="986.0" y="1308.0"/>
      <point x="972.0" y="1330.0"/>
      <point x="922.0" y="1330.0" type="curve" smooth="yes"/>
      <point x="556.0" y="1330.0" type="line" smooth="yes"/>
      <point x="504.0" y="1330.0"/>
      <point x="466.0" y="1300.0"/>
      <point x="452.0" y="1258.0" type="curve" smooth="yes"/>
      <point x="398.0" y="1102.0" type="line" smooth="yes"/>
      <point x="386.0" y="1070.0"/>
      <point x="402.0" y="1046.0"/>
      <point x="428.0" y="1046.0" type="curve" smooth="yes"/>
      <point x="452.0" y="1046.0"/>
      <point x="482.0" y="1072.0"/>
      <point x="500.0" y="1098.0" type="curve" smooth="yes"/>
      <point x="516.0" y="1118.0" type="line" smooth="yes"/>
      <point x="546.0" y="1158.0"/>
      <point x="580.0" y="1174.0"/>
      <point x="628.0" y="1174.0" type="curve" smooth="yes"/>
      <point x="832.0" y="1174.0" type="line"/>
      <point x="858.0" y="1272.0" type="line"/>
      <point x="542.0" y="1010.0" type="line" smooth="yes"/>
      <point x="520.0" y="990.0"/>
      <point x="502.0" y="974.0"/>
      <point x="498.0" y="952.0" type="curve" smooth="yes"/>
      <point x="490.0" y="926.0"/>
      <point x="506.0" y="914.0"/>
      <point x="528.0" y="914.0" type="curve" smooth="yes"/>
      <point x="578.0" y="914.0" type="line" smooth="yes"/>
      <point x="650.0" y="914.0"/>
      <point x="688.0" y="870.0"/>
      <point x="664.0" y="780.0" type="curve" smooth="yes"/>
      <point x="646.0" y="718.0"/>
      <point x="600.0" y="680.0"/>
      <point x="548.0" y="680.0" type="curve" smooth="yes"/>
      <point x="494.0" y="680.0"/>
      <point x="466.0" y="710.0"/>
      <point x="478.0" y="752.0" type="curve" smooth="yes"/>
      <point x="488.0" y="792.0" type="line" smooth="yes"/>
      <point x="502.0" y="840.0"/>
      <point x="466.0" y="878.0"/>
      <point x="414.0" y="878.0" type="curve" smooth="yes"/>
      <point x="350.0" y="878.0"/>
      <point x="288.0" y="828.0"/>
      <point x="272.0" y="766.0" type="curve" smooth="yes"/>
      <point x="244.0" y="668.0"/>
      <point x="324.0" y="590.0"/>
      <point x="498.0" y="590.0" type="curve" smooth="yes"/>
      <point x="678.0" y="590.0"/>
      <point x="836.0" y="676.0"/>
      <point x="870.0" y="806.0" type="curve" smooth="yes"/>
      <point x="906.0" y="942.0"/>
      <point x="810.0" y="1008.0"/>
      <point x="628.0" y="1008.0" type="curve" smooth="yes"/>
      <point x="624.0" y="1008.0"/>
      <point x="598.0" y="1008.0"/>
      <point x="592.0" y="1008.0" type="curve"/>
    </contour>
  </outline>
</glyph>
<glyph name="acute" format="2">
  <advance width="590"/>
  <unicode hex="00B4"/>
  <outline>
    <contour>
      <point x="430" y="1154" type="curve" smooth="yes"/>
      <point x="596" y="1274" type="line" smooth="yes"/>
      <point x="683" y="1338"/>
      <point x="759" y="1376"/>
      <point x="825" y="1390" type="curve" smooth="yes"/>
      <point x="880" y="1396" type="line" smooth="yes"/>
      <point x="958" y="1404"/>
      <point x="984" y="1364"/>
      <point x="968" y="1304" type="curve" smooth="yes"/>
      <point x="954" y="1248"/>
      <point x="888" y="1198"/>
      <point x="782" y="1156" type="curve" smooth="yes"/>
      <point x="558" y="1066" type="line" smooth="yes"/>
      <point x="494" y="1040"/>
      <point x="442" y="1024"/>
      <point x="410" y="1024" type="curve" smooth="yes"/>
      <point x="372" y="1024"/>
      <point x="358" y="1046"/>
      <point x="366" y="1076" type="curve" smooth="yes"/>
      <point x="372" y="1104"/>
      <point x="400" y="1132"/>
    </contour>
  </outline>
</glyph>
<glyph name="periodcentered" format="2">
  <advance width="672"/>
  <unicode hex="00B7"/>
  <outline>
    <contour>
      <point x="448.0" y="374.0" type="curve" smooth="yes"/>
      <point x="587.2086330935251" y="374.0"/>
      <point x="706.0" y="488.6060606060606"/>
      <point x="706.0" y="618.0" type="curve" smooth="yes"/>
      <point x="706.0" y="701.8032786885246"/>
      <point x="639.7142857142858" y="760.0"/>
      <point x="546.0" y="760.0" type="curve" smooth="yes"/>
      <point x="397.42857142857144" y="760.0"/>
      <point x="286.0" y="636.2290076335878"/>
      <point x="286.0" y="518.0" type="curve" smooth="yes"/>
      <point x="286.0" y="434.38709677419354"/>
      <point x="354.4507042253521" y="374.0"/>
    </contour>
  </outline>
</glyph>
<glyph name="cedilla" format="2">
  <advance width="612"/>
  <unicode hex="00B8"/>
  <outline>
    <contour>
      <point x="270.0" y="16.0" type="line"/>
      <point x="138.0" y="-142.0" type="line" smooth="yes"/>
      <point x="96.0" y="-194.0"/>
      <point x="108.0" y="-240.0"/>
      <point x="156.0" y="-240.0" type="curve" smooth="yes"/>
      <point x="168.0" y="-240.0"/>
      <point x="180.0" y="-232.0"/>
      <point x="200.0" y="-232.0" type="curve" smooth="yes"/>
      <point x="244.0" y="-232.0"/>
      <point x="262.0" y="-258.0"/>
      <point x="248.0" y="-314.0" type="curve" smooth="yes"/>
      <point x="234.0" y="-368.0"/>
      <point x="194.0" y="-396.0"/>
      <point x="148.0" y="-396.0" type="curve" smooth="yes"/>
      <point x="116.0" y="-396.0"/>
      <point x="102.0" y="-382.0"/>
      <point x="108.0" y="-362.0" type="curve" smooth="yes"/>
      <point x="114.0" y="-338.0" type="line" smooth="yes"/>
      <point x="128.0" y="-282.0"/>
      <point x="92.0" y="-246.0"/>
      <point x="28.0" y="-246.0" type="curve" smooth="yes"/>
      <point x="-36.0" y="-246.0"/>
      <point x="-96.0" y="-290.0"/>
      <point x="-110.0" y="-346.0" type="curve" smooth="yes"/>
      <point x="-134.0" y="-430.0"/>
      <point x="-42.0" y="-490.0"/>
      <point x="108.0" y="-490.0" type="curve" smooth="yes"/>
      <point x="286.0" y="-490.0"/>
      <point x="432.0" y="-412.0"/>
      <point x="464.0" y="-294.0" type="curve" smooth="yes"/>
      <point x="492.0" y="-188.0"/>
      <point x="432.0" y="-130.0"/>
      <point x="320.0" y="-130.0" type="curve" smooth="yes"/>
      <point x="250.0" y="-130.0"/>
      <point x="196.0" y="-146.0"/>
      <point x="174.0" y="-170.0" type="curve"/>
      <point x="262.0" y="-180.0" type="line"/>
      <point x="412.0" y="18.0" type="line"/>
    </contour>
    <contour>
      <point x="270.0" y="16.0" type="line"/>
      <point x="138.0" y="-142.0" type="line" smooth="yes"/>
      <point x="96.0" y="-194.0"/>
      <point x="108.0" y="-240.0"/>
      <point x="156.0" y="-240.0" type="curve" smooth="yes"/>
      <point x="168.0" y="-240.0"/>
      <point x="180.0" y="-232.0"/>
      <point x="200.0" y="-232.0" type="curve" smooth="yes"/>
      <point x="244.0" y="-232.0"/>
      <point x="262.0" y="-258.0"/>
      <point x="248.0" y="-314.0" type="curve" smooth="yes"/>
      <point x="234.0" y="-368.0"/>
      <point x="194.0" y="-396.0"/>
      <point x="148.0" y="-396.0" type="curve" smooth="yes"/>
      <point x="116.0" y="-396.0"/>
      <point x="102.0" y="-382.0"/>
      <point x="108.0" y="-362.0" type="curve" smooth="yes"/>
      <point x="114.0" y="-338.0" type="line" smooth="yes"/>
      <point x="128.0" y="-282.0"/>
      <point x="92.0" y="-246.0"/>
      <point x="28.0" y="-246.0" type="curve" smooth="yes"/>
      <point x="-36.0" y="-246.0"/>
      <point x="-96.0" y="-290.0"/>
      <point x="-110.0" y="-346.0" type="curve" smooth="yes"/>
      <point x="-134.0" y="-430.0"/>
      <point x="-42.0" y="-490.0"/>
      <point x="108.0" y="-490.0" type="curve" smooth="yes"/>
      <point x="286.0" y="-490.0"/>
      <point x="432.0" y="-412.0"/>
      <point x="464.0" y="-294.0" type="curve" smooth="yes"/>
      <point x="492.0" y="-188.0"/>
      <point x="432.0" y="-130.0"/>
      <point x="320.0" y="-130.0" type="curve" smooth="yes"/>
      <point x="250.0" y="-130.0"/>
      <point x="196.0" y="-146.0"/>
      <point x="174.0" y="-170.0" type="curve"/>
      <point x="262.0" y="-180.0" type="line"/>
      <point x="412.0" y="18.0" type="line"/>
    </contour>
  </outline>
</glyph>
<glyph name="ordmasculine" format="2">
  <advance width="902"/>
  <unicode hex="00BA"/>
  <outline>
    <contour>
      <point x="849.0974450719649" y="1429.8381563860523" type="curve" smooth="yes"/>
      <point x="528.8744864732914" y="1429.8381563860523"/>
      <point x="313.1453354173431" y="1124.7836537210003"/>
      <point x="313.1453354173431" y="895.5714307240553" type="curve" smooth="yes"/>
      <point x="313.1453354173431" y="700.066887579602"/>
      <point x="424.38067893056655" y="578.7192401106311"/>
      <point x="611.4583021118967" y="578.7192401106311" type="curve" smooth="yes"/>
      <point x="896.2881968654535" y="578.7192401106311"/>
      <point x="1155.8373317296414" y="828.1560710190713"/>
      <point x="1155.8373317296414" y="1136.5813416693725" type="curve" smooth="yes"/>
      <point x="1155.8373317296414" y="1320.2881968654535"/>
      <point x="1051.3435241869165" y="1429.8381563860523"/>
    </contour>
    <contour>
      <point x="675.5028938316314" y="732.0891834394694" type="curve" smooth="yes"/>
      <point x="611.4583021118967" y="732.0891834394694"/>
      <point x="576.0652382667802" y="786.0214712034565"/>
      <point x="576.0652382667802" y="909.054502665052" type="curve" smooth="yes"/>
      <point x="576.0652382667802" y="1128.1544217062497"/>
      <point x="699.0982697283757" y="1286.5805170129615"/>
      <point x="790.109005330104" y="1286.5805170129615" type="curve" smooth="yes"/>
      <point x="854.1535970498386" y="1286.5805170129615"/>
      <point x="891.2320448875797" y="1239.3897652194728"/>
      <point x="891.2320448875797" y="1123.0982697283757" type="curve" smooth="yes"/>
      <point x="891.2320448875797" y="877.0322068051846"/>
      <point x="753.0305574923628" y="732.0891834394694"/>
    </contour>
  </outline>
</glyph>
<glyph name="guillemetright" format="2">
  <advance width="1220"/>
  <unicode hex="00BB"/>
  <outline>
    <contour>
      <point x="1194.0" y="496.0" type="curve" smooth="yes"/>
      <point x="1200.0" y="522.0"/>
      <point x="1202.0" y="560.0"/>
      <point x="1154.0" y="586.0" type="curve" smooth="yes"/>
      <point x="1064.0" y="636.0"/>
      <point x="972.0" y="738.0"/>
      <point x="924.0" y="840.0" type="curve" smooth="yes"/>
      <point x="904.0" y="880.0"/>
      <point x="880.0" y="894.0"/>
      <point x="854.0" y="894.0" type="curve" smooth="yes"/>
      <point x="822.0" y="894.0"/>
      <point x="796.0" y="874.0"/>
      <point x="788.0" y="840.0" type="curve" smooth="yes"/>
      <point x="778.0" y="806.0"/>
      <point x="790.0" y="780.0"/>
      <point x="804.0" y="734.0" type="curve" smooth="yes"/>
      <point x="840.0" y="630.0"/>
      <point x="880.0" y="534.0"/>
      <point x="936.0" y="448.0" type="curve"/>
      <point x="958.0" y="526.0" type="line"/>
      <point x="854.0" y="436.0"/>
      <point x="760.0" y="350.0"/>
      <point x="680.0" y="258.0" type="curve" smooth="yes"/>
      <point x="640.0" y="212.0"/>
      <point x="612.0" y="186.0"/>
      <point x="602.0" y="152.0" type="curve" smooth="yes"/>
      <point x="594.0" y="118.0"/>
      <point x="606.0" y="98.0"/>
      <point x="630.0" y="98.0" type="curve" smooth="yes"/>
      <point x="658.0" y="98.0"/>
      <point x="688.0" y="114.0"/>
      <point x="730.0" y="154.0" type="curve" smooth="yes"/>
      <point x="838.0" y="262.0"/>
      <point x="996.0" y="362.0"/>
      <point x="1104.0" y="406.0" type="curve" smooth="yes"/>
      <point x="1166.0" y="430.0"/>
      <point x="1186.0" y="470.0"/>
    </contour>
    <contour>
      <point x="742.0" y="496.0" type="curve" smooth="yes"/>
      <point x="748.0" y="522.0"/>
      <point x="750.0" y="560.0"/>
      <point x="702.0" y="586.0" type="curve" smooth="yes"/>
      <point x="612.0" y="636.0"/>
      <point x="520.0" y="738.0"/>
      <point x="472.0" y="840.0" type="curve" smooth="yes"/>
      <point x="452.0" y="880.0"/>
      <point x="428.0" y="894.0"/>
      <point x="402.0" y="894.0" type="curve" smooth="yes"/>
      <point x="370.0" y="894.0"/>
      <point x="344.0" y="874.0"/>
      <point x="336.0" y="840.0" type="curve" smooth="yes"/>
      <point x="326.0" y="806.0"/>
      <point x="338.0" y="780.0"/>
      <point x="352.0" y="734.0" type="curve" smooth="yes"/>
      <point x="388.0" y="630.0"/>
      <point x="428.0" y="534.0"/>
      <point x="484.0" y="448.0" type="curve"/>
      <point x="506.0" y="526.0" type="line"/>
      <point x="402.0" y="436.0"/>
      <point x="308.0" y="350.0"/>
      <point x="228.0" y="258.0" type="curve" smooth="yes"/>
      <point x="188.0" y="212.0"/>
      <point x="160.0" y="186.0"/>
      <point x="150.0" y="152.0" type="curve" smooth="yes"/>
      <point x="142.0" y="118.0"/>
      <point x="154.0" y="98.0"/>
      <point x="178.0" y="98.0" type="curve" smooth="yes"/>
      <point x="206.0" y="98.0"/>
      <point x="236.0" y="114.0"/>
      <point x="278.0" y="154.0" type="curve" smooth="yes"/>
      <point x="386.0" y="262.0"/>
      <point x="544.0" y="362.0"/>
      <point x="652.0" y="406.0" type="curve" smooth="yes"/>
      <point x="714.0" y="430.0"/>
      <point x="734.0" y="470.0"/>
    </contour>
  </outline>
</glyph>
<glyph name="onequarter" format="2">
  <advance width="1540"/>
  <unicode hex="00BC"/>
  <outline>
    <contour>
      <point x="1586.0" y="1074.0" type="curve" smooth="yes"/>
      <point x="1663.1714785452568" y="1137.6664697998367"/>
      <point x="1708.0" y="1185.578947368421"/>
      <point x="1708.0" y="1234.0" type="curve" smooth="yes"/>
      <point x="1708.0" y="1279.7446808510638"/>
      <point x="1679.3333333333333" y="1320.0"/>
      <point x="1622.0" y="1320.0" type="curve" smooth="yes"/>
      <point x="1560.8131868131868" y="1320.0"/>
      <point x="1509.0399000698887" y="1278.977958138914"/>
      <point x="1448.0" y="1214.0" type="curve" smooth="yes"/>
      <point x="1313.1863614718527" y="1073.1499298959654"/>
      <point x="1166.02254732" y="896.0207253143433"/>
      <point x="968.0" y="714.0" type="curve" smooth="yes"/>
      <point x="696.0" y="464.0"/>
      <point x="516.3620268753459" y="372.62722252409947"/>
      <point x="308.0" y="198.0" type="curve" smooth="yes"/>
      <point x="248.11642065532877" y="146.37622470286965"/>
      <point x="218.0" y="91.47945205479454"/>
      <point x="218.0" y="54.0" type="curve" smooth="yes"/>
      <point x="218.0" y="18.36363636363636"/>
      <point x="244.59459459459458" y="-30.0"/>
      <point x="300.0" y="-30.0" type="curve" smooth="yes"/>
      <point x="351.51724137931035" y="-30.0"/>
      <point x="404.3977713661559" y="-15.576565965059828"/>
      <point x="466.0" y="50.0" type="curve" smooth="yes"/>
      <point x="632.5451927999032" y="218.5278736665687"/>
      <point x="722.6211426209887" y="354.47012488827676"/>
      <point x="1024.0" y="646.0" type="curve" smooth="yes"/>
      <point x="1238.9371841819363" y="854.8540563277306"/>
      <point x="1440.2642485261931" y="952.5535404384941"/>
    </contour>
    <contour>
      <point x="448.0" y="1136.0" type="line" smooth="yes"/>
      <point x="412.0" y="1136.0"/>
      <point x="402.0" y="1160.0"/>
      <point x="414.0" y="1198.0" type="curve" smooth="yes"/>
      <point x="422.0" y="1232.0"/>
      <point x="450.0" y="1256.0"/>
      <point x="484.0" y="1256.0" type="curve" smooth="yes"/>
      <point x="532.0" y="1256.0" type="line" smooth="yes"/>
      <point x="600.0" y="1256.0"/>
      <point x="658.0" y="1268.0"/>
      <point x="694.0" y="1300.0" type="curve" smooth="yes"/>
      <point x="722.0" y="1322.0"/>
      <point x="742.0" y="1330.0"/>
      <point x="766.0" y="1330.0" type="curve" smooth="yes"/>
      <point x="796.0" y="1330.0"/>
      <point x="812.0" y="1314.0"/>
      <point x="800.0" y="1270.0" type="curve" smooth="yes"/>
      <point x="672.0" y="794.0" type="line" smooth="yes"/>
      <point x="664.0" y="758.0"/>
      <point x="684.0" y="736.0"/>
      <point x="714.0" y="732.0" type="curve" smooth="yes"/>
      <point x="750.0" y="728.0" type="line" smooth="yes"/>
      <point x="782.0" y="724.0"/>
      <point x="800.0" y="706.0"/>
      <point x="790.0" y="674.0" type="curve" smooth="yes"/>
      <point x="778.0" y="626.0"/>
      <point x="758.0" y="610.0"/>
      <point x="718.0" y="610.0" type="curve" smooth="yes"/>
      <point x="302.0" y="610.0" type="line" smooth="yes"/>
      <point x="268.0" y="610.0"/>
      <point x="252.0" y="626.0"/>
      <point x="264.0" y="674.0" type="curve" smooth="yes"/>
      <point x="274.0" y="708.0"/>
      <point x="300.0" y="728.0"/>
      <point x="334.0" y="732.0" type="curve" smooth="yes"/>
      <point x="368.0" y="736.0" type="line" smooth="yes"/>
      <point x="408.0" y="740.0"/>
      <point x="444.0" y="758.0"/>
      <point x="452.0" y="794.0" type="curve" smooth="yes"/>
      <point x="526.0" y="1070.0" type="line" smooth="yes"/>
      <point x="540.0" y="1118.0"/>
      <point x="522.0" y="1136.0"/>
      <point x="484.0" y="1136.0" type="curve" smooth="yes"/>
    </contour>
    <contour>
      <point x="1230.0" y="352.0"/>
      <point x="1214.0" y="324.0"/>
      <point x="1206.0" y="290.0" type="curve" smooth="yes"/>
      <point x="1172.0" y="168.0" type="line" smooth="yes"/>
      <point x="1162.0" y="130.0"/>
      <point x="1140.0" y="110.0"/>
      <point x="1104.0" y="106.0" type="curve" smooth="yes"/>
      <point x="1052.0" y="100.0"/>
      <point x="1026.0" y="82.0"/>
      <point x="1016.0" y="50.0" type="curve" smooth="yes"/>
      <point x="1008.0" y="20.0"/>
      <point x="1024.0" y="0.0"/>
      <point x="1072.0" y="0.0" type="curve" smooth="yes"/>
      <point x="1370.0" y="0.0" type="line" smooth="yes"/>
      <point x="1416.0" y="0.0"/>
      <point x="1440.0" y="20.0"/>
      <point x="1448.0" y="50.0" type="curve" smooth="yes"/>
      <point x="1458.0" y="82.0"/>
      <point x="1438.0" y="96.0"/>
      <point x="1402.0" y="104.0" type="curve" smooth="yes"/>
      <point x="1372.0" y="112.0"/>
      <point x="1362.0" y="128.0"/>
      <point x="1372.0" y="166.0" type="curve" smooth="yes"/>
      <point x="1440.0" y="422.0" type="line" smooth="yes"/>
      <point x="1450.0" y="454.0"/>
      <point x="1436.0" y="468.0"/>
      <point x="1416.0" y="468.0" type="curve" smooth="yes"/>
      <point x="1404.0" y="468.0"/>
      <point x="1390.0" y="464.0"/>
      <point x="1372.0" y="452.0" type="curve" smooth="yes"/>
      <point x="1272.0" y="382.0" type="line" smooth="yes"/>
    </contour>
    <contour>
      <point x="1102.0" y="424.0" type="curve" smooth="yes"/>
      <point x="924.0" y="302.0" type="line" smooth="yes"/>
      <point x="890.0" y="278.0"/>
      <point x="866.0" y="252.0"/>
      <point x="860.0" y="226.0" type="curve" smooth="yes"/>
      <point x="852.0" y="194.0"/>
      <point x="866.0" y="176.0"/>
      <point x="900.0" y="176.0" type="curve" smooth="yes"/>
      <point x="1438.0" y="176.0" type="line" smooth="yes"/>
      <point x="1482.0" y="176.0"/>
      <point x="1506.0" y="192.0"/>
      <point x="1516.0" y="226.0" type="curve" smooth="yes"/>
      <point x="1526.0" y="260.0"/>
      <point x="1502.0" y="272.0"/>
      <point x="1464.0" y="272.0" type="curve" smooth="yes"/>
      <point x="920.0" y="272.0" type="line"/>
      <point x="942.0" y="218.0" type="line"/>
      <point x="1332.0" y="492.0" type="line" smooth="yes"/>
      <point x="1388.0" y="532.0"/>
      <point x="1420.0" y="568.0"/>
      <point x="1430.0" y="606.0" type="curve" smooth="yes"/>
      <point x="1448.0" y="674.0"/>
      <point x="1412.0" y="720.0"/>
      <point x="1338.0" y="720.0" type="curve" smooth="yes"/>
      <point x="1252.0" y="720.0"/>
      <point x="1192.0" y="658.0"/>
      <point x="1176.0" y="602.0" type="curve" smooth="yes"/>
      <point x="1168.0" y="566.0"/>
      <point x="1184.0" y="544.0"/>
      <point x="1176.0" y="514.0" type="curve" smooth="yes"/>
      <point x="1166.0" y="482.0"/>
      <point x="1142.0" y="452.0"/>
    </contour>
  </outline>
</glyph>
<glyph name="onehalf" format="2">
  <advance width="1540"/>
  <unicode hex="00BD"/>
  <outline>
    <contour>
      <point x="1580.0" y="1074.0" type="curve" smooth="yes"/>
      <point x="1657.1714785452568" y="1137.6664697998367"/>
      <point x="1702.0" y="1185.578947368421"/>
      <point x="1702.0" y="1234.0" type="curve" smooth="yes"/>
      <point x="1702.0" y="1279.7446808510638"/>
      <point x="1673.3333333333333" y="1320.0"/>
      <point x="1616.0" y="1320.0" type="curve" smooth="yes"/>
      <point x="1554.8131868131868" y="1320.0"/>
      <point x="1503.0399000698887" y="1278.977958138914"/>
      <point x="1442.0" y="1214.0" type="curve" smooth="yes"/>
      <point x="1307.1863614718527" y="1073.1499298959654"/>
      <point x="1160.02254732" y="896.0207253143433"/>
      <point x="962.0" y="714.0" type="curve" smooth="yes"/>
      <point x="690.0" y="464.0"/>
      <point x="510.3620268753459" y="372.62722252409947"/>
      <point x="302.0" y="198.0" type="curve" smooth="yes"/>
      <point x="242.11642065532877" y="146.37622470286965"/>
      <point x="212.0" y="91.47945205479454"/>
      <point x="212.0" y="54.0" type="curve" smooth="yes"/>
      <point x="212.0" y="18.36363636363636"/>
      <point x="238.59459459459458" y="-30.0"/>
      <point x="294.0" y="-30.0" type="curve" smooth="yes"/>
      <point x="345.51724137931035" y="-30.0"/>
      <point x="398.3977713661559" y="-15.576565965059828"/>
      <point x="460.0" y="50.0" type="curve" smooth="yes"/>
      <point x="626.5451927999032" y="218.5278736665687"/>
      <point x="716.6211426209887" y="354.47012488827676"/>
      <point x="1018.0" y="646.0" type="curve" smooth="yes"/>
      <point x="1232.9371841819363" y="854.8540563277306"/>
      <point x="1434.2642485261931" y="952.5535404384941"/>
    </contour>
    <contour>
      <point x="448.0" y="1136.0" type="line" smooth="yes"/>
      <point x="412.0" y="1136.0"/>
      <point x="402.0" y="1160.0"/>
      <point x="414.0" y="1198.0" type="curve" smooth="yes"/>
      <point x="422.0" y="1232.0"/>
      <point x="450.0" y="1256.0"/>
      <point x="484.0" y="1256.0" type="curve" smooth="yes"/>
      <point x="532.0" y="1256.0" type="line" smooth="yes"/>
      <point x="600.0" y="1256.0"/>
      <point x="658.0" y="1268.0"/>
      <point x="694.0" y="1300.0" type="curve" smooth="yes"/>
      <point x="722.0" y="1322.0"/>
      <point x="742.0" y="1330.0"/>
      <point x="766.0" y="1330.0" type="curve" smooth="yes"/>
      <point x="796.0" y="1330.0"/>
      <point x="812.0" y="1314.0"/>
      <point x="800.0" y="1270.0" type="curve" smooth="yes"/>
      <point x="672.0" y="794.0" type="line" smooth="yes"/>
      <point x="664.0" y="758.0"/>
      <point x="684.0" y="736.0"/>
      <point x="714.0" y="732.0" type="curve" smooth="yes"/>
      <point x="750.0" y="728.0" type="line" smooth="yes"/>
      <point x="782.0" y="724.0"/>
      <point x="800.0" y="706.0"/>
      <point x="790.0" y="674.0" type="curve" smooth="yes"/>
      <point x="778.0" y="626.0"/>
      <point x="758.0" y="610.0"/>
      <point x="718.0" y="610.0" type="curve" smooth="yes"/>
      <point x="302.0" y="610.0" type="line" smooth="yes"/>
      <point x="268.0" y="610.0"/>
      <point x="252.0" y="626.0"/>
      <point x="264.0" y="674.0" type="curve" smooth="yes"/>
      <point x="274.0" y="708.0"/>
      <point x="300.0" y="728.0"/>
      <point x="334.0" y="732.0" type="curve" smooth="yes"/>
      <point x="368.0" y="736.0" type="line" smooth="yes"/>
      <point x="408.0" y="740.0"/>
      <point x="444.0" y="758.0"/>
      <point x="452.0" y="794.0" type="curve" smooth="yes"/>
      <point x="526.0" y="1070.0" type="line" smooth="yes"/>
      <point x="540.0" y="1118.0"/>
      <point x="522.0" y="1136.0"/>
      <point x="484.0" y="1136.0" type="curve" smooth="yes"/>
    </contour>
    <contour>
      <point x="1188.0" y="330.0" type="curve" smooth="yes"/>
      <point x="1008.0" y="238.0"/>
      <point x="926.0" y="156.0"/>
      <point x="902.0" y="70.0" type="curve" smooth="yes"/>
      <point x="888.0" y="20.0"/>
      <point x="908.0" y="-10.0"/>
      <point x="954.0" y="-10.0" type="curve" smooth="yes"/>
      <point x="1008.0" y="-10.0"/>
      <point x="1020.0" y="48.0"/>
      <point x="1072.0" y="48.0" type="curve" smooth="yes"/>
      <point x="1132.0" y="48.0"/>
      <point x="1194.0" y="-14.0"/>
      <point x="1296.0" y="-14.0" type="curve" smooth="yes"/>
      <point x="1408.0" y="-14.0"/>
      <point x="1504.0" y="80.0"/>
      <point x="1534.0" y="194.0" type="curve" smooth="yes"/>
      <point x="1546.0" y="242.0"/>
      <point x="1540.0" y="278.0"/>
      <point x="1512.0" y="278.0" type="curve" smooth="yes"/>
      <point x="1492.0" y="278.0"/>
      <point x="1470.0" y="266.0"/>
      <point x="1450.0" y="236.0" type="curve" smooth="yes"/>
      <point x="1424.0" y="196.0"/>
      <point x="1396.0" y="180.0"/>
      <point x="1356.0" y="180.0" type="curve" smooth="yes"/>
      <point x="1314.0" y="180.0"/>
      <point x="1254.0" y="190.0"/>
      <point x="1216.0" y="190.0" type="curve" smooth="yes"/>
      <point x="1084.0" y="190.0"/>
      <point x="1014.0" y="130.0"/>
      <point x="998.0" y="68.0" type="curve"/>
      <point x="1034.0" y="70.0" type="line"/>
      <point x="1054.0" y="142.0"/>
      <point x="1100.0" y="196.0"/>
      <point x="1246.0" y="254.0" type="curve" smooth="yes"/>
      <point x="1450.0" y="336.0"/>
      <point x="1544.0" y="412.0"/>
      <point x="1574.0" y="522.0" type="curve" smooth="yes"/>
      <point x="1604.0" y="640.0"/>
      <point x="1536.0" y="720.0"/>
      <point x="1386.0" y="720.0" type="curve" smooth="yes"/>
      <point x="1204.0" y="720.0"/>
      <point x="1048.0" y="606.0"/>
      <point x="1016.0" y="490.0" type="curve" smooth="yes"/>
      <point x="1000.0" y="426.0"/>
      <point x="1024.0" y="392.0"/>
      <point x="1082.0" y="392.0" type="curve" smooth="yes"/>
      <point x="1138.0" y="392.0"/>
      <point x="1196.0" y="430.0"/>
      <point x="1214.0" y="498.0" type="curve" smooth="yes"/>
      <point x="1232.0" y="560.0" type="line" smooth="yes"/>
      <point x="1240.0" y="592.0"/>
      <point x="1262.0" y="616.0"/>
      <point x="1306.0" y="616.0" type="curve" smooth="yes"/>
      <point x="1352.0" y="616.0"/>
      <point x="1380.0" y="580.0"/>
      <point x="1362.0" y="510.0" type="curve" smooth="yes"/>
      <point x="1340.0" y="430.0"/>
      <point x="1288.0" y="380.0"/>
    </contour>
  </outline>
</glyph>
<glyph name="Aring" format="2">
  <advance width="1318"/>
  <unicode hex="00C5"/>
  <outline>
    <contour>
      <point x="460.0" y="578.0" type="line"/>
      <point x="432.0" y="440.0" type="line"/>
      <point x="1048.0" y="440.0" type="line"/>
      <point x="1070.0" y="578.0" type="line"/>
    </contour>
    <contour>
      <point x="262.0" y="370.0" type="line" smooth="yes"/>
      <point x="170.0" y="240.0"/>
      <point x="140.0" y="204.0"/>
      <point x="100.0" y="178.0" type="curve" smooth="yes"/>
      <point x="46.0" y="144.0"/>
      <point x="22.0" y="114.0"/>
      <point x="22.0" y="70.0" type="curve" smooth="yes"/>
      <point x="22.0" y="26.0"/>
      <point x="44.0" y="0.0"/>
      <point x="88.0" y="0.0" type="curve" smooth="yes"/>
      <point x="442.0" y="0.0" type="line" smooth="yes"/>
      <point x="498.0" y="0.0"/>
      <point x="530.0" y="24.0"/>
      <point x="530.0" y="76.0" type="curve" smooth="yes"/>
      <point x="530.0" y="114.0"/>
      <point x="504.0" y="142.0"/>
      <point x="462.0" y="174.0" type="curve" smooth="yes"/>
      <point x="418.0" y="206.0"/>
      <point x="408.0" y="240.0"/>
      <point x="408.0" y="278.0" type="curve" smooth="yes"/>
      <point x="408.0" y="318.0"/>
      <point x="430.0" y="350.0"/>
      <point x="454.0" y="384.0" type="curve" smooth="yes"/>
      <point x="592.0" y="580.0" type="line" smooth="yes"/>
      <point x="932.6609969414793" y="1063.8373579748547"/>
      <point x="1011.4501014582727" y="1157.7859348725176"/>
      <point x="1178.0" y="1244.0" type="curve"/>
      <point x="1006.0" y="1262.0" type="line"/>
      <point x="988.0" y="892.0"/>
      <point x="981.9197567126038" y="589.2376887697355"/>
      <point x="950.0" y="286.0" type="curve" smooth="yes"/>
      <point x="944.0" y="224.0"/>
      <point x="896.0" y="186.0"/>
      <point x="858.0" y="172.0" type="curve" smooth="yes"/>
      <point x="806.0" y="152.0" type="line" smooth="yes"/>
      <point x="770.0" y="138.0"/>
      <point x="736.0" y="116.0"/>
      <point x="736.0" y="74.0" type="curve" smooth="yes"/>
      <point x="736.0" y="18.0"/>
      <point x="752.0" y="0.0"/>
      <point x="824.0" y="0.0" type="curve" smooth="yes"/>
      <point x="1258.0" y="0.0" type="line" smooth="yes"/>
      <point x="1322.0" y="0.0"/>
      <point x="1354.0" y="34.0"/>
      <point x="1354.0" y="72.0" type="curve" smooth="yes"/>
      <point x="1354.0" y="110.0"/>
      <point x="1348.0" y="122.0"/>
      <point x="1292.0" y="168.0" type="curve" smooth="yes"/>
      <point x="1250.0" y="204.0"/>
      <point x="1236.0" y="250.0"/>
      <point x="1238.0" y="330.0" type="curve" smooth="yes"/>
      <point x="1250.0" y="620.0"/>
      <point x="1282.0" y="1008.0"/>
      <point x="1310.0" y="1376.0" type="curve"/>
      <point x="1312.0" y="1444.0" type="line"/>
      <point x="1118.0" y="1444.0"/>
      <point x="906.0" y="1270.0"/>
      <point x="468.0" y="658.0" type="curve" smooth="yes"/>
    </contour>
    <contour>
      <point x="1148.0" y="1294.0" type="curve" smooth="yes"/>
      <point x="1286.0" y="1294.0"/>
      <point x="1426.0" y="1406.0"/>
      <point x="1462.0" y="1542.0" type="curve" smooth="yes"/>
      <point x="1500.0" y="1678.0"/>
      <point x="1418.0" y="1786.0"/>
      <point x="1280.0" y="1786.0" type="curve" smooth="yes"/>
      <point x="1144.0" y="1786.0"/>
      <point x="1006.0" y="1678.0"/>
      <point x="968.0" y="1542.0" type="curve" smooth="yes"/>
      <point x="932.0" y="1406.0"/>
      <point x="1012.0" y="1294.0"/>
    </contour>
    <contour>
      <point x="1186.0" y="1426.0" type="curve" smooth="yes"/>
      <point x="1126.0" y="1426.0"/>
      <point x="1090.0" y="1476.0"/>
      <point x="1106.0" y="1542.0" type="curve" smooth="yes"/>
      <point x="1122.0" y="1602.0"/>
      <point x="1186.0" y="1654.0"/>
      <point x="1246.0" y="1654.0" type="curve" smooth="yes"/>
      <point x="1302.0" y="1654.0"/>
      <point x="1340.0" y="1602.0"/>
      <point x="1324.0" y="1542.0" type="curve" smooth="yes"/>
      <point x="1308.0" y="1476.0"/>
      <point x="1242.0" y="1426.0"/>
    </contour>
  </outline>
</glyph>
<glyph name="Eacute" format="2">
  <advance width="1274"/>
  <unicode hex="00C9"/>
  <outline>
    <contour>
      <point x="658.0" y="766.0" type="line"/>
      <point x="636.0" y="628.0" type="line"/>
      <point x="976.0" y="628.0" type="line" smooth="yes"/>
      <point x="1058.0" y="628.0"/>
      <point x="1098.0" y="610.0"/>
      <point x="1138.0" y="564.0" type="curve" smooth="yes"/>
      <point x="1180.0" y="518.0"/>
      <point x="1202.0" y="502.0"/>
      <point x="1246.0" y="502.0" type="curve" smooth="yes"/>
      <point x="1274.0" y="502.0"/>
      <point x="1308.0" y="524.0"/>
      <point x="1300.0" y="566.0" type="curve" smooth="yes"/>
      <point x="1256.0" y="824.0" type="line" smooth="yes"/>
      <point x="1246.0" y="880.0"/>
      <point x="1218.0" y="920.0"/>
      <point x="1174.0" y="920.0" type="curve" smooth="yes"/>
      <point x="1144.0" y="920.0"/>
      <point x="1124.0" y="898.0"/>
      <point x="1094.0" y="862.0" type="curve" smooth="yes"/>
      <point x="1044.0" y="798.0"/>
      <point x="1000.0" y="766.0"/>
      <point x="940.0" y="766.0" type="curve" smooth="yes"/>
    </contour>
    <contour>
      <point x="884.0" y="0.0" type="line" smooth="yes"/>
      <point x="958.0" y="0.0"/>
      <point x="1002.0" y="-42.0"/>
      <point x="1054.0" y="-42.0" type="curve" smooth="yes"/>
      <point x="1180.0" y="-42.0"/>
      <point x="1284.0" y="112.0"/>
      <point x="1284.0" y="286.0" type="curve" smooth="yes"/>
      <point x="1284.0" y="364.0"/>
      <point x="1258.0" y="400.0"/>
      <point x="1216.0" y="400.0" type="curve" smooth="yes"/>
      <point x="1174.0" y="400.0"/>
      <point x="1152.0" y="384.0"/>
      <point x="1120.0" y="334.0" type="curve" smooth="yes"/>
      <point x="1092.0" y="290.0" type="line" smooth="yes"/>
      <point x="1014.0" y="170.0"/>
      <point x="922.0" y="132.0"/>
      <point x="816.0" y="132.0" type="curve" smooth="yes"/>
      <point x="780.0" y="132.0" type="line" smooth="yes"/>
      <point x="694.0" y="132.0"/>
      <point x="658.0" y="176.0"/>
      <point x="658.0" y="240.0" type="curve" smooth="yes"/>
      <point x="658.0" y="322.0"/>
      <point x="780.0" y="878.0"/>
      <point x="916.0" y="1268.0" type="curve"/>
      <point x="1100.0" y="1268.0" type="line" smooth="yes"/>
      <point x="1164.0" y="1268.0"/>
      <point x="1214.0" y="1236.0"/>
      <point x="1242.0" y="1170.0" type="curve" smooth="yes"/>
      <point x="1272.0" y="1096.0" type="line" smooth="yes"/>
      <point x="1294.0" y="1042.0"/>
      <point x="1326.0" y="1008.0"/>
      <point x="1376.0" y="1008.0" type="curve" smooth="yes"/>
      <point x="1412.0" y="1008.0"/>
      <point x="1454.0" y="1042.0"/>
      <point x="1452.0" y="1102.0" type="curve" smooth="yes"/>
      <point x="1440.0" y="1384.0" type="line" smooth="yes"/>
      <point x="1438.0" y="1442.0"/>
      <point x="1418.0" y="1466.0"/>
      <point x="1378.0" y="1466.0" type="curve" smooth="yes"/>
      <point x="1352.0" y="1466.0"/>
      <point x="1330.0" y="1452.0"/>
      <point x="1298.0" y="1426.0" type="curve" smooth="yes"/>
      <point x="1280.0" y="1410.0"/>
      <point x="1254.0" y="1400.0"/>
      <point x="1234.0" y="1400.0" type="curve" smooth="yes"/>
      <point x="482.0" y="1400.0" type="line" smooth="yes"/>
      <point x="432.0" y="1400.0"/>
      <point x="400.0" y="1370.0"/>
      <point x="400.0" y="1324.0" type="curve" smooth="yes"/>
      <point x="400.0" y="1280.0"/>
      <point x="420.0" y="1258.0"/>
      <point x="452.0" y="1248.0" type="curve" smooth="yes"/>
      <point x="502.0" y="1232.0" type="line" smooth="yes"/>
      <point x="528.0" y="1224.0"/>
      <point x="544.0" y="1206.0"/>
      <point x="544.0" y="1172.0" type="curve" smooth="yes"/>
      <point x="544.0" y="1098.0"/>
      <point x="394.0" y="524.0"/>
      <point x="302.0" y="258.0" type="curve" smooth="yes"/>
      <point x="282.0" y="198.0"/>
      <point x="264.0" y="166.0"/>
      <point x="214.0" y="154.0" type="curve" smooth="yes"/>
      <point x="172.0" y="144.0" type="line" smooth="yes"/>
      <point x="120.0" y="132.0"/>
      <point x="96.0" y="98.0"/>
      <point x="96.0" y="68.0" type="curve" smooth="yes"/>
      <point x="96.0" y="28.0"/>
      <point x="126.0" y="0.0"/>
      <point x="170.0" y="0.0" type="curve" smooth="yes"/>
    </contour>
    <contour>
      <point x="990.4307806183654" y="1682.0" type="curve" smooth="yes"/>
      <point x="1216.4307806183654" y="1798.0" type="line" smooth="yes"/>
      <point x="1338.4307806183654" y="1860.0"/>
      <point x="1426.4307806183654" y="1896.0"/>
      <point x="1508.4307806183654" y="1896.0" type="curve" smooth="yes"/>
      <point x="1586.4307806183654" y="1896.0"/>
      <point x="1618.4307806183654" y="1856.0"/>
      <point x="1600.4307806183654" y="1792.0" type="curve" smooth="yes"/>
      <point x="1584.4307806183654" y="1732.0"/>
      <point x="1500.4307806183654" y="1686.0"/>
      <point x="1364.4307806183654" y="1652.0" type="curve" smooth="yes"/>
      <point x="1100.4307806183654" y="1588.0" type="line" smooth="yes"/>
      <point x="1040.4307806183654" y="1574.0"/>
      <point x="1000.4307806183654" y="1566.0"/>
      <point x="968.4307806183654" y="1566.0" type="curve" smooth="yes"/>
      <point x="928.4307806183654" y="1566.0"/>
      <point x="912.4307806183654" y="1582.0"/>
      <point x="922.4307806183654" y="1616.0" type="curve" smooth="yes"/>
      <point x="928.4307806183654" y="1638.0"/>
      <point x="956.4307806183654" y="1666.0"/>
    </contour>
  </outline>
</glyph>
